<?xml version="1.0" encoding="utf-8"?>
<!-- Generator: Adobe Illustrator 16.0.0, SVG Export Plug-In . SVG Version: 6.00 Build 0)  -->
<!DOCTYPE svg PUBLIC "-//W3C//DTD SVG 1.1//EN" "http://www.w3.org/Graphics/SVG/1.1/DTD/svg11.dtd">
<svg version="1.1" id="Layer_1" xmlns="http://www.w3.org/2000/svg" xmlns:xlink="http://www.w3.org/1999/xlink" x="0px" y="0px"
	 width="16px" height="16px" viewBox="0 0 16 16" enable-background="new 0 0 16 16" xml:space="preserve">
<path id="_x3C_Close_Menu_x3E_" fill="#46474b" d="M10.121,8l4.95-4.95c0.586-0.586,0.586-1.535,0-2.121s-1.535-0.586-2.121,0
	L8,5.879l-4.95-4.95c-0.586-0.586-1.535-0.586-2.121,0s-0.586,1.535,0,2.121L5.879,8l-4.95,4.95c-0.586,0.586-0.586,1.535,0,2.121
	c0.293,0.293,0.677,0.439,1.061,0.439s0.768-0.146,1.061-0.439L8,10.121l4.95,4.95c0.293,0.293,0.677,0.439,1.061,0.439
	s0.768-0.146,1.061-0.439c0.586-0.586,0.586-1.535,0-2.121L10.121,8z"/>
</svg>