<svg xmlns="http://www.w3.org/2000/svg" width="16" height="16" viewBox="0 0 16 16">
  <path fill="#46474B" fill-rule="evenodd" d="M10.121,8 L15.071,3.05 C15.657,2.464 15.657,1.515 15.071,0.929 C14.485,0.343 13.536,0.343 12.95,0.929 L8,5.879 L3.05,0.929 C2.464,0.343 1.515,0.343 0.929,0.929 C0.343,1.515 0.343,2.464 0.929,3.05 L5.879,8 L0.929,12.95 C0.343,13.536 0.343,14.485 0.929,15.071 C1.222,15.364 1.606,15.51 1.99,15.51 C2.374,15.51 2.758,15.364 3.051,15.071 L8,10.121 L12.95,15.071 C13.243,15.364 13.627,15.51 14.011,15.51 C14.395,15.51 14.779,15.364 15.072,15.071 C15.658,14.485 15.658,13.536 15.072,12.95 L10.121,8 L10.121,8 Z"/>
</svg>
