<?xml version="1.0" encoding="utf-8"?>
<!-- Generator: Adobe Illustrator 16.2.1, SVG Export Plug-In . SVG Version: 6.00 Build 0)  -->
<!DOCTYPE svg PUBLIC "-//W3C//DTD SVG 1.1//EN" "http://www.w3.org/Graphics/SVG/1.1/DTD/svg11.dtd">
<svg width="378px" height="378px" viewBox="102 57 378 378" version="1.1" xmlns="http://www.w3.org/2000/svg" xmlns:xlink="http://www.w3.org/1999/xlink">
    <!-- Generator: Sketch 39.1 (31720) - http://www.bohemiancoding.com/sketch -->
    <desc>Created with Sketch.</desc>
    <defs>
        <polygon id="path-1" points="14.6811304 14.2895679 14.6811304 0.0817901235 0.459173913 0.0817901235 0.459173913 14.2895679 14.6811304 14.2895679"></polygon>
        <polygon id="path-3" points="371.209687 0.562222222 0.998696498 0.562222222 0.998696498 161.814988 371.209687 161.814988 371.209687 0.562222222"></polygon>
    </defs>
    <g id="pattern" stroke="none" stroke-width="1" fill="none" fill-rule="evenodd" transform="translate(102.000000, 57.000000)">
        <path d="M137.378583,141.040716 C137.378583,137.116395 140.564583,133.935654 144.4878,133.935654 C148.415713,133.935654 151.597017,137.116395 151.597017,141.040716 C151.597017,144.962691 148.415713,148.143432 144.4878,148.143432 C140.564583,148.143432 137.378583,144.962691 137.378583,141.040716" id="Fill-1" fill="#FF4E00"></path>
        <path d="M178.972435,105.434247 C178.972435,101.512272 182.151391,98.3291852 186.084,98.3291852 C190.007217,98.3291852 193.195565,101.512272 193.195565,105.434247 C193.195565,109.358568 190.007217,112.539309 186.084,112.539309 C182.151391,112.539309 178.972435,109.358568 178.972435,105.434247" id="Fill-3" fill="#01ADAB"></path>
        <path d="M197.876426,27.3419012 C197.876426,23.4175802 201.060078,20.2368395 204.987991,20.2368395 C208.915904,20.2368395 212.099557,23.4175802 212.099557,27.3419012 C212.099557,31.2615309 208.915904,34.446963 204.987991,34.446963 C201.060078,34.446963 197.876426,31.2615309 197.876426,27.3419012" id="Fill-5" fill="#01ADAB"></path>
        <g id="Group-9" transform="translate(362.565217, 165.980988)">
            <mask id="mask-2" fill="white">
                <use xlink:href="#path-1"></use>
            </mask>
            <g id="Clip-8"></g>
            <path d="M0.459173913,7.18685185 C0.459173913,3.26253086 3.64517391,0.0817901235 7.57073913,0.0817901235 C11.4963043,0.0817901235 14.6823043,3.26253086 14.6823043,7.18685185 C14.6823043,11.1088272 11.4963043,14.2895679 7.57073913,14.2895679 C3.64517391,14.2895679 0.459173913,11.1088272 0.459173913,7.18685185" id="Fill-7" fill="#01ADAB" mask="url(#mask-2)"></path>
        </g>
        <path d="M0,172.174914 C0,168.250593 3.18365217,165.072198 7.11391304,165.072198 C11.0394783,165.072198 14.2231304,168.250593 14.2231304,172.174914 C14.2231304,176.099235 11.0394783,179.27763 7.11391304,179.27763 C3.18365217,179.27763 0,176.099235 0,172.174914" id="Fill-10" fill="#01ADAB"></path>
        <path d="M256.592739,118.281531 C256.592739,114.359556 259.771696,111.178815 263.701957,111.178815 C267.627522,111.178815 270.813522,114.359556 270.813522,118.281531 C270.813522,122.203506 267.627522,125.386593 263.701957,125.386593 C259.771696,125.386593 256.592739,122.203506 256.592739,118.281531" id="Fill-12" fill="#01ADAB"></path>
        <path d="M112.944287,85.6951235 C112.944287,81.7708025 116.125591,78.587716 120.053504,78.587716 C123.983765,78.587716 127.16507,81.7708025 127.16507,85.6951235 C127.16507,89.6170988 123.983765,92.7978395 120.053504,92.7978395 C116.125591,92.7978395 112.944287,89.6170988 112.944287,85.6951235" id="Fill-14" fill="#01ADAB"></path>
        <path d="M38.0500435,200.806506 C38.0500435,196.882185 41.2360435,193.699099 45.1616087,193.699099 C49.0871739,193.699099 52.2731739,196.882185 52.2731739,200.806506 C52.2731739,204.726136 49.0871739,207.906877 45.1616087,207.906877 C41.2360435,207.906877 38.0500435,204.726136 38.0500435,200.806506" id="Fill-16" fill="#01ADAB"></path>
        <path d="M69.2413826,279.347815 C69.2413826,275.423494 72.422687,272.242753 76.3529478,272.242753 C80.2808609,272.242753 83.4621652,275.423494 83.4621652,279.347815 C83.4621652,283.272136 80.2808609,286.452877 76.3529478,286.452877 C72.422687,286.452877 69.2413826,283.272136 69.2413826,279.347815" id="Fill-18" fill="#01ADAB"></path>
        <path d="M250.085739,292.489481 C250.085739,288.56516 253.269391,285.382074 257.197304,285.382074 C261.12287,285.382074 264.30887,288.56516 264.30887,292.489481 C264.30887,296.409111 261.12287,299.592198 257.197304,299.592198 C253.269391,299.592198 250.085739,296.409111 250.085739,292.489481" id="Fill-20" fill="#01ADAB"></path>
        <path d="M285.071635,176.19963 C285.071635,172.277654 288.255287,169.094568 292.1832,169.094568 C296.111113,169.094568 299.294765,172.277654 299.294765,176.19963 C299.294765,180.121605 296.111113,183.302346 292.1832,183.302346 C288.255287,183.302346 285.071635,180.121605 285.071635,176.19963" id="Fill-22" fill="#01ADAB"></path>
        <path d="M197.314826,272.900481 C197.314826,268.97616 200.49613,265.793074 204.424043,265.793074 C208.349609,265.793074 211.535609,268.97616 211.535609,272.900481 C211.535609,276.820111 208.349609,280.000852 204.424043,280.000852 C200.49613,280.000852 197.314826,276.820111 197.314826,272.900481" id="Fill-24" fill="#01ADAB"></path>
        <path d="M228.7764,234.696173 C228.7764,230.774198 231.957704,227.593457 235.890313,227.593457 C239.815878,227.593457 242.997183,230.774198 242.997183,234.696173 C242.997183,238.618148 239.815878,241.801235 235.890313,241.801235 C231.957704,241.801235 228.7764,238.618148 228.7764,234.696173" id="Fill-26" fill="#FF4E00"></path>
        <path d="M188.283443,377.437778 C84.5001391,377.437778 0.0652695652,293.080123 0.0652695652,189.391728 C0.0652695652,186.121852 2.71831304,183.471235 5.99118261,183.471235 C9.26405217,183.471235 11.9170957,186.121852 11.9170957,189.391728 C11.9170957,286.552099 91.0341391,365.59679 188.283443,365.59679 C285.532748,365.59679 364.649791,286.552099 364.649791,189.391728 C364.649791,186.121852 367.305183,183.471235 370.578052,183.471235 C373.848574,183.471235 376.503965,186.121852 376.503965,189.391728 C376.503965,293.080123 292.066748,377.437778 188.283443,377.437778" id="Fill-28" fill="#01ADAB"></path>
        <g id="Group-32" transform="translate(2.347826, 0.783457)">
            <mask id="mask-4" fill="white">
                <use xlink:href="#path-3"></use>
            </mask>
            <g id="Clip-31"></g>
            <path d="M365.275957,161.814988 C362.467957,161.814988 359.972217,159.811778 359.453348,156.954741 C344.185435,73.1952346 271.210304,12.4022716 185.934913,12.4022716 C101.528217,12.4022716 28.6916087,72.4680741 12.7451739,155.225975 C12.1253478,158.43721 9.00978261,160.54363 5.805,159.919679 C2.59082609,159.302765 0.487173913,156.197086 1.107,152.988198 C18.1263913,64.664 95.8582174,0.561283951 185.934913,0.561283951 C276.941348,0.561283951 354.818739,65.4427654 371.112652,154.831901 C371.699609,158.050173 369.563087,161.132395 366.344217,161.718815 C365.987348,161.784494 365.62813,161.814988 365.275957,161.814988" id="Fill-30" fill="#01ADAB" mask="url(#mask-4)"></path>
        </g>
        <path d="M188.283443,357.985062 C95.2367478,357.985062 19.5357913,282.353333 19.5357913,189.389383 C19.5357913,96.4301235 95.2367478,20.7983951 188.283443,20.7983951 C191.556313,20.7983951 194.209357,23.4490123 194.209357,26.7188889 C194.209357,29.9887654 191.556313,32.6393827 188.283443,32.6393827 C101.770748,32.6393827 31.3876174,102.958148 31.3876174,189.389383 C31.3876174,275.825309 101.770748,346.144074 188.283443,346.144074 C274.796139,346.144074 345.176922,275.825309 345.176922,189.389383 C345.176922,115.29642 292.477617,50.7151852 219.868748,35.8295062 C216.661617,35.172716 214.59553,32.0435802 215.252922,28.8393827 C215.912661,25.6328395 219.049357,23.575679 222.251791,24.2301235 C300.345183,40.2393827 357.031096,109.69963 357.031096,189.389383 C357.031096,282.353333 281.330139,357.985062 188.283443,357.985062" id="Fill-33" fill="#01ADAB"></path>
        <path d="M67.2856435,272.037975 C65.3275565,272.037975 63.4140783,271.06921 62.2824261,269.298222 C52.2008609,253.478963 45.286513,236.16316 41.7319043,217.829333 C41.1097304,214.618099 43.2110348,211.51242 46.4228609,210.890815 C49.634687,210.266864 52.7455565,212.366247 53.3677304,215.577481 C56.6382522,232.445259 63.0008609,248.379457 72.2794696,262.936741 C74.0379913,265.695259 73.2232957,269.354519 70.4646,271.109086 C69.478513,271.737728 68.3750348,272.037975 67.2856435,272.037975" id="Fill-35" fill="#01ADAB"></path>
        <path d="M188.281096,338.531407 C148.793009,338.531407 111.535357,323.214123 83.3778783,295.401407 C81.0511826,293.102642 81.0277043,289.354247 83.3309217,287.029679 C85.636487,284.702765 89.3859652,284.686346 91.710313,286.98042 C117.635009,312.588198 151.932052,326.69042 188.281096,326.69042 C264.057183,326.69042 325.7064,265.09758 325.7064,189.39079 C325.7064,113.684 264.057183,52.0911605 188.281096,52.0911605 C114.308139,52.0911605 53.9971826,109.902765 50.9755304,183.704864 C50.8417043,186.974741 48.0853565,189.524494 44.812487,189.379062 C41.5419652,189.245358 38.9992696,186.489185 39.1330957,183.221654 C42.4153565,103.051037 107.926748,40.2501728 188.281096,40.2501728 C270.59353,40.2501728 337.560574,107.15363 337.560574,189.39079 C337.560574,271.627951 270.59353,338.531407 188.281096,338.531407" id="Fill-37" fill="#01ADAB"></path>
        <path d="M188.281096,319.077519 C116.707617,319.077519 58.4768348,260.902333 58.4768348,189.391963 C58.4768348,152.259864 74.5101391,116.821346 102.465704,92.1682593 C104.916835,90.0031975 108.666313,90.2401111 110.831009,92.689 C112.995704,95.1402346 112.76327,98.8815926 110.307443,101.044309 C84.9016174,123.45258 70.3310087,155.654062 70.3310087,189.391963 C70.3310087,254.371963 123.241617,307.236531 188.281096,307.236531 C206.685704,307.236531 224.322574,303.103444 240.701009,294.949864 C243.638139,293.490852 247.1904,294.682457 248.6484,297.609864 C250.108748,300.534926 248.916052,304.090975 245.988313,305.547642 C227.949965,314.526901 208.535791,319.077519 188.281096,319.077519" id="Fill-39" fill="#01ADAB"></path>
        <path d="M269.65933,288.555074 C268.008809,288.555074 266.36533,287.870136 265.193765,286.528407 C263.040809,284.065444 263.294374,280.324086 265.759591,278.175444 C291.484722,255.74137 306.236113,223.380383 306.236113,189.391494 C306.236113,124.411494 253.323157,71.5445802 188.28133,71.5445802 C170.881591,71.5445802 154.115765,75.2601358 138.453417,82.5856914 C135.492809,83.9743333 131.964026,82.6959383 130.574113,79.7356914 C129.186548,76.7730988 130.463765,73.2475432 133.42907,71.8612469 C150.6762,63.7944568 169.132461,59.7035926 188.28133,59.7035926 C259.857157,59.7035926 318.090287,117.881123 318.090287,189.391494 C318.090287,226.800383 301.857417,262.412481 273.554374,287.093716 C272.432113,288.07421 271.0422,288.555074 269.65933,288.555074" id="Fill-41" fill="#01ADAB"></path>
        <path d="M188.283443,299.628321 C127.444226,299.628321 77.9473565,250.176716 77.9473565,189.393136 C77.9473565,128.609556 127.444226,79.1602963 188.283443,79.1602963 C212.160835,79.1602963 234.897183,86.6852346 254.039009,100.923506 C256.663878,102.875111 257.208574,106.58363 255.252835,109.206099 C253.299443,111.830914 249.582835,112.372765 246.962661,110.418815 C229.882226,97.7146173 209.589965,91.001284 188.283443,91.001284 C133.978226,91.001284 89.8015304,135.13758 89.8015304,189.393136 C89.8015304,243.648691 133.978226,287.787333 188.283443,287.787333 C241.353704,287.787333 284.577183,246.311037 286.687878,193.359679 C286.819357,190.092148 289.582748,187.540049 292.846226,187.68079 C296.116748,187.812148 298.661791,190.56363 298.532661,193.83116 C296.163704,253.155728 247.737443,299.628321 188.283443,299.628321" id="Fill-43" fill="#01ADAB"></path>
        <path d="M288.352722,165.526086 C285.800635,165.526086 283.443417,163.865346 282.675678,161.296827 C279.870026,151.900037 275.662722,142.97942 270.171157,134.788309 C268.349243,132.069667 269.079417,128.391642 271.7982,126.573741 C274.516983,124.758185 278.198374,125.480654 280.020287,128.199296 C286.171591,137.377938 290.886026,147.375222 294.034461,157.909667 C294.968896,161.043494 293.186896,164.341519 290.0502,165.277444 C289.484374,165.443988 288.913852,165.526086 288.352722,165.526086" id="Fill-45" fill="#01ADAB"></path>
        <path d="M188.283443,280.172321 C138.180835,280.172321 97.4178783,239.448988 97.4178783,189.392198 C97.4178783,147.277877 127.263443,110.021457 168.378574,100.805284 C171.588052,100.092198 174.74353,102.097753 175.459617,105.285531 C176.175704,108.478 174.168313,111.644667 170.97527,112.360099 C135.220226,120.372938 109.272052,152.771457 109.272052,189.392198 C109.272052,232.918617 144.714835,268.331333 188.283443,268.331333 C191.556313,268.331333 194.209357,270.981951 194.209357,274.251827 C194.209357,277.521704 191.556313,280.172321 188.283443,280.172321" id="Fill-47" fill="#01ADAB"></path>
        <path d="M219.729052,274.147679 C217.37653,274.147679 215.150791,272.737926 214.2234,270.422741 C213.009574,267.387432 214.488704,263.94163 217.526791,262.726568 C247.7574,250.648667 267.293661,221.862494 267.293661,189.391259 C267.293661,150.441259 239.3874,117.667432 200.937052,111.463111 C197.706443,110.94237 195.511226,107.90237 196.030096,104.674716 C196.553661,101.447062 199.608183,99.2468148 202.827052,99.7745926 C247.050704,106.910148 279.147835,144.598173 279.147835,189.391259 C279.147835,226.734469 256.686183,259.834346 221.928965,273.723111 C221.205835,274.009284 220.461574,274.147679 219.729052,274.147679" id="Fill-49" fill="#01ADAB"></path>
        <path d="M188.281096,260.720778 C148.915096,260.720778 116.8884,228.72337 116.8884,189.391025 C116.8884,175.481148 120.903183,161.99584 128.496052,150.391765 C130.287443,147.654358 133.961791,146.889667 136.697009,148.677074 C139.436922,150.466827 140.204661,154.135469 138.415617,156.872877 C132.085878,166.544111 128.742574,177.789296 128.742574,189.391025 C128.742574,222.193 155.451443,248.87979 188.281096,248.87979 C199.597617,248.87979 210.608922,245.694358 220.122313,239.668309 C222.878661,237.920778 226.545965,238.734728 228.299791,241.500284 C230.05127,244.261148 229.231878,247.918062 226.468487,249.670284 C215.053357,256.899667 201.849183,260.720778 188.281096,260.720778" id="Fill-51" fill="#01ADAB"></path>
        <path d="M245.126426,227.773605 C244.126252,227.773605 243.114339,227.520272 242.1846,226.990148 C239.346078,225.364593 238.362339,221.74521 239.989383,218.909284 C245.114687,209.972247 247.82173,199.763852 247.82173,189.391259 C247.82173,156.59163 221.112861,129.90484 188.283209,129.90484 C178.520948,129.90484 168.836165,132.318543 160.275991,136.88558 C157.397557,138.424346 153.800687,137.335951 152.258165,134.450765 C150.717991,131.56558 151.807383,127.981383 154.695209,126.440272 C164.9646,120.960765 176.581643,118.063852 188.283209,118.063852 C227.649209,118.063852 259.675904,150.061259 259.675904,189.391259 C259.675904,201.825704 256.424165,214.067802 250.272861,224.794593 C249.178774,226.703975 247.180774,227.773605 245.126426,227.773605" id="Fill-53" fill="#01ADAB"></path>
    </g>
</svg>