<svg xmlns="http://www.w3.org/2000/svg" width="102" height="104" viewBox="0 0 102 104">
  <g fill="none" fill-rule="evenodd">
    <path fill="#FFBF2D" d="M73.5156416 40.9253698C72.3330475 42.1135063 70.4132257 42.1140137 69.2301267 40.9253698 68.0470277 39.7367259 68.0485426 37.808921 69.2316416 36.6207844 70.4137307 35.4326478 72.3315327 35.4321405 73.5146317 36.6207844 74.6977307 37.8094283 74.6982356 39.7372332 73.5156416 40.9253698M69.3128376 28.0935454C68.1302436 29.281682 66.2104218 29.2821893 65.0278277 28.0935454 63.8442238 26.9049015 63.8462436 24.9770966 65.0288376 23.78896 66.2109267 22.6008234 68.1287287 22.6003161 69.3118277 23.78896 70.4954317 24.9776039 70.4959366 26.9054088 69.3128376 28.0935454M80.4247277 30.6477346C79.2421337 31.8358712 77.3223119 31.8363785 76.1392129 30.6477346 74.9561139 29.4590907 74.9576287 27.5312859 76.1402228 26.3431493 77.3228168 25.1550127 79.2406188 25.1545054 80.4237178 26.3431493 81.6068168 27.5317932 81.6073218 29.459598 80.4247277 30.6477346M28.5247545 62.7308215C29.7073485 61.5426849 31.6271703 61.5421776 32.8102693 62.7308215 33.9933683 63.9194654 33.9918535 65.8477776 32.8092594 67.0354068 31.6266653 68.2235434 29.7088634 68.2240507 28.5257644 67.0354068 27.3426653 65.8472702 27.3421604 63.918958 28.5247545 62.7308215M32.7276089 75.5628995C33.910203 74.3747629 35.8300248 74.3742556 37.0131238 75.5628995 38.1962228 76.7515434 38.1947079 78.6793483 37.0121139 79.8669776 35.8295198 81.0556215 33.9117178 81.0561288 32.7286188 79.8669776 31.5455198 78.678841 31.5450149 76.7510361 32.7276089 75.5628995M21.6157188 73.0084566C22.7983129 71.82032 24.7181347 71.8198127 25.9012337 73.0084566 27.0843327 74.1971005 27.0828178 76.1249054 25.9002238 77.313042 24.7176297 78.5011785 22.7998277 78.5016859 21.6167287 77.313042 20.4336297 76.124398 20.4331248 74.1965932 21.6157188 73.0084566"/>
    <path fill="#FFBF2D" d="M32.6545931,102.985366 C32.5450188,102.985366 32.4354446,102.983337 32.3253653,102.980293 C25.4191574,102.771278 18.324603,99.945522 12.3485139,95.024039 C3.79313762,87.9763902 -0.885228713,77.852878 0.139315842,68.6039805 C0.355939604,66.652839 1.08357327,64.7864195 2.24495941,63.2071415 C3.07307822,62.0803902 4.65407822,61.8414439 5.77607822,62.6739512 C6.89757327,63.5064585 7.1349,65.094361 6.30678119,66.2211122 C5.67306832,67.0825366 5.27567228,68.100722 5.15801881,69.1650732 C4.32030594,76.7251122 8.30234554,85.1303415 15.5499,91.1004488 C20.6680782,95.3157463 26.6795139,97.7336195 32.4768505,97.9091512 C34.1386426,97.9690146 35.7681178,97.3105171 36.9441475,96.1289756 L95.099801,37.6885854 C96.0677911,36.7155512 96.6848406,35.4264585 96.8358208,34.0587317 C97.6745436,26.4981854 93.692504,18.0934634 86.4444446,12.1233561 C81.3272762,7.90805854 75.3148307,5.48967805 69.5159792,5.31414634 C67.8466129,5.2654439 66.2252168,5.91278049 65.0496921,7.09432195 L17.3571178,55.0210732 C16.3709495,56.0118634 14.7722762,56.0113561 13.7866129,55.0215805 C12.8004446,54.0312976 12.8004446,52.4246244 13.7861079,51.4343415 L61.4786822,3.50759024 C63.6348208,1.34083902 66.6241277,0.142556098 69.6679693,0.243004878 C76.5756921,0.452526829 83.6707515,3.27828293 89.6458307,8.20027317 C98.2017119,15.2474146 102.879573,25.3709268 101.855029,34.6203317 C101.576801,37.1274927 100.446217,39.4905756 98.6708109,41.2753171 L40.5151574,99.7162146 C38.4367812,101.804332 35.5878505,102.984859 32.6545931,102.985366" transform="translate(0 .27)"/>
    <path fill="#FFBF2D" d="M32.6595416,94.630361 C32.6342941,94.630361 32.6090465,94.6298537 32.583799,94.6293463 C27.6347792,94.4796878 22.2429178,92.291122 17.7912743,88.6237268 C11.4586901,83.408 7.96392772,76.2056195 8.67136337,69.8276293 C8.73448218,69.2553756 8.98998713,68.7226927 9.39495743,68.3153171 L67.549096,9.87594146 C68.0409178,9.38181463 68.7074525,9.11445854 69.4103436,9.1342439 C74.3593634,9.28339512 79.7512248,11.471961 84.2033733,15.1393561 C89.9552644,19.8776976 93.3970069,26.2906927 93.4111455,32.2937756 C93.4136703,33.694478 92.2861158,34.8328976 90.8919475,34.8359415 L90.8863931,34.8359415 C89.4942446,34.8364488 88.3641653,33.7041171 88.3616406,32.3049366 C88.3515416,27.8679415 85.5313931,22.7937561 81.0019871,19.0619317 C77.7203139,16.3594537 73.8811752,14.6497951 70.3101653,14.2764098 L13.6335119,71.2308683 C13.5289871,75.6759805 16.3415614,80.8693854 20.9926604,84.7011512 C24.2743337,87.4041366 28.1134723,89.1132878 31.6834723,89.4866732 L78.412096,42.5294049 C79.3987693,41.5386146 80.9969376,41.5386146 81.9831059,42.5294049 C82.9692743,43.5196878 82.9692743,45.1258537 81.9836109,46.1166439 L34.4450465,93.8871415 C33.970898,94.3640195 33.328096,94.630361 32.6595416,94.630361"/>
    <path fill="#FFBF2D" d="M40.0962505,54.3992546 L48.4410624,62.7628839 L61.8151812,49.279918 L53.4693594,40.9162888 L40.0962505,54.3992546 Z M48.4456069,68.6771863 C47.6376861,68.6771863 46.8782406,68.3616351 46.3066366,67.7898888 L35.1007752,56.5589034 C33.920201,55.3722888 33.9176762,53.4434693 35.093201,52.2563473 L51.3192802,35.8968937 C51.8934089,35.3195668 52.6548743,35.0024937 53.4658248,35.0024937 C54.2742505,35.0024937 55.0347059,35.3180449 55.6063099,35.8918205 L66.8101515,47.1202693 C67.9922406,48.3094205 67.9932505,50.2392546 66.8157059,51.425362 L50.5911416,67.782279 C50.0205475,68.3590985 49.2580723,68.6771863 48.4456069,68.6771863 L48.4456069,68.6771863 Z"/>
    <path fill="#F06A2C" d="M82.8626792 38.6261073C82.8626792 36.9458732 84.2199861 35.5816976 85.8928871 35.5816976 87.5657881 35.5816976 88.9220851 36.9458732 88.9220851 38.6261073 88.9220851 40.3063415 87.5657881 41.6695024 85.8928871 41.6695024 84.2199861 41.6695024 82.8626792 40.3063415 82.8626792 38.6261073M6.84763366 59.195481C6.84763366 57.5147395 8.20494059 56.1510712 9.87784158 56.1510712 11.5512475 56.1510712 12.9070396 57.5147395 12.9070396 59.195481 12.9070396 60.8757151 11.5512475 62.2388761 9.87784158 62.2388761 8.20494059 62.2388761 6.84763366 60.8757151 6.84763366 59.195481"/>
  </g>
</svg>
