<?xml version="1.0" encoding="utf-8"?>
<!-- Generator: Adobe Illustrator 16.0.0, SVG Export Plug-In . SVG Version: 6.00 Build 0)  -->
<!DOCTYPE svg PUBLIC "-//W3C//DTD SVG 1.1//EN" "http://www.w3.org/Graphics/SVG/1.1/DTD/svg11.dtd">
<svg width="22px" height="23px" viewBox="123 11 22 23" version="1.1" xmlns="http://www.w3.org/2000/svg" xmlns:xlink="http://www.w3.org/1999/xlink">
   <!-- Generator: Sketch 40.1 (33804) - http://www.bohemiancoding.com/sketch -->
   <desc>Created with Sketch.</desc>
   <defs></defs>
   <g id="Group-48" stroke="none" stroke-width="1" fill="none" fill-rule="evenodd" transform="translate(124.000000, 12.000000)" stroke-linecap="round" stroke-linejoin="round">
       <path d="M4.34782609,17 L1.73913043,17 C0.782608696,17 0,16.1 0,15 L0,9 C0,7.9 0.782608696,7 1.73913043,7 L18.2608696,7 C19.2182609,7 20,7.9 20,9 L20,15 C20,16.1 19.2182609,17 18.2608696,17 L15.6521739,17" id="Stroke-2383" stroke="#FF4E00 " stroke-width="2"></path>
       <polyline id="Stroke-2384" stroke="#FF4E00 " stroke-width="2" points="5 4 5 0 12.6923077 0 15 2.4 15 4"></polyline>
       <polygon id="Stroke-2385" stroke="#FF4E00 " stroke-width="2" points="5 21 15 21 15 15 5 15"></polygon>
       <path d="M5,11 C5,11.552 4.553,12 4,12 C3.448,12 3,11.552 3,11 C3,10.447 3.448,10 4,10 C4.553,10 5,10.447 5,11 L5,11 Z" id="Stroke-2386" stroke="#FF4E00 " stroke-width="2"></path>
   </g>
</svg>
