<?xml version="1.0" encoding="utf-8"?>
<!-- Generator: Adobe Illustrator 16.2.1, SVG Export Plug-In . SVG Version: 6.00 Build 0)  -->
<!DOCTYPE svg PUBLIC "-//W3C//DTD SVG 1.1//EN" "http://www.w3.org/Graphics/SVG/1.1/DTD/svg11.dtd">
<svg version="1.1" id="Layer_1" xmlns="http://www.w3.org/2000/svg" xmlns:xlink="http://www.w3.org/1999/xlink" x="0px" y="0px"
	 width="45px" height="45px" viewBox="0 0 45 45" enable-background="new 0 0 45 45" xml:space="preserve">
<circle fill="#FF4E00" cx="28.476" cy="16.614" r="1.735"/>
<circle fill="#FF4E00" cx="10.826" cy="34.504" r="1.734"/>
<g>
	<g>
		<path fill="#00ADBB" d="M28.447,13.395c0.797,0,1.442-0.647,1.442-1.447V7.845c0-1.536-1.248-2.786-2.784-2.786h-9.211
			c-1.536,0-2.786,1.25-2.786,2.786v7.263H7.846c-1.535,0-2.784,1.249-2.784,2.785v9.212c0,1.535,1.249,2.785,2.784,2.785h7.263
			v7.264c0,1.535,1.25,2.785,2.786,2.785h9.211c1.536,0,2.784-1.25,2.784-2.785v-7.264h7.266c1.535,0,2.785-1.25,2.785-2.785v-9.212
			c0-1.536-1.25-2.785-2.785-2.785h-4.039c-0.797,0-1.446,0.648-1.446,1.445c0,0.799,0.649,1.447,1.446,1.447h3.932v8.998h-8.601
			c-0.799,0-1.448,0.648-1.448,1.447v8.604H18v-8.604c0-0.799-0.646-1.447-1.447-1.447H7.952V18h8.601
			C17.354,18,18,17.352,18,16.553V7.951h8.999v3.997C26.999,12.748,27.648,13.395,28.447,13.395z M37.155,10.047h-2.204V7.845
			c0-4.326-3.52-7.846-7.846-7.846h-9.211c-4.326,0-7.848,3.52-7.848,7.846v2.202H7.846C3.52,10.047,0,13.567,0,17.893v9.212
			c0,3.646,2.478,6.783,6.023,7.631c0.775,0.186,1.556-0.293,1.742-1.07c0.186-0.775-0.294-1.557-1.071-1.742
			c-2.238-0.533-3.803-2.516-3.803-4.818v-9.212c0-2.731,2.224-4.955,4.954-4.955h3.649c0.797,0,1.443-0.646,1.443-1.445V7.845
			c0-2.732,2.224-4.955,4.956-4.955h9.211c2.732,0,4.953,2.223,4.953,4.955v3.648c0,0.799,0.648,1.445,1.448,1.445h3.648
			c2.731,0,4.952,2.224,4.952,4.955v9.212c0,2.73-2.221,4.953-4.952,4.953h-3.648c-0.8,0-1.448,0.648-1.448,1.445v3.65
			c0,2.73-2.221,4.953-4.953,4.953h-9.211c-2.174,0-4.127-1.455-4.748-3.539c-0.229-0.766-1.034-1.199-1.801-0.971
			c-0.764,0.229-1.198,1.033-0.973,1.799C11.361,42.695,14.452,45,17.895,45h9.211c4.326,0,7.846-3.521,7.846-7.846v-2.203h2.204
			c4.325,0,7.845-3.521,7.845-7.846v-9.212C45,13.567,41.48,10.047,37.155,10.047z"/>
	</g>
</g>
</svg>
