<?xml version="1.0" encoding="utf-8"?>
<!-- Generator: Adobe Illustrator 16.0.0, SVG Export Plug-In . SVG Version: 6.00 Build 0)  -->
<!DOCTYPE svg PUBLIC "-//W3C//DTD SVG 1.1//EN" "http://www.w3.org/Graphics/SVG/1.1/DTD/svg11.dtd">
<svg version="1.1" id="Layer_1" xmlns="http://www.w3.org/2000/svg" xmlns:xlink="http://www.w3.org/1999/xlink" x="0px" y="0px"
	 width="16px" height="16px" viewBox="0 0 16 16" enable-background="new 0 0 16 16" xml:space="preserve">
<path id="_x3C_Comments_x3E__1_" fill="#FF4E00" d="M14.834,0.488H1.166C0.523,0.488,0,1.011,0,1.653v6.878v1.604
	c0,0.646,0.523,1.171,1.166,1.171h1.438h2.677h1.047c1.181,1.345,2.908,3.569,3.044,3.751c0.219,0.285,0.565,0.455,0.927,0.455
	c0.156,0,0.282-0.036,0.374-0.062c0.476-0.159,0.796-0.603,0.796-1.104v-3.04h3.365c0.643,0,1.166-0.525,1.166-1.171V8.531V1.653
	C16,1.011,15.477,0.488,14.834,0.488z M14.5,9.806h-3.781c-0.414,0-0.75,0.336-0.75,0.75v2.823
	c-0.726-0.922-1.924-2.414-2.748-3.326C7.078,9.896,6.876,9.806,6.664,9.806H5.281H2.604H1.5V8.531V1.988h13v6.543V9.806z"/>
</svg>
