<?xml version="1.0" encoding="utf-8"?>
<!-- Generator: Adobe Illustrator 16.2.1, SVG Export Plug-In . SVG Version: 6.00 Build 0)  -->
<!DOCTYPE svg PUBLIC "-//W3C//DTD SVG 1.1//EN" "http://www.w3.org/Graphics/SVG/1.1/DTD/svg11.dtd">
<svg version="1.1" id="Layer_1" xmlns="http://www.w3.org/2000/svg" xmlns:xlink="http://www.w3.org/1999/xlink" x="0px" y="0px"
	 width="25px" height="25px" viewBox="0 0 25 25" enable-background="new 0 0 25 25" xml:space="preserve">
<path fill="#0077B5" d="M23.149,0H1.844C0.827,0,0,0.807,0,1.803v21.394C0,24.191,0.827,25,1.844,25h21.306
	c1.02,0,1.85-0.809,1.85-1.804V1.803C24.999,0.807,24.169,0,23.149,0z M3.704,9.372h3.711v11.931H3.704V9.372z M5.561,3.442
	c1.186,0,2.149,0.963,2.149,2.15c0,1.187-0.963,2.15-2.149,2.15c-1.191,0-2.151-0.963-2.151-2.15C3.41,4.405,4.37,3.442,5.561,3.442
	 M9.742,9.372h3.554v1.631h0.051c0.494-0.938,1.704-1.927,3.509-1.927c3.754,0,4.447,2.47,4.447,5.684v6.543h-3.707v-5.802
	c0-1.384-0.023-3.164-1.927-3.164c-1.93,0-2.224,1.508-2.224,3.065v5.9H9.742V9.372z"/>
</svg>
