<?xml version="1.0" encoding="utf-8"?>
<!-- Generator: Adobe Illustrator 16.2.1, SVG Export Plug-In . SVG Version: 6.00 Build 0)  -->
<!DOCTYPE svg PUBLIC "-//W3C//DTD SVG 1.1//EN" "http://www.w3.org/Graphics/SVG/1.1/DTD/svg11.dtd">
<svg version="1.1" id="Layer_1" xmlns="http://www.w3.org/2000/svg" xmlns:xlink="http://www.w3.org/1999/xlink" x="0px" y="0px"
	 width="200px" height="165px" viewBox="0 0 200 165" enable-background="new 0 0 200 165" xml:space="preserve">
<g id="_x3C_DOTS_x3E_">
	<circle fill="#FF4E00" cx="149.5" cy="148.5" r="13.5"/>
	<circle fill="#FF4E00" cx="182.5" cy="148.5" r="13.5"/>
</g>
<g id="_x3C_NUMBER_x3E_">
	<g>
		<path fill="#FFFFFF" d="M32.48,141.381h76.59l-2.99,18.631H10.17v-25.99c0-6.592,0.496-12.726,1.495-18.399
			c0.996-5.67,2.875-10.847,5.635-15.522c2.76-4.677,6.555-8.933,11.385-12.767c4.83-3.831,11.076-7.36,18.745-10.58l15.87-6.67
			c4.751-1.84,8.585-3.716,11.5-5.635c2.911-1.916,5.175-3.946,6.785-6.095c1.61-2.146,2.681-4.445,3.22-6.9
			c0.535-2.451,0.805-5.135,0.805-8.05c0-8.74-2.724-14.911-8.165-18.515C72,21.285,63.911,19.481,53.18,19.481
			c-7.055,0-14.454,0.805-22.195,2.415c-7.745,1.61-15.065,3.72-21.965,6.325l2.99-19.09c2.451-1.071,5.326-2.106,8.625-3.105
			c3.296-0.996,6.861-1.916,10.695-2.76c3.831-0.841,7.78-1.531,11.845-2.07C47.236,0.66,51.34,0.391,55.48,0.391
			c7.82,0,14.986,0.805,21.505,2.415C83.5,4.416,89.06,6.87,93.66,10.166c4.6,3.299,8.165,7.475,10.695,12.535
			c2.527,5.06,3.795,10.964,3.795,17.71v2.07c0,5.674-0.615,10.695-1.84,15.065c-1.229,4.37-3.146,8.28-5.75,11.73
			c-2.609,3.45-6.061,6.519-10.352,9.2c-4.294,2.685-9.43,5.254-15.41,7.706l-19.09,7.819c-4.909,1.994-8.855,4.181-11.845,6.556
			c-2.99,2.379-5.33,5.101-7.015,8.164c-1.689,3.069-2.839,6.521-3.45,10.353c-0.614,3.834-0.92,8.129-0.92,12.879L32.48,141.381
			L32.48,141.381z"/>
	</g>
</g>
</svg>
