<svg xmlns="http://www.w3.org/2000/svg" width="103" height="88" viewBox="0 0 103 88" xmlns:xlink="http://www.w3.org/1999/xlink">
  <defs>
    <polygon id="a" points="51.5 0 0 0 0 87.367 103 87.367 103 0 51.5 0"/>
  </defs>
  <g fill="none" fill-rule="evenodd">
    <path fill="#F16121" d="M11.4078222,80.4028777 C9.30077284,80.4028777 7.59300741,82.1046331 7.59300741,84.2014388 C7.59300741,86.2995108 9.30077284,88 11.4078222,88 C13.5148716,88 15.222637,86.2995108 15.222637,84.2014388 C15.222637,82.1046331 13.5148716,80.4028777 11.4078222,80.4028777 M91.4788778,15.4816691 C91.4788778,17.5791079 89.7711123,19.2802302 87.664063,19.2802302 C85.5563778,19.2802302 83.8492481,17.5791079 83.8492481,15.4816691 C83.8492481,13.3835971 85.5563778,11.6831079 87.664063,11.6831079 C89.7711123,11.6831079 91.4788778,13.3835971 91.4788778,15.4816691"/>
    <mask id="b" fill="white">
      <use xlink:href="#a"/>
    </mask>
    <path fill="#FDBC11" d="M31.6296469,43.0503597 C33.3863691,43.0503597 34.9688815,41.6322302 34.9688815,39.8836259 L34.9688815,32.9208633 C34.9688815,26.8121439 39.801616,22.1582734 45.9364741,22.1582734 L60.240758,22.1582734 C61.9974802,22.1582734 63.5799926,20.4235971 63.5799926,18.6749928 L63.5799926,17.4100719 C63.5799926,11.3013525 68.4127272,6.33093525 74.5475852,6.33093525 L85.6741284,6.33093525 C91.8096222,6.33093525 96.641721,11.3013525 96.641721,17.4100719 L96.641721,69.9568345 C96.641721,76.0661871 91.8096222,81.0359712 85.6741284,81.0359712 L21.5896901,81.0359712 C19.8342395,81.0359712 18.4106778,82.4528345 18.4106778,84.2014388 C18.4106778,85.9500432 19.8342395,87.3669065 21.5896901,87.3669065 L85.6741284,87.3669065 C95.315437,87.3669065 102.999746,79.5570647 102.999746,69.9568345 L102.999746,17.4100719 C102.999746,7.80984173 95.315437,0 85.6741284,0 L74.5475852,0 C65.5509802,0 58.1203568,6.96402878 57.1666531,15.8273381 L45.9364741,15.8273381 C36.2958012,15.8273381 28.6108568,23.3206331 28.6108568,32.9208633 L28.6108568,36.7194245 L17.325363,36.7194245 C7.68469012,36.7194245 -0.000254320978,44.5298993 -0.000254320978,54.1294964 L-0.000254320978,69.9568345 C-0.000254320978,72.7462446 0.603122222,75.5248921 1.89507284,77.9926906 C2.70635679,79.5437698 4.58578889,80.1445755 6.14414074,79.3367482 C7.70058519,78.5282878 8.36436296,76.6169784 7.55307901,75.0671655 C6.72081358,73.4762014 6.35777037,71.7573525 6.35777037,69.9568345 L6.35777037,54.1294964 C6.35777037,48.0214101 11.1905049,43.0503597 17.325363,43.0503597 L31.6296469,43.0503597 Z M77.7170605,17.7266187 C79.4731469,17.7266187 80.8960728,16.3091223 80.8960728,14.5611511 C80.8960728,12.8131799 79.4731469,11.3956835 77.7170605,11.3956835 L75.1833877,11.3956835 C71.3272457,11.3956835 68.0306099,14.2034532 68.0306099,18.0431655 L68.0306099,69.323741 C68.0306099,73.1640863 71.3272457,76.6043165 75.1833877,76.6043165 L85.0383259,76.6043165 C88.8951037,76.6043165 92.1911037,73.1640863 92.1911037,69.323741 L92.1911037,25.5421583 C92.1911037,23.793554 90.7681778,22.3766906 89.0120914,22.3766906 C87.2566407,22.3766906 85.833079,23.793554 85.833079,25.5421583 L85.833079,70.2733813 L74.3886346,70.2733813 L74.3886346,17.7266187 L77.7170605,17.7266187 Z M45.7775235,70.2733813 L57.2219679,70.2733813 L57.2219679,32.9208633 L45.7775235,32.9208633 L45.7775235,70.2733813 Z M63.5799926,69.6402878 C63.5799926,73.4863309 60.4493012,76.6043165 56.5861654,76.6043165 L46.4133259,76.6043165 C42.5508259,76.6043165 39.4194988,73.4863309 39.4194988,69.6402878 L39.4194988,33.5539568 C39.4194988,29.7079137 42.5508259,26.5899281 46.4133259,26.5899281 L56.5861654,26.5899281 C60.4493012,26.5899281 63.5799926,29.7079137 63.5799926,33.5539568 L63.5799926,69.6402878 Z M17.1664123,70.2733813 L28.6108568,70.2733813 L28.6108568,54.4460432 L17.1664123,54.4460432 L17.1664123,70.2733813 Z M27.8161037,76.6043165 L17.9611654,76.6043165 C14.1050235,76.6043165 10.8083877,73.1640863 10.8083877,69.323741 L10.8083877,54.7625899 C10.8083877,50.9235108 14.1050235,48.1151079 17.9611654,48.1151079 L27.8161037,48.1151079 C31.6728815,48.1151079 34.9688815,50.9235108 34.9688815,54.7625899 L34.9688815,69.323741 C34.9688815,73.1640863 31.6728815,76.6043165 27.8161037,76.6043165 L27.8161037,76.6043165 Z" mask="url(#b)"/>
  </g>
</svg>
