<?xml version="1.0" encoding="utf-8"?>
<!-- Generator: Adobe Illustrator 16.0.0, SVG Export Plug-In . SVG Version: 6.00 Build 0)  -->
<!DOCTYPE svg PUBLIC "-//W3C//DTD SVG 1.1//EN" "http://www.w3.org/Graphics/SVG/1.1/DTD/svg11.dtd">
<svg version="1.1" id="Layer_1" xmlns="http://www.w3.org/2000/svg" xmlns:xlink="http://www.w3.org/1999/xlink" x="0px" y="0px"
	 width="16px" height="16px" viewBox="0 0 16 16" enable-background="new 0 0 16 16" xml:space="preserve">
<path id="_x3C_Download_x3E_" fill="#FF4E00" d="M3.021,7.465C2.826,7.27,2.729,7.014,2.729,6.758s0.098-0.512,0.293-0.707
	c0.391-0.391,1.023-0.391,1.414,0l2.562,2.562V1c0-0.553,0.447-1,1-1S9,0.448,9,1v7.615l2.564-2.564
	c0.391-0.391,1.023-0.391,1.414,0s0.391,1.023,0,1.414l-4.244,4.242C8.535,11.906,8.273,12,8.014,11.996
	C8.008,11.996,8.004,12,7.998,12c-0.004,0-0.008-0.004-0.014-0.004c-0.26,0.004-0.521-0.09-0.721-0.289L3.021,7.465z M12.613,14
	H3.389c-0.639,0-1.154,0.447-1.154,1s0.516,1,1.154,1h9.225c0.637,0,1.152-0.447,1.152-1S13.25,14,12.613,14z"/>
</svg>
