<?xml version="1.0" encoding="utf-8"?>
<!-- Generator: Adobe Illustrator 16.2.1, SVG Export Plug-In . SVG Version: 6.00 Build 0)  -->
<!DOCTYPE svg PUBLIC "-//W3C//DTD SVG 1.1//EN" "http://www.w3.org/Graphics/SVG/1.1/DTD/svg11.dtd">
<svg version="1.1" id="Layer_1" xmlns="http://www.w3.org/2000/svg" xmlns:xlink="http://www.w3.org/1999/xlink" x="0px" y="0px"
	 width="200px" height="140px" viewBox="0 0 200 140" enable-background="new 0 0 200 140" xml:space="preserve">
<path fill="#FF4E00" d="M135.376,67.033c-2.237-2.294-5.91-2.34-8.208-0.105c-2.299,2.238-2.343,5.914-0.109,8.208
	c2.241,2.304,5.914,2.347,8.213,0.113C137.568,73.006,137.617,69.331,135.376,67.033z"/>
<path fill="#FF4E00" d="M139.799,15.985c-2.232-2.294-5.915-2.347-8.209-0.105c-2.298,2.233-2.35,5.91-0.107,8.208
	c2.236,2.294,5.914,2.347,8.211,0.105C141.991,21.96,142.038,18.279,139.799,15.985z"/>
<path fill="#FFBF2D" d="M108.684,123.062c4.051,0,7.865-1.551,10.756-4.361c6.092-5.936,6.224-15.721,0.287-21.811
	c-2.924-3-6.847-4.648-11.056-4.648c-4.048,0-7.866,1.552-10.756,4.361c-2.942,2.867-4.596,6.717-4.648,10.85
	c-0.055,4.126,1.497,8.02,4.361,10.966C100.552,121.414,104.475,123.062,108.684,123.062z M104.672,103.538
	c1.068-1.044,2.487-1.616,3.999-1.616c1.58,0,3.035,0.613,4.124,1.723c2.209,2.27,2.161,5.914-0.104,8.127
	c-1.08,1.041-2.492,1.617-4.008,1.617l0,0c-1.576,0-3.041-0.613-4.121-1.723c-1.063-1.098-1.639-2.54-1.615-4.09
	C102.962,106.034,103.575,104.6,104.672,103.538z M173.718,11.232c-3.036-2.29-6.647-3.501-10.442-3.501
	c-5.512,0-10.575,2.526-13.894,6.92c-2.741,3.636-3.921,8.111-3.351,12.626L91.751,45.96L85.17,29.317
	c0.621-0.456,1.235-0.945,1.806-1.496c1.969-1.923,3.383-4.261,4.174-6.83l28.42,2.331c0.134,0.006,0.269,0.012,0.4,0.012
	c2.49,0,4.612-1.913,4.812-4.442c0.226-2.661-1.764-4.998-4.428-5.217l-29.263-2.391c-0.753-2.371-2.037-4.556-3.821-6.388
	C84.198,1.738,80.067,0,75.658,0c-4.246,0-8.265,1.629-11.308,4.602c-6.41,6.235-6.54,16.515-0.301,22.921
	c3.076,3.157,7.203,4.9,11.609,4.9l0,0c0.108,0,0.211-0.014,0.321-0.014l6.609,16.699l-24.074,8.285
	c-0.101,0.036-0.186,0.088-0.286,0.135c-0.846-1.439-1.845-2.796-3.044-4.025c-3.962-4.066-9.272-6.31-14.949-6.31
	c-5.479,0-10.652,2.104-14.57,5.922c-8.247,8.039-8.422,21.283-0.384,29.527c3.966,4.063,9.271,6.306,14.954,6.306l0,0
	c5.475,0,10.647-2.104,14.566-5.923c3.994-3.891,6.239-9.104,6.306-14.683c0.008-0.553-0.022-1.097-0.056-1.641
	c0.205-0.044,0.41-0.089,0.614-0.153l24.489-8.434l8.142,20.553c-2.983,1.479-5.75,3.428-8.197,5.811
	c-6.183,6.021-9.646,14.103-9.758,22.756c-0.112,8.648,3.136,16.818,9.161,23.002c6.135,6.293,14.366,9.765,23.18,9.765
	c0.004,0,0.004,0,0.004,0c8.489,0,16.5-3.254,22.576-9.168c12.775-12.449,13.043-32.978,0.598-45.758
	c-6.137-6.298-14.369-9.769-23.183-9.769c-1.743,0-3.454,0.146-5.147,0.418l-8.21-20.76l54.25-18.674l-13.199,19.567
	c-1.493,2.221-0.909,5.229,1.309,6.721c0.83,0.556,1.766,0.83,2.703,0.83c1.551,0,3.08-0.75,4.012-2.135l13.289-19.704
	c1.774,0.605,3.657,0.919,5.582,0.919c5.51,0,10.577-2.524,13.881-6.922C182.91,27.915,181.376,16.997,173.718,11.232z
	 M71.102,11.53c1.226-1.193,2.846-1.854,4.556-1.854c1.776,0,3.444,0.702,4.681,1.976c1.223,1.25,1.882,2.902,1.853,4.644
	c-0.019,1.746-0.72,3.375-1.971,4.596c-1.229,1.193-2.849,1.853-4.562,1.853c-1.78,0-3.438-0.7-4.679-1.974
	C68.465,18.19,68.518,14.044,71.102,11.53z M48.048,76.092c-2.101,2.053-4.878,3.178-7.813,3.178c-3.047,0-5.892-1.197-8.027-3.381
	c-4.309-4.425-4.215-11.533,0.21-15.835c2.1-2.054,4.878-3.181,7.817-3.181c3.043,0,5.892,1.208,8.023,3.389
	c2.085,2.139,3.213,4.969,3.173,7.958C51.393,71.209,50.188,74.003,48.048,76.092z M124.922,91.829
	c8.729,8.952,8.535,23.345-0.419,32.071c-4.254,4.138-9.864,6.424-15.819,6.424l0,0c-6.186,0-11.953-2.436-16.25-6.846
	c-4.22-4.326-6.495-10.056-6.417-16.119c0.075-6.07,2.504-11.73,6.839-15.947c4.246-4.148,9.872-6.43,15.821-6.43
	C114.857,84.982,120.626,87.42,124.922,91.829z M169.42,29.741c-1.473,1.954-3.717,3.072-6.16,3.072
	c-1.683,0-3.279-0.538-4.63-1.561c-1.642-1.229-2.707-3.034-2.995-5.071c-0.281-2.032,0.243-4.068,1.483-5.709
	c1.463-1.947,3.705-3.064,6.155-3.064c1.682,0,3.277,0.536,4.623,1.548C171.289,21.517,171.966,26.354,169.42,29.741z"/>
</svg>
