<?xml version="1.0" encoding="utf-8"?>
<!-- Generator: Adobe Illustrator 16.2.1, SVG Export Plug-In . SVG Version: 6.00 Build 0)  -->
<!DOCTYPE svg PUBLIC "-//W3C//DTD SVG 1.1//EN" "http://www.w3.org/Graphics/SVG/1.1/DTD/svg11.dtd">
<svg version="1.1" id="Layer_3" xmlns="http://www.w3.org/2000/svg" xmlns:xlink="http://www.w3.org/1999/xlink" x="0px" y="0px"
	 width="230px" height="140px" viewBox="0 0 230 140" enable-background="new 0 0 230 140" xml:space="preserve">
<path fill="#FF4E00" d="M36.012,112.788c0-4.206,3.412-7.628,7.628-7.628c4.208,0,7.631,3.422,7.631,7.628
	c0,4.218-3.423,7.635-7.631,7.635C39.423,120.423,36.012,117.006,36.012,112.788z"/>
<g>
	<path fill="#FFBF2D" d="M225.107,55.858C198.897,20.558,158.938,0.31,115.462,0.31c-43.484,0-83.445,20.248-109.647,55.549
		c-6.52,8.78-6.52,20.122,0,28.905c5.373,7.247,11.433,13.97,17.996,19.988c2.617,2.39,6.681,2.215,9.063-0.402
		c2.404-2.612,2.227-6.67-0.387-9.064c-5.97-5.462-11.476-11.581-16.371-18.166c-3.118-4.201-3.118-9.418,0-13.611
		c12.471-16.792,28.377-29.826,46.362-38.424C52.063,37.271,45.746,53.064,45.746,70.316c0,37.774,30.215,68.611,67.739,69.66
		c0.626,0.196,1.282,0.334,1.977,0.334c43.47,0,83.436-20.242,109.646-55.546C231.618,75.98,231.618,64.638,225.107,55.858z
		 M58,70.316c0-29.076,21.715-53.151,49.769-56.929c2.551-0.156,5.109-0.236,7.693-0.236c2.575,0,5.136,0.08,7.679,0.236
		c28.057,3.773,49.771,27.853,49.771,56.929c0,29.07-21.715,53.147-49.771,56.924c-2.543,0.148-5.104,0.238-7.679,0.238
		c-0.586,0-1.14,0.096-1.673,0.244C82.877,126.833,58,101.431,58,70.316z M214.796,77.114
		c-12.468,16.791-28.369,29.825-46.354,38.424c10.415-12.185,16.725-27.978,16.725-45.222c0-17.252-6.31-33.045-16.725-45.231
		c17.985,8.598,33.887,21.631,46.354,38.428C217.916,67.701,217.916,72.918,214.796,77.114z"/>
	<path fill="#FFBF2D" d="M115.462,117.769c26.162,0,47.448-21.292,47.448-47.453c0-3.388-2.733-6.128-6.129-6.128
		c-3.38,0-6.124,2.74-6.124,6.128c0,19.409-15.79,35.199-35.195,35.199c-19.415,0-35.203-15.79-35.203-35.199
		c0-19.411,15.789-35.203,35.203-35.203c7.033,0,13.83,2.08,19.657,6.018c2.808,1.894,6.616,1.16,8.513-1.644
		c1.892-2.804,1.15-6.617-1.642-8.511c-7.862-5.315-17.032-8.125-26.528-8.125c-26.174,0-47.463,21.29-47.463,47.464
		C67.999,96.477,89.288,117.769,115.462,117.769z"/>
</g>
<path fill="#FF4E00" d="M144.268,50.954c0-4.205,3.417-7.625,7.629-7.625c4.223,0,7.64,3.419,7.64,7.625
	c0,4.218-3.417,7.635-7.64,7.635C147.685,58.589,144.268,55.172,144.268,50.954z"/>
</svg>
