<?xml version="1.0" encoding="utf-8"?>
<!-- Generator: Adobe Illustrator 16.2.1, SVG Export Plug-In . SVG Version: 6.00 Build 0)  -->
<!DOCTYPE svg PUBLIC "-//W3C//DTD SVG 1.1//EN" "http://www.w3.org/Graphics/SVG/1.1/DTD/svg11.dtd">
<svg version="1.1" id="Layer_1" xmlns="http://www.w3.org/2000/svg" xmlns:xlink="http://www.w3.org/1999/xlink" x="0px" y="0px"
	 width="200px" height="165px" viewBox="0 0 200 165" enable-background="new 0 0 200 165" xml:space="preserve">
<g id="_x3C_DOTS_x3E_">
	<circle fill="#FF4E00" cx="149.5" cy="148.5" r="13.5"/>
	<circle fill="#FF4E00" cx="182.5" cy="148.5" r="13.5"/>
</g>
<g id="_x3C_NUMBER_x3E_">
	<g>
		<path fill="#FFFFFF" d="M27.42,86.641l3.22-17.938h26.22c5.211,0,9.505-0.65,12.88-1.955c3.371-1.301,6.016-3.105,7.935-5.405
			c1.916-2.3,3.256-4.906,4.025-7.82c0.765-2.911,1.15-5.98,1.15-9.2c0-16.56-10.965-24.84-32.89-24.84
			c-6.595,0-13.455,0.654-20.585,1.955c-7.13,1.305-14.299,3.26-21.505,5.865l2.99-18.86c5.366-2.146,11.651-4.025,18.86-5.635
			c7.205-1.61,14.565-2.415,22.08-2.415c17.631,0,30.935,3.644,39.905,10.925c8.97,7.284,13.455,17.135,13.455,29.555v2.76
			c0,16.254-7.285,27.37-21.85,33.35c8.431,3.069,14.49,8.014,18.17,14.833c3.68,6.824,5.52,14.529,5.52,23.115v2.76
			c0,6.44-1.15,12.42-3.45,17.94s-5.829,10.235-10.58,14.146c-4.755,3.91-10.735,6.979-17.94,9.199
			c-7.209,2.221-15.719,3.336-25.53,3.336c-7.82,0-15.985-0.729-24.495-2.186c-8.51-1.455-15.679-3.41-21.505-5.865l3.91-17.71
			c6.44,2.3,13.11,4.024,20.01,5.175c6.9,1.151,13.721,1.727,20.47,1.727c12.111,0,21.275-2.223,27.485-6.672
			c6.21-4.443,9.315-11.729,9.315-21.85c0-3.984-0.46-7.705-1.38-11.154s-2.53-6.438-4.83-8.971c-2.3-2.529-5.405-4.521-9.315-5.979
			c-3.91-1.455-8.78-2.186-14.605-2.186H27.42L27.42,86.641z"/>
	</g>
</g>
</svg>
