<?xml version="1.0" encoding="UTF-8" standalone="no"?>
<svg width="45px" height="45px" viewBox="0 0 45 45" version="1.1" xmlns="http://www.w3.org/2000/svg" xmlns:xlink="http://www.w3.org/1999/xlink" xmlns:sketch="http://www.bohemiancoding.com/sketch/ns">
    <!-- Generator: Sketch 3.4.2 (15857) - http://www.bohemiancoding.com/sketch -->
    <title>icon-patientimpact-small</title>
    <desc>Created with Sketch.</desc>
    <defs></defs>
    <g id="MEGA-HUB-MODULE-PAGE" stroke="none" stroke-width="1" fill="none" fill-rule="evenodd" sketch:type="MSPage">
        <g id="2.3-Patient-Impact" sketch:type="MSArtboardGroup" transform="translate(-250.000000, -231.000000)">
            <g id="INTRO-" sketch:type="MSLayerGroup" transform="translate(250.000000, 231.000000)">
                <g id="icon-patientimpact-small" sketch:type="MSShapeGroup">
                    <path d="M26.7393,16.6133 C26.7393,15.6543 27.5173,14.8783 28.4743,14.8783 C29.4323,14.8783 30.2093,15.6543 30.2093,16.6133 C30.2093,17.5713 29.4323,18.3463 28.4743,18.3463 C27.5173,18.3463 26.7393,17.5713 26.7393,16.6133" id="Fill-5" fill="#FF4E00"></path>
                    <path d="M9.0913,34.5039 C9.0913,33.5459 9.8663,32.7699 10.8253,32.7699 C11.7823,32.7699 12.5583,33.5459 12.5583,34.5039 C12.5583,35.4619 11.7823,36.2389 10.8253,36.2389 C9.8663,36.2389 9.0913,35.4619 9.0913,34.5039" id="Fill-7" fill="#FF4E00"></path>
                    <path d="M37.1543,10.0469 L34.9493,10.0469 L34.9493,7.8449 C34.9493,3.5189 31.4293,-0.0001 27.1043,-0.0001 L17.8943,-0.0001 C13.5683,-0.0001 10.0473,3.5189 10.0473,7.8449 L10.0473,10.0469 L7.8453,10.0469 C3.5193,10.0469 0.0003,13.5679 0.0003,17.8929 L0.0003,27.1049 C0.0003,30.7509 2.4773,33.8889 6.0233,34.7359 C6.7993,34.9209 7.5793,34.4429 7.7653,33.6659 C7.9503,32.8899 7.4713,32.1089 6.6943,31.9239 C4.4563,31.3889 2.8913,29.4079 2.8913,27.1049 L2.8913,17.8929 C2.8913,15.1619 5.1153,12.9389 7.8453,12.9389 L11.4953,12.9389 C12.2923,12.9389 12.9383,12.2919 12.9383,11.4939 L12.9383,7.8449 C12.9383,5.1129 15.1623,2.8899 17.8943,2.8899 L27.1043,2.8899 C29.8373,2.8899 32.0573,5.1129 32.0573,7.8449 L32.0573,11.4939 C32.0573,12.2919 32.7063,12.9389 33.5063,12.9389 L37.1543,12.9389 C39.8853,12.9389 42.1063,15.1619 42.1063,17.8929 L42.1063,27.1049 C42.1063,29.8359 39.8853,32.0589 37.1543,32.0589 L33.5063,32.0589 C32.7063,32.0589 32.0573,32.7069 32.0573,33.5039 L32.0573,37.1519 C32.0573,39.8849 29.8373,42.1069 27.1043,42.1069 L17.8943,42.1069 C15.7193,42.1069 13.7663,40.6509 13.1453,38.5669 C12.9173,37.8019 12.1113,37.3679 11.3453,37.5979 C10.5813,37.8249 10.1463,38.6299 10.3733,39.3949 C11.3613,42.6929 14.4523,44.9999 17.8943,44.9999 L27.1043,44.9999 C31.4293,44.9999 34.9493,41.4789 34.9493,37.1519 L34.9493,34.9499 L37.1543,34.9499 C41.4783,34.9499 44.9993,31.4299 44.9993,27.1049 L44.9993,17.8929 C44.9993,13.5679 41.4783,10.0469 37.1543,10.0469 M28.4463,13.3949 C29.2433,13.3949 29.8883,12.7479 29.8883,11.9479 L29.8883,7.8449 C29.8883,6.3099 28.6403,5.0599 27.1043,5.0599 L17.8943,5.0599 C16.3583,5.0599 15.1083,6.3099 15.1083,7.8449 L15.1083,15.1089 L7.8453,15.1089 C6.3103,15.1089 5.0613,16.3569 5.0613,17.8929 L5.0613,27.1049 C5.0613,28.6409 6.3103,29.8899 7.8453,29.8899 L15.1083,29.8899 L15.1083,37.1519 C15.1083,38.6889 16.3583,39.9389 17.8943,39.9389 L27.1043,39.9389 C28.6403,39.9389 29.8883,38.6889 29.8883,37.1519 L29.8883,29.8899 L37.1543,29.8899 C38.6893,29.8899 39.9383,28.6409 39.9383,27.1049 L39.9383,17.8929 C39.9383,16.3569 38.6893,15.1089 37.1543,15.1089 L33.1143,15.1089 C32.3183,15.1089 31.6693,15.7559 31.6693,16.5529 C31.6693,17.3519 32.3183,17.9999 33.1143,17.9999 L37.0473,17.9999 L37.0473,26.9969 L28.4463,26.9969 C27.6473,26.9969 26.9973,27.6459 26.9973,28.4449 L26.9973,37.0469 L17.9993,37.0469 L17.9993,28.4449 C17.9993,27.6459 17.3523,26.9969 16.5523,26.9969 L7.9513,26.9969 L7.9513,17.9999 L16.5523,17.9999 C17.3523,17.9999 17.9993,17.3519 17.9993,16.5529 L17.9993,7.9509 L26.9973,7.9509 L26.9973,11.9479 C26.9973,12.7479 27.6473,13.3949 28.4463,13.3949" id="Fill-9" fill="#00ACAA"></path>
                </g>
            </g>
        </g>
    </g>
</svg>