<?xml version="1.0" encoding="utf-8"?>
<!-- Generator: Adobe Illustrator 16.2.1, SVG Export Plug-In . SVG Version: 6.00 Build 0)  -->
<!DOCTYPE svg PUBLIC "-//W3C//DTD SVG 1.1//EN" "http://www.w3.org/Graphics/SVG/1.1/DTD/svg11.dtd">
<svg version="1.1" id="Layer_1" xmlns="http://www.w3.org/2000/svg" xmlns:xlink="http://www.w3.org/1999/xlink" x="0px" y="0px"
	 width="226px" height="140px" viewBox="0 0 226 140" enable-background="new 0 0 226 140" xml:space="preserve">
<g id="Layer_2">
	<path fill="#FF4E00" d="M61.948,55.735c0-3.412,2.767-6.186,6.186-6.186c3.417,0,6.187,2.774,6.187,6.186
		c0,3.417-2.77,6.187-6.187,6.187C64.715,61.922,61.948,59.153,61.948,55.735"/>
	<path fill="#FF4E00" d="M172.27,56.675c0-3.414,2.771-6.188,6.188-6.188c3.421,0,6.19,2.774,6.19,6.188
		c0,3.415-2.771,6.186-6.19,6.186C175.039,62.861,172.27,60.09,172.27,56.675"/>
	<path fill="#FFBF2D" d="M58.983,78.454l4.339-5.964c1.675-2.303,1.166-5.528-1.136-7.204c-2.305-1.675-5.526-1.165-7.204,1.136
		l-4.378,6.02c-4.708-2.417-10.024-3.807-15.67-3.807c-19.015,0-34.484,15.471-34.484,34.482s15.47,34.479,34.484,34.479
		c19.012,0,34.479-15.468,34.479-34.479C69.413,93.455,65.407,84.723,58.983,78.454z M34.934,127.283
		c-13.329,0-24.171-10.842-24.171-24.166c0-13.327,10.843-24.169,24.171-24.169c13.326,0,24.166,10.842,24.166,24.169
		C59.1,116.441,48.26,127.283,34.934,127.283z M34.936,86.682c-9.064,0-16.437,7.373-16.437,16.434
		c0,9.062,7.373,16.436,16.437,16.436c9.06,0,16.431-7.371,16.431-16.436C51.367,94.055,43.995,86.682,34.936,86.682z
		 M34.936,109.236c-3.376,0-6.124-2.746-6.124-6.122c0-3.373,2.747-6.119,6.124-6.119c3.373,0,6.118,2.746,6.118,6.119
		C41.054,106.49,38.309,109.236,34.936,109.236z M148.211,58.19c-9.049,0-17.391,2.987-24.175,7.977l-20.443-21.313
		c2.054-3.037,3.254-6.695,3.254-10.628c0-10.484-8.529-19.014-19.012-19.014s-19.014,8.53-19.014,19.014s8.53,19.015,19.014,19.015
		c2.806,0,5.462-0.627,7.861-1.723l20.837,21.726c-5.773,7.057-9.249,16.062-9.249,25.871c0,22.564,18.358,40.924,40.927,40.924
		c22.564,0,40.924-18.359,40.924-40.924C189.135,76.549,170.775,58.19,148.211,58.19z M79.134,34.226
		c0-4.797,3.903-8.701,8.701-8.701s8.699,3.903,8.699,8.701s-3.902,8.702-8.699,8.702S79.134,39.024,79.134,34.226z
		 M148.211,129.725c-16.881,0-30.613-13.729-30.613-30.609c0-6.883,2.312-13.221,6.16-18.342l5.422,5.656
		c-2.428,3.631-3.852,7.993-3.852,12.682c0,12.617,10.266,22.884,22.883,22.884c12.616,0,22.88-10.267,22.88-22.884
		c0-12.613-10.264-22.877-22.88-22.877c-4.199,0-8.124,1.156-11.511,3.137l-5.476-5.706c4.865-3.256,10.707-5.161,16.985-5.161
		c16.88,0,30.61,13.73,30.61,30.611C178.82,115.994,165.091,129.725,148.211,129.725z M148.211,86.547
		c6.93,0,12.566,5.635,12.566,12.564c0,6.932-5.639,12.568-12.566,12.568c-6.934,0-12.57-5.638-12.57-12.568
		C135.641,92.182,141.277,86.547,148.211,86.547z M207.82,0.038c-9.771,0-17.721,7.95-17.721,17.721
		c0,3.905,1.283,7.507,3.432,10.439l-9.118,12.649c-1.666,2.311-1.144,5.533,1.168,7.199c0.911,0.657,1.966,0.974,3.01,0.974
		c1.601,0,3.181-0.743,4.188-2.141l8.996-12.479c1.89,0.689,3.92,1.085,6.047,1.085c9.777,0,17.729-7.952,17.729-17.727
		C225.55,7.987,217.6,0.038,207.82,0.038z M207.82,25.172c-4.084,0-7.407-3.326-7.407-7.414c0-4.085,3.323-7.408,7.407-7.408
		c4.091,0,7.416,3.322,7.416,7.408C215.236,21.847,211.911,25.172,207.82,25.172z"/>
</g>
</svg>
