<svg xmlns="http://www.w3.org/2000/svg" width="104" height="104" viewBox="0 0 104 104">
  <g fill="none" fill-rule="evenodd">
    <path fill="#FF4E00" d="M61.7974933 38.3951822C61.7974933 36.1788267 63.5955378 34.3854044 65.8072711 34.3854044 68.0213156 34.3854044 69.8170489 36.1788267 69.8170489 38.3951822 69.8170489 40.6092267 68.0213156 42.4003378 65.8072711 42.4003378 63.5955378 42.4003378 61.7974933 40.6092267 61.7974933 38.3951822M21.0110044 79.7423467C21.0110044 77.5283022 22.8021156 75.73488 25.0184711 75.73488 27.2302044 75.73488 29.0236267 77.5283022 29.0236267 79.7423467 29.0236267 81.9563911 27.2302044 83.7521244 25.0184711 83.7521244 22.8021156 83.7521244 21.0110044 81.9563911 21.0110044 79.7423467"/>
    <path fill="#01ADAB" d="M85.8677156,23.2195022 L80.7717156,23.2195022 L80.7717156,18.1304356 C80.7717156,8.13256889 72.6366044,-0.000231111111 62.6410489,-0.000231111111 L41.3557156,-0.000231111111 C31.3578489,-0.000231111111 23.2204267,8.13256889 23.2204267,18.1304356 L23.2204267,23.2195022 L18.13136,23.2195022 C8.13349333,23.2195022 0.000693333335,31.3569244 0.000693333335,41.35248 L0.000693333335,62.6424356 C0.000693333335,71.0687467 5.72531556,78.3210133 13.9205156,80.2785244 C15.7139378,80.70608 17.5166044,79.6013689 17.9464711,77.8056356 C18.3740267,76.0122133 17.2670044,74.2072356 15.4712711,73.77968 C10.2990044,72.5432356 6.68211556,67.9649244 6.68211556,62.6424356 L6.68211556,41.35248 C6.68211556,35.0408356 11.8220267,29.9032356 18.13136,29.9032356 L26.5669156,29.9032356 C28.4088711,29.9032356 29.9018489,28.4079467 29.9018489,26.56368 L29.9018489,18.1304356 C29.9018489,11.81648 35.04176,6.67888 41.3557156,6.67888 L62.6410489,6.67888 C68.9573156,6.67888 74.0879822,11.81648 74.0879822,18.1304356 L74.0879822,26.56368 C74.0879822,28.4079467 75.5878933,29.9032356 77.4367822,29.9032356 L85.8677156,29.9032356 C92.17936,29.9032356 97.3123378,35.0408356 97.3123378,41.35248 L97.3123378,62.6424356 C97.3123378,68.95408 92.17936,74.09168 85.8677156,74.09168 L77.4367822,74.09168 C75.5878933,74.09168 74.0879822,75.58928 74.0879822,77.4312356 L74.0879822,85.8621689 C74.0879822,92.1784356 68.9573156,97.3137244 62.6410489,97.3137244 L41.3557156,97.3137244 C36.3290489,97.3137244 31.8154489,93.9487467 30.3802489,89.1323911 C29.8533156,87.3643911 27.99056,86.3613689 26.2202489,86.8929244 C24.45456,87.4175467 23.4492267,89.2779911 23.9738489,91.0459911 C26.2572267,98.6680356 33.4008711,103.999769 41.3557156,103.999769 L62.6410489,103.999769 C72.6366044,103.999769 80.7717156,95.8623467 80.7717156,85.8621689 L80.7717156,80.7731022 L85.8677156,80.7731022 C95.86096,80.7731022 103.998382,72.6379911 103.998382,62.6424356 L103.998382,41.35248 C103.998382,31.3569244 95.86096,23.2195022 85.8677156,23.2195022 M65.74256,30.9571022 C67.5845156,30.9571022 69.0751822,29.4618133 69.0751822,27.6129244 L69.0751822,18.1304356 C69.0751822,14.58288 66.1909156,11.6939911 62.6410489,11.6939911 L41.3557156,11.6939911 C37.8058489,11.6939911 34.91696,14.58288 34.91696,18.1304356 L34.91696,34.9183467 L18.13136,34.9183467 C14.5838044,34.9183467 11.6972267,37.8026133 11.6972267,41.35248 L11.6972267,62.6424356 C11.6972267,66.1923022 14.5838044,69.07888 18.13136,69.07888 L34.91696,69.07888 L34.91696,85.8621689 C34.91696,89.4143467 37.8058489,92.3032356 41.3557156,92.3032356 L62.6410489,92.3032356 C66.1909156,92.3032356 69.0751822,89.4143467 69.0751822,85.8621689 L69.0751822,69.07888 L85.8677156,69.07888 C89.4152711,69.07888 92.3018489,66.1923022 92.3018489,62.6424356 L92.3018489,41.35248 C92.3018489,37.8026133 89.4152711,34.9183467 85.8677156,34.9183467 L76.5308267,34.9183467 C74.6911822,34.9183467 73.1912711,36.4136356 73.1912711,38.2555911 C73.1912711,40.1021689 74.6911822,41.5997689 76.5308267,41.5997689 L85.6204267,41.5997689 L85.6204267,62.3928356 L65.74256,62.3928356 C63.8959822,62.3928356 62.39376,63.8927467 62.39376,65.7393244 L62.39376,85.6195022 L41.5983822,85.6195022 L41.5983822,65.7393244 C41.5983822,63.8927467 40.1030933,62.3928356 38.2542044,62.3928356 L18.3763378,62.3928356 L18.3763378,41.5997689 L38.2542044,41.5997689 C40.1030933,41.5997689 41.5983822,40.1021689 41.5983822,38.2555911 L41.5983822,18.3754133 L62.39376,18.3754133 L62.39376,27.6129244 C62.39376,29.4618133 63.8959822,30.9571022 65.74256,30.9571022"/>
  </g>
</svg>
