<?xml version="1.0" encoding="utf-8"?>
<!-- Generator: Adobe Illustrator 16.2.1, SVG Export Plug-In . SVG Version: 6.00 Build 0)  -->
<!DOCTYPE svg PUBLIC "-//W3C//DTD SVG 1.1//EN" "http://www.w3.org/Graphics/SVG/1.1/DTD/svg11.dtd">
<svg version="1.1" id="Layer_1" xmlns="http://www.w3.org/2000/svg" xmlns:xlink="http://www.w3.org/1999/xlink" x="0px" y="0px"
	 width="12px" height="12px" viewBox="0 0 12 12" enable-background="new 0 0 12 12" xml:space="preserve">
<path id="_x3C_12_px_arrow_x3E__1_" fill="#FF4E00" d="M6.014,11.996c0.261,0.004,0.522-0.09,0.722-0.289l4.243-4.242
	c0.391-0.391,0.391-1.023,0-1.414s-1.023-0.391-1.414,0L7,8.615V1c0-0.553-0.447-1-1-1S5,0.447,5,1v7.613L2.436,6.051
	c-0.391-0.391-1.023-0.391-1.414,0C0.827,6.246,0.729,6.502,0.729,6.758S0.827,7.27,1.022,7.465l4.242,4.242
	C5.463,11.906,5.725,12,5.986,11.996C5.991,11.996,5.995,12,6,12S6.009,11.996,6.014,11.996z"/>
</svg>
