<svg xmlns="http://www.w3.org/2000/svg" width="79" height="100" viewBox="0 0 79 100" xmlns:xlink="http://www.w3.org/1999/xlink">
  <defs>
    <polygon id="a" points="0 100 79 100 79 0 39.5 0 0 0"/>
  </defs>
  <g fill="none" fill-rule="evenodd">
    <mask id="b" fill="white">
      <use xlink:href="#a"/>
    </mask>
    <path fill="#FFBF2D" d="M16.9814203,82.9192547 L16.9758656,74.0509317 C16.9758656,66.1161491 21.0110375,59.1360248 27.1452641,55.0857143 L36.4141859,72.9136646 L36.4141859,82.9192547 L16.9814203,82.9192547 Z M46.2570922,52.4186335 L39.5001234,65.4409938 L32.7437719,52.4186335 C34.8767719,51.7440994 37.1461703,51.3795031 39.5001234,51.3795031 C41.8540766,51.3795031 44.1247094,51.7440994 46.2570922,52.4186335 L46.2570922,52.4186335 Z M66.8909047,64.9447205 C66.3545688,63.3161491 64.5301625,62.4354037 62.9137484,62.9763975 C61.2961,63.5167702 60.5351078,65.2745342 61.0720609,66.9018634 C61.8349047,69.2142857 62.3360609,71.6192547 62.3360609,74.0503106 L62.3360609,82.9192547 L42.5860609,82.9192547 L42.5860609,72.9173913 L53.2992016,52.2627329 L53.3535141,52.2360248 C54.1305531,50.7099379 53.5331156,48.8372671 52.0166859,48.0546584 C51.8056078,47.9453416 51.0273344,47.5993789 50.8372406,47.5167702 C47.2445922,45.9583851 43.5822016,45.168323 39.6550375,45.168323 C23.8322016,45.168323 11.1094984,58.1242236 11.1094984,74.0503106 L11.1094984,82.8956522 C11.1094984,86.3291925 13.5862719,89.1304348 16.99685,89.1304348 L62.016975,89.1304348 C65.4263188,89.1304348 68.5079359,86.3291925 68.5079359,82.8956522 L68.5079359,74.0503106 C68.5079359,70.952795 67.8617406,67.889441 66.8909047,64.9447205 L66.8909047,64.9447205 Z M79.0001234,74.0503106 L79.0001234,82.8956522 C79.0001234,92.3229814 71.3821781,99.9925466 62.016975,99.9925466 C62.016975,99.9925466 16.3716391,100.009938 16.0618109,99.9925466 C14.360225,99.9 13.0554906,98.4080745 13.1486859,96.6956522 C13.2412641,94.9832298 14.6953578,93.6732919 16.3975609,93.7813665 C16.5962953,93.7925466 62.016975,93.7813665 62.016975,93.7813665 C67.9777719,93.7813665 72.8282484,88.8981366 72.8282484,82.8956522 L72.8282484,74.0503106 C72.8282484,61.952795 66.2903813,50.7409938 55.7642484,44.7900621 C54.9575844,44.3341615 54.3977953,43.5378882 54.2373266,42.6204969 C54.077475,41.7037267 54.334225,40.7621118 54.9378344,40.0565217 C58.1188188,36.336646 59.8703969,31.5962733 59.8703969,26.7080745 C59.8703969,15.4062112 50.7347875,6.21118012 39.5062953,6.21118012 C28.2771859,6.21118012 19.1421938,15.4062112 19.1421938,26.7080745 C19.1421938,31.5962733 20.8937719,36.336646 24.0747563,40.0565217 C24.6783656,40.7621118 24.9351156,41.7031056 24.7746469,42.6204969 C24.6147953,43.5372671 24.0537719,44.3335404 23.2471078,44.7900621 C12.720975,50.7409938 6.18187344,61.952795 6.18187344,74.0503106 C6.18187344,74.0503106 6.16829531,83.3559006 6.18187344,83.5832298 C6.28802969,85.2950311 5.02032656,86.7695652 3.31935781,86.8763975 C1.62456094,86.9875776 0.116154688,85.6819876 0.0099984375,83.9701863 C-0.0122203125,83.6142857 0.0099984375,74.0503106 0.0099984375,74.0503106 C0.0099984375,60.8869565 6.53860781,48.6099379 17.2542172,41.231677 C14.4737875,36.9248447 12.9709359,31.8807453 12.9709359,26.7080745 C12.9709359,11.9813665 24.8746313,0 39.5062953,0 C54.1379594,0 66.0416547,11.9813665 66.0416547,26.7080745 C66.0416547,31.8807453 64.5388031,36.9248447 61.7583734,41.2322981 C72.4727484,48.610559 79.0001234,60.8869565 79.0001234,74.0503106 L79.0001234,74.0503106 Z M29.9411234,26.7080745 C29.9411234,21.3993789 34.2318109,17.0807453 39.5062953,17.0807453 C44.7807797,17.0807453 49.0714672,21.3993789 49.0714672,26.7080745 C49.0714672,32.0167702 44.7807797,36.3354037 39.5062953,36.3354037 C34.2318109,36.3354037 29.9411234,32.0167702 29.9411234,26.7080745 L29.9411234,26.7080745 Z M55.2421078,26.7080745 C55.2421078,17.9745342 48.1833344,10.8695652 39.5062953,10.8695652 C30.8292562,10.8695652 23.7704828,17.9745342 23.7704828,26.7080745 C23.7704828,35.4416149 30.8292562,42.5465839 39.5062953,42.5465839 C48.1833344,42.5465839 55.2421078,35.4416149 55.2421078,26.7080745 L55.2421078,26.7080745 Z" mask="url(#b)"/>
    <path fill="#FF4D00" d="M58.9477633,61.0127329 C60.9925055,61.0127329 62.6496539,59.3444099 62.6496539,57.2860248 C62.6496539,55.2295031 60.9925055,53.5593168 58.9477633,53.5593168 C56.9011695,53.5593168 55.2434039,55.2295031 55.2434039,57.2860248 C55.2434039,59.3444099 56.9011695,61.0127329 58.9477633,61.0127329 M3.51877109,92.8065217 C3.51877109,90.75 5.17653672,89.0798137 7.22251328,89.0798137 C9.26725547,89.0798137 10.9244039,90.75 10.9244039,92.8065217 C10.9244039,94.8649068 9.26725547,96.5332298 7.22251328,96.5332298 C5.17653672,96.5332298 3.51877109,94.8649068 3.51877109,92.8065217"/>
  </g>
</svg>
