<?xml version="1.0" encoding="UTF-8" standalone="no"?>
<svg width="120px" height="120px" viewBox="0 0 120 120" version="1.1" xmlns="http://www.w3.org/2000/svg" xmlns:xlink="http://www.w3.org/1999/xlink" xmlns:sketch="http://www.bohemiancoding.com/sketch/ns">
    <!-- Generator: Sketch 3.4.2 (15857) - http://www.bohemiancoding.com/sketch -->
    <title>Patient impact - latest</title>
    <desc>Created with Sketch.</desc>
    <defs></defs>
    <g id="MEGA-HUB-MODULE-PAGE" stroke="none" stroke-width="1" fill="none" fill-rule="evenodd" sketch:type="MSPage">
        <g id="2.0_Hub_What-we-do" sketch:type="MSArtboardGroup" transform="translate(-569.000000, -2710.000000)">
            <g id="4-PODS-+-INTRO--" sketch:type="MSLayerGroup" transform="translate(250.000000, 1947.000000)">
                <g id="PATIENT-IMPACT" transform="translate(0.000000, 679.000000)" sketch:type="MSShapeGroup">
                    <g id="Patient-impact---latest" transform="translate(319.000000, 84.000000)">
                        <path d="M71.3048,44.3021333 C71.3048,41.7448 73.3794667,39.6754667 75.9314667,39.6754667 C78.4861333,39.6754667 80.5581333,41.7448 80.5581333,44.3021333 C80.5581333,46.8568 78.4861333,48.9234667 75.9314667,48.9234667 C73.3794667,48.9234667 71.3048,46.8568 71.3048,44.3021333" id="Fill-5" fill="#FF4E00"></path>
                        <path d="M24.2434667,92.0104 C24.2434667,89.4557333 26.3101333,87.3864 28.8674667,87.3864 C31.4194667,87.3864 33.4888,89.4557333 33.4888,92.0104 C33.4888,94.5650667 31.4194667,96.6370667 28.8674667,96.6370667 C26.3101333,96.6370667 24.2434667,94.5650667 24.2434667,92.0104" id="Fill-7" fill="#FF4E00"></path>
                        <path d="M99.0781333,26.7917333 L93.1981333,26.7917333 L93.1981333,20.9197333 C93.1981333,9.38373333 83.8114667,-0.000266666667 72.2781333,-0.000266666667 L47.7181333,-0.000266666667 C36.1821333,-0.000266666667 26.7928,9.38373333 26.7928,20.9197333 L26.7928,26.7917333 L20.9208,26.7917333 C9.3848,26.7917333 0.000799999999,36.1810667 0.000799999999,47.7144 L0.000799999999,72.2797333 C0.000799999999,82.0024 6.60613333,90.3704 16.0621333,92.6290667 C18.1314667,93.1224 20.2114667,91.8477333 20.7074667,89.7757333 C21.2008,87.7064 19.9234667,85.6237333 17.8514667,85.1304 C11.8834667,83.7037333 7.71013333,78.4210667 7.71013333,72.2797333 L7.71013333,47.7144 C7.71013333,40.4317333 13.6408,34.5037333 20.9208,34.5037333 L30.6541333,34.5037333 C32.7794667,34.5037333 34.5021333,32.7784 34.5021333,30.6504 L34.5021333,20.9197333 C34.5021333,13.6344 40.4328,7.7064 47.7181333,7.7064 L72.2781333,7.7064 C79.5661333,7.7064 85.4861333,13.6344 85.4861333,20.9197333 L85.4861333,30.6504 C85.4861333,32.7784 87.2168,34.5037333 89.3501333,34.5037333 L99.0781333,34.5037333 C106.3608,34.5037333 112.283467,40.4317333 112.283467,47.7144 L112.283467,72.2797333 C112.283467,79.5624 106.3608,85.4904 99.0781333,85.4904 L89.3501333,85.4904 C87.2168,85.4904 85.4861333,87.2184 85.4861333,89.3437333 L85.4861333,99.0717333 C85.4861333,106.359733 79.5661333,112.285067 72.2781333,112.285067 L47.7181333,112.285067 C41.9181333,112.285067 36.7101333,108.4024 35.0541333,102.845067 C34.4461333,100.805067 32.2968,99.6477333 30.2541333,100.261067 C28.2168,100.8664 27.0568,103.013067 27.6621333,105.053067 C30.2968,113.847733 38.5394667,119.999733 47.7181333,119.999733 L72.2781333,119.999733 C83.8114667,119.999733 93.1981333,110.6104 93.1981333,99.0717333 L93.1981333,93.1997333 L99.0781333,93.1997333 C110.6088,93.1997333 119.998133,83.8130667 119.998133,72.2797333 L119.998133,47.7144 C119.998133,36.1810667 110.6088,26.7917333 99.0781333,26.7917333 M75.8568,35.7197333 C77.9821333,35.7197333 79.7021333,33.9944 79.7021333,31.8610667 L79.7021333,20.9197333 C79.7021333,16.8264 76.3741333,13.4930667 72.2781333,13.4930667 L47.7181333,13.4930667 C43.6221333,13.4930667 40.2888,16.8264 40.2888,20.9197333 L40.2888,40.2904 L20.9208,40.2904 C16.8274667,40.2904 13.4968,43.6184 13.4968,47.7144 L13.4968,72.2797333 C13.4968,76.3757333 16.8274667,79.7064 20.9208,79.7064 L40.2888,79.7064 L40.2888,99.0717333 C40.2888,103.1704 43.6221333,106.503733 47.7181333,106.503733 L72.2781333,106.503733 C76.3741333,106.503733 79.7021333,103.1704 79.7021333,99.0717333 L79.7021333,79.7064 L99.0781333,79.7064 C103.171467,79.7064 106.502133,76.3757333 106.502133,72.2797333 L106.502133,47.7144 C106.502133,43.6184 103.171467,40.2904 99.0781333,40.2904 L88.3048,40.2904 C86.1821333,40.2904 84.4514667,42.0157333 84.4514667,44.1410667 C84.4514667,46.2717333 86.1821333,47.9997333 88.3048,47.9997333 L98.7928,47.9997333 L98.7928,71.9917333 L75.8568,71.9917333 C73.7261333,71.9917333 71.9928,73.7224 71.9928,75.8530667 L71.9928,98.7917333 L47.9981333,98.7917333 L47.9981333,75.8530667 C47.9981333,73.7224 46.2728,71.9917333 44.1394667,71.9917333 L21.2034667,71.9917333 L21.2034667,47.9997333 L44.1394667,47.9997333 C46.2728,47.9997333 47.9981333,46.2717333 47.9981333,44.1410667 L47.9981333,21.2024 L71.9928,21.2024 L71.9928,31.8610667 C71.9928,33.9944 73.7261333,35.7197333 75.8568,35.7197333" id="Fill-9" fill="#00ADBB"></path>
                    </g>
                </g>
            </g>
        </g>
    </g>
</svg>