<?xml version="1.0" encoding="utf-8"?>
<!-- Generator: Adobe Illustrator 16.2.1, SVG Export Plug-In . SVG Version: 6.00 Build 0)  -->
<!DOCTYPE svg PUBLIC "-//W3C//DTD SVG 1.1//EN" "http://www.w3.org/Graphics/SVG/1.1/DTD/svg11.dtd">
<svg version="1.1" id="Layer_1" xmlns="http://www.w3.org/2000/svg" xmlns:xlink="http://www.w3.org/1999/xlink" x="0px" y="0px"
	 width="17px" height="17px" viewBox="0 0 17 17" enable-background="new 0 0 17 17" xml:space="preserve">
<path fill="#FF4E00" d="M16.513,7.041c0,0.276-0.112,0.526-0.293,0.707c-0.182,0.182-0.432,0.293-0.707,0.293c-0.553,0-1-0.447-1-1
	V3.417L9.129,8.801c-0.391,0.391-1.023,0.391-1.414,0S7.322,7.775,7.714,7.385L13.099,2H9.472c-0.553,0-1-0.447-1-1
	c0-0.552,0.447-1,1-1l6.001,0.002c0.281,0,0.532,0.119,0.714,0.305c0.004,0.005,0.01,0.005,0.014,0.009
	c0.003,0.003,0.003,0.008,0.007,0.013c0.187,0.181,0.306,0.432,0.306,0.714V7.041z M12.519,7.984c-0.553,0-1,0.447-1,1V15H2.487V5h5
	c0.553,0,1-0.447,1-1s-0.447-1-1-1h-6c-0.553,0-1,0.447-1,1v12c0,0.553,0.447,1,1,1h11c0.006,0,0.01-0.003,0.016-0.003
	S12.513,17,12.519,17c0.553,0,1-0.447,1-1V8.984C13.519,8.432,13.071,7.984,12.519,7.984z"/>
</svg>
