<?xml version="1.0" encoding="utf-8"?>
<!-- Generator: Adobe Illustrator 16.2.1, SVG Export Plug-In . SVG Version: 6.00 Build 0)  -->
<!DOCTYPE svg PUBLIC "-//W3C//DTD SVG 1.1//EN" "http://www.w3.org/Graphics/SVG/1.1/DTD/svg11.dtd">
<svg version="1.1" id="Layer_3" xmlns="http://www.w3.org/2000/svg" xmlns:xlink="http://www.w3.org/1999/xlink" x="0px" y="0px"
	 width="108px" height="140px" viewBox="24.5 0 108 140" enable-background="new 24.5 0 108 140" xml:space="preserve">
<g id="_x3C_Learning_x3E__1_">
	<circle fill="#FF4E00" cx="101.704" cy="28.534" r="5.132"/>
	<circle fill="#FF4E00" cx="59.555" cy="118.042" r="5.132"/>
	<path fill="#FFBF2D" d="M87.635,125.039H72.738c-2.463,0-4.46-1.997-4.46-4.46c0-2.464,1.997-4.461,4.46-4.461h14.896
		c7.326,0,13.287-5.961,13.287-13.287c0-7.927,2.305-10.354,7.875-16.219l1.039-1.093c8.752-9.263,13.381-20.291,13.381-31.883
		c0-24.656-20.059-44.715-44.716-44.715S33.784,28.981,33.784,53.637c0,11.592,4.639,22.629,13.415,31.916l1.006,1.061
		c5.568,5.861,7.874,8.288,7.874,16.218c0,1.34,0.199,2.658,0.59,3.921c0.731,2.353-0.583,4.853-2.936,5.584
		c-2.351,0.73-4.853-0.584-5.583-2.938c-0.659-2.12-0.993-4.329-0.993-6.567c0-4.367-0.204-4.582-5.422-10.075l-1.015-1.069
		c-10.376-10.98-15.858-24.135-15.858-38.05C24.862,24.062,48.925,0,78.501,0c29.575,0,53.638,24.062,53.638,53.637
		c0,13.913-5.473,27.061-15.826,38.02l-1.043,1.099c-5.223,5.496-5.426,5.712-5.426,10.076
		C109.844,115.077,99.881,125.039,87.635,125.039z"/>
	<path fill="#FFBF2D" d="M87.635,110.069H69.366c-3.992,0-7.238-3.247-7.238-7.238c0-10.344-3.795-14.339-9.541-20.387l-1.009-1.064
		c-7.687-8.134-11.746-17.725-11.746-27.743c0-21.32,17.347-38.667,38.669-38.667c4.694,0,9.286,0.837,13.649,2.487
		c2.305,0.872,3.465,3.447,2.594,5.751c-0.871,2.306-3.445,3.465-5.752,2.594c-3.35-1.268-6.879-1.911-10.491-1.911
		c-16.402,0-29.747,13.344-29.747,29.745c0,7.696,3.217,15.169,9.302,21.609l1,1.054c5.914,6.225,11.512,12.117,11.964,24.848h14.96
		c0.453-12.728,6.051-18.622,11.965-24.847l1.01-1.062c6.076-6.433,9.293-13.905,9.293-21.603c0-4.554-1.008-8.925-2.992-12.992
		c-1.08-2.215-0.16-4.886,2.053-5.966c2.213-1.082,4.885-0.162,5.967,2.052c2.584,5.296,3.895,10.984,3.895,16.905
		c0,10.018-4.061,19.609-11.738,27.739l-1.016,1.066c-5.748,6.051-9.543,10.046-9.543,20.389
		C94.873,106.822,91.627,110.069,87.635,110.069z"/>
	<path fill="#FFBF2D" d="M89.877,140H67.125c-2.464,0-4.461-1.998-4.461-4.461s1.997-4.461,4.461-4.461h22.752
		c2.463,0,4.461,1.998,4.461,4.461S92.34,140,89.877,140z"/>
	<path fill="#FFBF2D" d="M70.766,72.908c-1.435,0-2.778-0.721-3.571-1.925l-8.982-13.633c-1.299-1.973-0.754-4.625,1.219-5.924
		c1.973-1.303,4.625-0.753,5.925,1.219l5.129,7.785l4.256-7.536c0.75-1.328,2.149-2.156,3.674-2.174
		c1.495,0.013,2.942,0.776,3.724,2.087l4.717,7.912l5.625-8.152c1.342-1.943,4.006-2.431,5.949-1.09
		c1.945,1.342,2.434,4.006,1.092,5.95l-9.41,13.633c-0.826,1.198-2.195,1.865-3.662,1.846c-1.455-0.049-2.785-0.835-3.531-2.086
		l-4.353-7.302l-4.075,7.216c-0.732,1.298-2.088,2.12-3.578,2.172C70.864,72.907,70.814,72.908,70.766,72.908z"/>
</g>
</svg>
