<?xml version="1.0" encoding="utf-8"?>
<!-- Generator: Adobe Illustrator 16.2.1, SVG Export Plug-In . SVG Version: 6.00 Build 0)  -->
<!DOCTYPE svg PUBLIC "-//W3C//DTD SVG 1.1//EN" "http://www.w3.org/Graphics/SVG/1.1/DTD/svg11.dtd">
<svg version="1.1" id="Layer_1" xmlns="http://www.w3.org/2000/svg" xmlns:xlink="http://www.w3.org/1999/xlink" x="0px" y="0px"
	 width="200px" height="165px" viewBox="0 0 200 165" enable-background="new 0 0 200 165" xml:space="preserve">
<g id="_x3C_DOTS_x3E_">
	<circle fill="#FF4E00" cx="149.5" cy="148.5" r="13.5"/>
	<circle fill="#FF4E00" cx="182.5" cy="148.5" r="13.5"/>
</g>
<g id="_x3C_NUMBER_x3E_">
	<g>
		<path fill="#FFFFFF" d="M72.5,19.481c-7.055,0-13.265,0.844-18.63,2.53c-5.369,1.689-9.854,4.449-13.455,8.28
			c-3.604,3.835-6.325,8.78-8.165,14.835c-1.84,6.059-2.76,13.534-2.76,22.425v5.75c3.831-5.06,9.006-8.776,15.525-11.155
			c6.515-2.375,13.685-3.565,21.505-3.565c8.585,0,15.831,1.229,21.735,3.68c5.901,2.455,10.695,5.865,14.375,10.235
			c3.681,4.37,6.325,9.66,7.935,15.871c1.61,6.209,2.416,13.074,2.416,20.584v2.761c0,9.2-1.229,17.06-3.681,23.575
			c-2.454,6.52-5.979,11.885-10.58,16.1c-4.6,4.219-10.12,7.285-16.56,9.2s-13.649,2.875-21.62,2.875
			c-10.429,0-19.054-1.495-25.875-4.485c-6.825-2.99-12.19-7.051-16.1-12.188s-6.634-11.229-8.165-18.285
			c-1.535-7.051-2.3-14.721-2.3-23v-28.52c0-25.451,4.945-44.581,14.835-57.385C32.825,6.795,48.885,0.391,71.12,0.391
			c6.745,0,12.956,0.575,18.63,1.725c5.671,1.15,10.885,2.569,15.641,4.255l-4.371,17.25c-4.449-1.225-8.97-2.221-13.567-2.99
			C82.85,19.865,77.865,19.481,72.5,19.481z M29.72,110.102c0,11.653,2.336,20.396,7.015,26.222
			c4.676,5.827,12.765,8.737,24.265,8.737c4.6,0,8.776-0.494,12.535-1.494c3.755-0.996,6.975-2.721,9.66-5.176
			c2.681-2.449,4.715-5.785,6.095-10.004c1.38-4.216,2.07-9.546,2.07-15.984v-2.069c0-12.42-2.3-21.121-6.9-26.104
			c-4.6-4.98-12.19-7.476-22.77-7.476c-21.314,0-31.97,9.738-31.97,29.21V110.102z"/>
	</g>
</g>
</svg>
