<?xml version="1.0" encoding="utf-8"?>
<!-- Generator: Adobe Illustrator 16.0.0, SVG Export Plug-In . SVG Version: 6.00 Build 0)  -->
<!DOCTYPE svg PUBLIC "-//W3C//DTD SVG 1.1//EN" "http://www.w3.org/Graphics/SVG/1.1/DTD/svg11.dtd">
<svg version="1.1" id="Layer_1" xmlns="http://www.w3.org/2000/svg" xmlns:xlink="http://www.w3.org/1999/xlink" x="0px" y="0px"
	 width="24px" height="32px" viewBox="0 0 24 32" enable-background="new 0 0 24 32" xml:space="preserve">
<g>
	<path fill="#FF4E00" d="M14.079,31.568c-0.486-0.484-0.486-1.272,0-1.759c0.485-0.485,1.273-0.485,1.759,0.001
		c0.485,0.484,0.485,1.272-0.001,1.758C15.351,32.055,14.564,32.055,14.079,31.568"/>
	<path fill="#FEBC11" d="M21.282,17.388l-4.212-4.212c-1.646-1.646-3.836-2.554-6.165-2.554l0,0c-1.82,0.001-3.552,0.562-5.01,1.591
		L3.537,9.854C3.044,9.359,3.044,8.557,3.536,8.064c0.493-0.494,1.297-0.494,1.791,0C5.343,8.08,5.363,8.084,5.38,8.1
		c0.007,0.007,0.009,0.018,0.016,0.024C6.228,8.955,7.318,9.371,8.41,9.371c1.093,0,2.186-0.416,3.017-1.248
		c1.664-1.664,1.664-4.369,0.002-6.031L9.845,0.508C9.259-0.078,8.31-0.078,7.724,0.507c-0.586,0.586-0.586,1.536,0,2.122
		l1.584,1.584C9.8,4.705,9.8,5.508,9.306,6.002C8.812,6.494,8.01,6.496,7.517,6.003C7.501,5.987,7.48,5.982,7.464,5.968
		C7.457,5.961,7.455,5.95,7.448,5.943C5.786,4.281,3.079,4.279,1.415,5.942c-1.662,1.663-1.662,4.369,0.001,6.032l2.36,2.361
		c-2.39,3.4-2.074,8.135,0.962,11.172L8.95,29.72c0.421,0.421,0.886,0.8,1.381,1.125c0.691,0.456,1.621,0.263,2.077-0.43
		c0.455-0.692,0.263-1.622-0.43-2.077c-0.325-0.213-0.63-0.463-0.907-0.739l-2.357-2.357l8.09-8.09l2.357,2.357
		c2.23,2.23,2.23,5.859,0,8.09c-0.388,0.388-0.828,0.718-1.307,0.979c-0.727,0.397-0.994,1.309-0.596,2.035
		c0.271,0.499,0.786,0.781,1.316,0.781c0.244,0,0.49-0.06,0.719-0.185c0.73-0.399,1.399-0.901,1.988-1.491
		C24.683,26.32,24.683,20.787,21.282,17.388z M14.655,15.057l-2.957,2.958L8.08,14.396C10.156,13.213,12.799,13.434,14.655,15.057z
		 M5.959,16.518l3.618,3.618L6.62,23.094C4.995,21.236,4.776,18.594,5.959,16.518z"/>
</g>
</svg>
