<?xml version="1.0" encoding="utf-8"?>
<!-- Generator: Adobe Illustrator 16.2.1, SVG Export Plug-In . SVG Version: 6.00 Build 0)  -->
<!DOCTYPE svg PUBLIC "-//W3C//DTD SVG 1.1//EN" "http://www.w3.org/Graphics/SVG/1.1/DTD/svg11.dtd">
<svg version="1.1" id="Layer_3" xmlns="http://www.w3.org/2000/svg" xmlns:xlink="http://www.w3.org/1999/xlink" x="0px" y="0px"
	 width="157px" height="140px" viewBox="0 0 157 140" enable-background="new 0 0 157 140" xml:space="preserve">
<path fill="#FF4E00" d="M36.311,52.238c0,2.991-2.431,5.428-5.429,5.428c-2.998,0-5.423-2.435-5.423-5.428
	c0-2.998,2.426-5.434,5.423-5.434C33.88,46.805,36.311,49.24,36.311,52.238"/>
<path fill="#FFBF2D" d="M52.346,140c-5.982,0-11.824-2.399-16.157-6.893L6.573,102.304c-4.046-4.202-6.274-9.736-6.274-15.578
	c0-5.845,2.229-11.379,6.281-15.589l10.418-10.833c1.652-1.722,4.389-1.776,6.103-0.12c1.725,1.652,1.771,4.388,0.125,6.103
	L12.805,77.123c-2.492,2.597-3.869,6.001-3.869,9.603c0,3.594,1.377,7,3.869,9.592l29.608,30.797
	c3.932,4.082,9.88,5.352,15.153,3.233c4.807-1.94,8.106-6.342,8.596-11.491c0.214-2.215,2.076-3.907,4.296-3.907h0.009l51.731,0.048
	c1.979,0,3.594-1.615,3.594-3.601c0-1.986-1.615-3.6-3.599-3.6l-63.166-0.041v9.752c0,2.726-1.63,5.146-4.16,6.166
	c-2.53,1.017-5.384,0.404-7.275-1.558L17.989,91.331c-2.481-2.582-2.481-6.633,0.005-9.217l29.593-30.784
	c1.839-1.91,4.806-2.554,7.272-1.558c2.538,1.017,4.167,3.441,4.167,6.169v9.739h17.491c2.389,0,4.319,1.936,4.319,4.316
	c0,2.39-1.931,4.323-4.319,4.323H54.707c-2.38,0-4.315-1.934-4.315-4.323v-9.116L25.546,86.726l24.846,25.844v-9.136
	c0-1.149,0.453-2.245,1.264-3.056c0.811-0.808,1.909-1.262,3.051-1.262h0.01l67.477,0.043c6.75,0,12.234,5.491,12.234,12.237
	c0,6.748-5.484,12.236-12.234,12.236L74.04,123.59c-1.854,6.647-6.676,12.119-13.244,14.769C58.041,139.464,55.175,140,52.346,140"
	/>
<path fill="#FF4E00" d="M120.686,87.762c0-2.996,2.431-5.432,5.429-5.429c2.998,0,5.431,2.433,5.431,5.429
	c0,2.997-2.433,5.433-5.431,5.433S120.686,90.759,120.686,87.762"/>
<path fill="#FFBF2D" d="M104.616,90.709c-0.854,0-1.685-0.161-2.48-0.483c-2.532-1.02-4.167-3.44-4.167-6.164V74.32H69.167
	c-2.386,0-4.322-1.934-4.322-4.323c0-2.382,1.936-4.317,4.322-4.317h33.125c2.38,0,4.312,1.935,4.312,4.317v9.124l24.85-25.844
	l-24.85-25.844v9.131c0,1.148-0.456,2.248-1.262,3.058c-0.811,0.81-1.906,1.266-3.051,1.266h-0.008l-67.482-0.044
	c-6.746,0-12.233-5.492-12.233-12.241c0-6.747,5.487-12.238,12.238-12.238l48.151,0.042C84.813,9.762,89.642,4.29,96.205,1.64
	c8.562-3.437,18.213-1.373,24.605,5.254l29.606,30.799c4.054,4.202,6.284,9.739,6.284,15.583c0,5.839-2.235,11.376-6.284,15.583
	l-10.414,10.835c-1.652,1.722-4.386,1.776-6.106,0.12c-1.722-1.653-1.77-4.385-0.125-6.106l10.422-10.834
	c2.495-2.591,3.863-6.002,3.863-9.598c0-3.602-1.368-7.008-3.863-9.599l-29.607-30.796c-3.928-4.078-9.881-5.346-15.155-3.225
	c-4.803,1.938-8.097,6.341-8.597,11.487c-0.212,2.215-2.072,3.904-4.299,3.904H86.53l-51.728-0.042
	c-1.979,0-3.589,1.612-3.589,3.596c0,1.985,1.61,3.597,3.594,3.597l63.162,0.047v-9.753c0-2.728,1.635-5.147,4.159-6.169
	c2.539-1.012,5.396-0.401,7.28,1.558l29.6,30.787c2.48,2.583,2.48,6.631-0.005,9.215l-29.595,30.782
	C108.163,89.966,106.417,90.709,104.616,90.709"/>
</svg>
