<svg xmlns="http://www.w3.org/2000/svg" width="106" height="95" viewBox="0 0 106 95">
  <g fill="none" fill-rule="evenodd">
    <path fill="#FF4E00" d="M24.2964594 35.3493668C24.2985584 37.3768498 22.6571327 39.0253641 20.6336871 39.0253641 18.6102416 39.0253641 16.9709149 37.3768498 16.9709149 35.3493668 16.9709149 33.3218838 18.6102416 31.6754749 20.6336871 31.6754749 22.6571327 31.6754749 24.2964594 33.3218838 24.2964594 35.3493668M81.2218178 59.3907259C81.2218178 57.3653483 82.8590455 55.7147286 84.8845901 55.716834 86.9080356 55.716834 88.5473624 57.3632429 88.5473624 59.3907259 88.5473624 61.418209 86.9080356 63.0667232 84.8845901 63.0667232 82.8590455 63.0667232 81.2218178 61.418209 81.2218178 59.3907259"/>
    <path fill="#93C83F" d="M101.283315,25.5092316 L81.3028396,4.66594799 C76.9956713,0.179378562 70.4824436,-1.21648982 64.7059683,1.11206287 C60.2770574,2.9037431 57.0193941,6.60711036 55.7683842,11.1042067 L23.2820079,11.0768367 C18.7292554,11.0768367 15.024503,14.7907309 15.024503,19.3573048 C15.024503,23.9238788 18.7292554,27.637773 23.2799089,27.637773 L68.8053347,27.6693537 L68.8074337,27.6693537 C69.5798693,27.6693537 70.3229188,27.3598625 70.8686614,26.8124631 C71.416503,26.2650638 71.7229584,25.5218639 71.7229584,24.7449778 L71.7229584,18.5656811 L88.4856515,36.0529855 L71.7229584,53.5423953 L71.7229584,47.3715201 C71.7229584,45.756692 70.4173743,44.4492497 68.8074337,44.4492497 L39.624899,44.4492497 L39.624899,37.8572981 C39.624899,36.0108779 38.5229188,34.3728905 36.8122257,33.6823252 C35.1414139,33.0086029 33.1452554,33.4423116 31.9026416,34.7371217 L11.9389584,55.5698783 C10.2618495,57.3173455 10.2618495,60.0585531 11.9389584,61.8060204 L31.9047406,82.638777 C33.1809386,83.9672732 35.1078297,84.3799281 36.8122257,83.6935735 C38.5229188,83.0051135 39.624899,81.3650208 39.624899,79.520706 L39.624899,72.9203329 L82.236899,72.9477028 C83.5760673,72.9477028 84.6654535,74.0403962 84.6654535,75.38363 C84.6654535,76.7268639 83.5760673,77.8216626 82.241097,77.8216626 L47.3408594,77.7900819 L47.3387604,77.7900819 C45.8358693,77.7900819 44.5806614,78.9333044 44.4358297,80.4344419 C44.1062851,83.916744 41.8792356,86.8958598 38.6341663,88.2075129 C35.0784436,89.6412782 31.0651366,88.7843876 28.4119881,86.0221262 L8.43571089,65.180948 C6.75440396,63.42927 5.82664158,61.1238765 5.82664158,58.6879493 C5.82664158,56.2541275 6.75650297,53.9466287 8.43990891,52.1907399 L15.4673941,44.8597992 C16.5798693,43.6955228 16.5462851,41.8469973 15.3834337,40.7290393 C14.2247802,39.608976 12.3818495,39.6426621 11.2651762,40.8090439 L4.2397901,48.14209 C1.50687921,50.9906721 -0.000209900994,54.736147 -0.000209900994,58.6879493 C-0.000209900994,62.6418571 1.50687921,66.387332 4.23559208,69.2338087 L24.2139683,90.0770923 C27.1378891,93.1214749 31.0777307,94.7426192 35.1141267,94.7426192 C37.0242257,94.7426192 38.9574139,94.3783881 40.8108396,93.6309774 C45.2418495,91.8371918 48.5016119,88.1338245 49.7484238,83.6367282 L82.236899,83.6662035 C86.7896515,83.6662035 90.492305,79.950204 90.492305,75.38363 C90.492305,70.8191615 86.7896515,67.1031619 82.238998,67.1031619 L36.7114733,67.0736866 L36.7093743,67.0736866 C35.9348396,67.0736866 35.1980871,67.3810724 34.6502455,67.9263664 C34.102404,68.4758711 33.7959485,69.219071 33.7959485,69.995957 L33.7959485,76.1773591 L17.0332554,58.6879493 L33.7959485,41.1985396 L33.7959485,47.3715201 C33.7959485,48.9842429 35.1015327,50.2937906 36.7093743,50.2937906 L65.8961069,50.2937906 L65.8961069,56.8836368 C65.8961069,58.730057 66.9959881,60.3680443 68.7045822,61.0586097 C69.2419287,61.275464 69.8065624,61.3849439 70.3795921,61.3849439 C71.5928198,61.3849439 72.7724634,60.8817576 73.6141663,60.0017078 L93.5799485,39.1731619 C95.2570574,37.4235893 95.2570574,34.6823817 93.5799485,32.9349145 L73.6120673,12.1021578 C72.3400673,10.7757671 70.4131762,10.3610068 68.7045822,11.0473614 C66.9959881,11.7379267 65.8961069,13.3759141 65.8961069,15.2223342 L65.8961069,21.820602 L23.2820079,21.7911266 C21.9407406,21.7911266 20.8534535,20.7005387 20.8534535,19.3573048 C20.8534535,18.014071 21.9407406,16.9213777 23.2778099,16.9213777 L58.1801465,16.9529584 C59.6830376,16.9529584 60.9382455,15.8076305 61.0830772,14.3085984 C61.4147208,10.8241909 63.6375723,7.84507508 66.8826416,6.53342198 C70.4404634,5.09965672 74.4537703,5.95865265 77.1048198,8.71880868 L97.083196,29.5599869 C98.764503,31.3137702 99.6901663,33.6191637 99.6901663,36.0550909 C99.6901663,38.4889127 98.762404,40.7943062 97.078998,42.5501949 L90.0536119,49.8811357 C88.9369386,51.045412 88.9747208,52.8939376 90.1333743,54.0140009 C91.2941267,55.1319588 93.1370574,55.0961673 94.2537307,53.931891 L101.279117,46.6009502 C104.012028,43.7523682 105.519117,40.0068933 105.519117,36.0550909 C105.519117,32.0990778 104.014127,28.3536029 101.283315,25.5092316"/>
  </g>
</svg>
