<?xml version="1.0" encoding="utf-8"?>
<!-- Generator: Adobe Illustrator 16.2.1, SVG Export Plug-In . SVG Version: 6.00 Build 0)  -->
<!DOCTYPE svg PUBLIC "-//W3C//DTD SVG 1.1//EN" "http://www.w3.org/Graphics/SVG/1.1/DTD/svg11.dtd">
<svg version="1.1" id="Layer_1" xmlns="http://www.w3.org/2000/svg" xmlns:xlink="http://www.w3.org/1999/xlink" x="0px" y="0px"
	 width="25px" height="25px" viewBox="0 0 25 25" enable-background="new 0 0 25 25" xml:space="preserve">
<path fill-rule="evenodd" clip-rule="evenodd" fill="#FFFFFF" d="M25,12.5C25,19.403,19.403,25,12.5,25S0,19.403,0,12.5
	C0,5.596,5.597,0,12.5,0S25,5.596,25,12.5"/>
<path fill-rule="evenodd" clip-rule="evenodd" fill="#AA262A" d="M12.485,1.174C6.23,1.174,1.158,6.245,1.158,12.5
	c0,4.799,2.985,8.896,7.2,10.548c-0.1-0.896-0.189-2.271,0.039-3.249c0.207-0.884,1.329-5.631,1.329-5.631s-0.339-0.679-0.339-1.681
	c0-1.576,0.913-2.751,2.049-2.751c0.967,0,1.434,0.726,1.434,1.596c0,0.972-0.619,2.424-0.938,3.771
	c-0.267,1.127,0.565,2.047,1.678,2.047c2.013,0,3.561-2.123,3.561-5.187c0-2.711-1.949-4.608-4.731-4.608
	c-3.223,0-5.115,2.417-5.115,4.916c0,0.973,0.375,2.018,0.843,2.584c0.092,0.112,0.106,0.211,0.079,0.325
	c-0.086,0.357-0.277,1.128-0.315,1.284c-0.049,0.208-0.165,0.252-0.379,0.152c-1.415-0.659-2.299-2.728-2.299-4.388
	c0-3.573,2.596-6.854,7.484-6.854c3.929,0,6.983,2.799,6.983,6.542c0,3.904-2.462,7.044-5.877,7.044
	c-1.149,0-2.227-0.596-2.597-1.301c0,0-0.568,2.163-0.706,2.692c-0.256,0.984-0.946,2.218-1.408,2.97
	c1.06,0.328,2.186,0.505,3.354,0.505c6.255,0,11.326-5.07,11.326-11.326C23.812,6.245,18.74,1.174,12.485,1.174"/>
</svg>
