<?xml version="1.0" encoding="utf-8"?>
<!-- Generator: Adobe Illustrator 16.0.0, SVG Export Plug-In . SVG Version: 6.00 Build 0)  -->
<!DOCTYPE svg PUBLIC "-//W3C//DTD SVG 1.1//EN" "http://www.w3.org/Graphics/SVG/1.1/DTD/svg11.dtd">
<svg version="1.1" id="Layer_1" xmlns="http://www.w3.org/2000/svg" xmlns:xlink="http://www.w3.org/1999/xlink" x="0px" y="0px"
	 width="20px" height="16px" viewBox="0 0 20 16" enable-background="new 0 0 20 16" xml:space="preserve">
<path id="_x3C_Burger_Menu_x3E_" fill="#FF4E00" d="M18.5,2.986h-17c-0.828,0-1.5-0.672-1.5-1.5s0.672-1.5,1.5-1.5h17
	c0.828,0,1.5,0.672,1.5,1.5S19.328,2.986,18.5,2.986z M20,7.486c0-0.828-0.672-1.5-1.5-1.5h-17c-0.828,0-1.5,0.672-1.5,1.5
	s0.672,1.5,1.5,1.5h17C19.328,8.986,20,8.314,20,7.486z M20,13.486c0-0.828-0.672-1.5-1.5-1.5h-17c-0.828,0-1.5,0.672-1.5,1.5
	s0.672,1.5,1.5,1.5h17C19.328,14.986,20,14.314,20,13.486z"/>
</svg>
