<?xml version="1.0" encoding="utf-8"?>
<!-- Generator: Adobe Illustrator 16.0.0, SVG Export Plug-In . SVG Version: 6.00 Build 0)  -->
<!DOCTYPE svg PUBLIC "-//W3C//DTD SVG 1.1//EN" "http://www.w3.org/Graphics/SVG/1.1/DTD/svg11.dtd">
<svg version="1.1" id="Layer_1" xmlns="http://www.w3.org/2000/svg" xmlns:xlink="http://www.w3.org/1999/xlink" x="0px" y="0px"
	 width="12px" height="12px" viewBox="0 0 12 12" enable-background="new 0 0 12 12" xml:space="preserve">
<path id="_x3C_12_px_arrow_x3E_" fill="#FF4E00" d="M0.003,6.013c-0.004,0.261,0.091,0.522,0.29,0.721l4.242,4.242
	c0.391,0.392,1.023,0.392,1.414,0c0.391-0.391,0.391-1.022,0-1.414L3.385,6.998H11c0.553,0,1-0.447,1-1s-0.447-1-1-1H3.386
	l2.563-2.562c0.391-0.392,0.391-1.023,0-1.414C5.754,0.826,5.498,0.729,5.242,0.729S4.73,0.826,4.535,1.021L0.293,5.264
	c-0.199,0.198-0.294,0.46-0.29,0.721C0.003,5.989,0,5.993,0,5.998S0.003,6.008,0.003,6.013z"/>
</svg>
