<?xml version="1.0" encoding="utf-8"?>
<!-- Generator: Adobe Illustrator 16.2.1, SVG Export Plug-In . SVG Version: 6.00 Build 0)  -->
<!DOCTYPE svg PUBLIC "-//W3C//DTD SVG 1.1//EN" "http://www.w3.org/Graphics/SVG/1.1/DTD/svg11.dtd">
<svg version="1.1" id="Layer_1" xmlns="http://www.w3.org/2000/svg" xmlns:xlink="http://www.w3.org/1999/xlink" x="0px" y="0px"
	 width="200px" height="165px" viewBox="0 0 200 165" enable-background="new 0 0 200 165" xml:space="preserve">
<g id="_x3C_DOTS_x3E_">
	<circle fill="#FF4E00" cx="149.5" cy="148.5" r="13.5"/>
	<circle fill="#FF4E00" cx="182.5" cy="148.5" r="13.5"/>
</g>
<g id="_x3C_NUMBER_x3E_">
	<g>
		<path fill="#FFFFFF" d="M49.96,162.311c-3.529,0-7.209-0.152-11.04-0.459c-3.834-0.31-7.669-0.771-11.5-1.381
			c-3.834-0.609-7.515-1.38-11.04-2.3c-3.529-0.92-6.749-1.991-9.66-3.221l3.68-17.709c5.98,1.84,12.305,3.299,18.975,4.368
			c6.67,1.074,13.455,1.611,20.355,1.611c12.42,0,21.351-2.338,26.795-7.017c5.441-4.677,8.165-12.381,8.165-23.115
			c0-6.131-0.844-11.075-2.53-14.835c-1.689-3.755-4.18-6.706-7.475-8.854c-3.299-2.146-7.36-3.603-12.19-4.371
			c-4.83-0.766-10.314-1.148-16.445-1.148h-32.2l1.84-81.19h84.18l-2.76,18.63H35.93l-0.92,43.47h18.17c9.811,0,18.13,1,24.955,2.99
			c6.821,1.995,12.42,4.945,16.79,8.854c4.37,3.91,7.552,8.818,9.546,14.723c1.99,5.902,2.989,12.688,2.989,20.354v3.221
			c0,8.129-1.345,15.146-4.024,21.045c-2.685,5.903-6.52,10.812-11.5,14.721c-4.984,3.91-11.04,6.824-18.17,8.738
			C66.635,161.352,58.7,162.311,49.96,162.311z"/>
	</g>
</g>
</svg>
