<?xml version="1.0" encoding="utf-8"?>
<!-- Generator: Adobe Illustrator 16.2.1, SVG Export Plug-In . SVG Version: 6.00 Build 0)  -->
<!DOCTYPE svg PUBLIC "-//W3C//DTD SVG 1.1//EN" "http://www.w3.org/Graphics/SVG/1.1/DTD/svg11.dtd">
<svg version="1.1" id="Layer_1" xmlns="http://www.w3.org/2000/svg" xmlns:xlink="http://www.w3.org/1999/xlink" x="0px" y="0px"
	 width="26px" height="20px" viewBox="0 0 26 20" enable-background="new 0 0 26 20" xml:space="preserve">
<path id="Triangle" fill="#FFFFFF" d="M10.418,13.242l6.755-3.5l-6.755-3.524V13.242z"/>
<path id="The_Sharpness" opacity="0.12" fill-rule="evenodd" clip-rule="evenodd" fill="#420000" d="M10.418,6.218l5.924,3.956
	l0.831-0.432L10.418,6.218z"/>
<g id="Lozenge">
	<g>
		<linearGradient id="SVGID_1_" gradientUnits="userSpaceOnUse" x1="12.9995" y1="1.2085" x2="12.9995" y2="18.7915">
			<stop  offset="0" style="stop-color:#E52D27"/>
			<stop  offset="1" style="stop-color:#BF171D"/>
		</linearGradient>
		<path fill="url(#SVGID_1_)" d="M25.251,5.001c0,0-0.245-1.723-0.994-2.481c-0.951-0.996-2.017-1-2.505-1.059
			c-3.499-0.253-8.746-0.253-8.746-0.253h-0.011c0,0-5.248,0-8.746,0.253C3.76,1.52,2.695,1.524,1.744,2.52
			C0.994,3.279,0.75,5.001,0.75,5.001S0.5,7.025,0.5,9.048v1.897c0,2.022,0.25,4.045,0.25,4.045s0.244,1.723,0.994,2.482
			c0.951,0.994,2.2,0.963,2.757,1.068c2,0.191,8.5,0.25,8.5,0.25s5.253-0.008,8.752-0.26c0.488-0.059,1.554-0.064,2.505-1.059
			c0.749-0.76,0.994-2.482,0.994-2.482s0.249-2.023,0.249-4.045V9.048C25.5,7.025,25.251,5.001,25.251,5.001z M10.419,13.242
			l-0.001-7.024l6.755,3.524L10.419,13.242z"/>
	</g>
</g>
</svg>
