<svg xmlns="http://www.w3.org/2000/svg" width="115" height="100" viewBox="0 0 115 100">
  <g fill="none" fill-rule="evenodd">
    <path fill="#F0682B" d="M82.4673846 47.8256753C80.8772885 46.2028039 78.2676731 46.1697739 76.6311346 47.7530094 74.9990192 49.3362449 74.9658462 51.9390047 76.5559423 53.5618761 78.14825 55.1913535 80.7600769 55.2221814 82.3944038 53.64335 84.0265192 52.0535085 84.0619038 49.4529507 82.4673846 47.8256753M85.61175 11.6959777C84.0238654 10.0731063 81.4076154 10.0356723 79.7755 11.6211098 78.1433846 13.2021433 78.1035769 15.8049031 79.6980962 17.4299765 81.2904038 19.0550499 83.9044423 19.0924839 85.5365577 17.5048444 87.1708846 15.9238109 87.2040577 13.3188491 85.61175 11.6959777"/>
    <path fill="#565EAA" d="M60.6412692,73.6647827 C61.4020385,72.9249119 62.4105,72.5197446 63.4830962,72.5197446 C64.6065577,72.5197446 65.6437692,72.9557399 66.4155962,73.7374486 C67.9857885,75.347108 67.9526154,77.9256459 66.3404038,79.4912654 C65.573,80.2267322 64.5689615,80.6363036 63.4919423,80.6363036 C62.3706923,80.6363036 61.3312692,80.2025103 60.5638654,79.4163975 C59.8075192,78.6412948 59.3983846,77.6195684 59.4138654,76.5229742 C59.4249231,75.4307839 59.8605962,74.4156635 60.6412692,73.6647827 M63.4919423,87.4823106 C66.3735769,87.4823106 69.0827115,86.3857164 71.1394423,84.3973136 C75.4696346,80.1959043 75.5625192,73.2684234 71.3429038,68.9591163 C69.2640577,66.8363917 66.4775192,65.6693335 63.4830962,65.6693335 C60.6058846,65.6693335 57.8923269,66.7681298 55.8378077,68.7565326 C53.7456923,70.7845713 52.5713654,73.510643 52.5337692,76.4348943 C52.49175,79.3569436 53.5953077,82.1116412 55.6343462,84.1969319 C57.7131923,86.3174545 60.5019423,87.4823106 63.4919423,87.4823106"/>
    <path fill="#565EAA" d="M106.668913,21.4318849 C105.620644,22.8147387 104.026125,23.6052554 102.290067,23.6052554 C101.093625,23.6052554 99.9591058,23.22431 98.9970865,22.5020552 C97.8316058,21.6322666 97.0730481,20.3551086 96.867375,18.9105989 C96.6683365,17.4748972 97.039875,16.0325895 97.9222788,14.8721374 C98.9639135,13.4936876 100.556221,12.7031709 102.298913,12.7031709 C103.493144,12.7031709 104.627663,13.0819143 105.58526,13.7997651 C107.998048,15.6098062 108.477952,19.0361127 106.668913,21.4318849 M75.0350673,65.3771286 C81.2406442,71.7122725 81.1013173,81.9009102 74.7387212,88.0775103 C71.7133365,91.0061656 67.7259327,92.622431 63.4930481,92.622431 C59.0965096,92.622431 54.9963173,90.9004698 51.9399712,87.7780388 C48.9389135,84.7150617 47.3244904,80.6611861 47.3775673,76.369495 C47.4328558,72.0733999 49.1578558,68.0657663 52.2407404,65.0798591 C55.2594904,62.1445978 59.2579519,60.5327363 63.488625,60.5327363 C67.8829519,60.5327363 71.9809327,62.2568996 75.0350673,65.3771286 M20.3901635,54.2372284 C18.897375,55.6905461 16.9224712,56.4876688 14.8369904,56.4876688 C12.6696827,56.4876688 10.6483365,55.6399002 9.13122115,54.0940986 C6.06602885,50.9628597 6.13458654,45.9312977 9.27939423,42.8859366 C10.7721827,41.4326189 12.7470865,40.6354962 14.8369904,40.6354962 C16.999875,40.6354962 19.0234327,41.4876688 20.5383365,43.0334703 C22.0222788,44.5462419 22.8228558,46.5500587 22.7941058,48.6661773 C22.7675673,50.7822959 21.9117019,52.7618908 20.3901635,54.2372284 M36.7776635,8.54139753 C37.6490096,7.69803288 38.8034327,7.22900763 40.0153558,7.22900763 C41.2803558,7.22900763 42.4657404,7.72665884 43.3415096,8.62947739 C44.2128558,9.51247798 44.6817019,10.6839401 44.6617981,11.9148561 C44.6463173,13.1501762 44.1465096,14.3040223 43.2596827,15.1694069 C42.386125,16.0127716 41.2339135,16.4795948 40.0153558,16.4795948 C38.7503558,16.4795948 37.5738173,15.9841456 36.6892019,15.0835291 C34.9044904,13.255872 34.939875,10.3228127 36.7776635,8.54139753 M109.723048,8.33220787 C107.562375,6.70933647 104.99699,5.85275984 102.298913,5.85275984 C98.3822788,5.85275984 94.7818942,7.64078097 92.4243942,10.75 C90.4760288,13.3241339 89.6378558,16.4928068 90.0403558,19.6879037 L51.4556442,32.9108925 L46.7782404,21.1324134 C47.2205481,20.8087199 47.6562212,20.4630065 48.0631442,20.0732531 C49.4630481,18.7124193 50.4670865,17.0587199 51.0288173,15.2398708 L71.2334327,16.8891662 C71.3285288,16.8935702 71.423625,16.8979742 71.5165096,16.8979742 C73.2879519,16.8979742 74.7962212,15.5437463 74.9377596,13.7535232 C75.0992019,11.8708162 73.6860288,10.2171169 71.7907404,10.0607751 L50.9890096,8.36743981 C50.4560288,6.69172049 49.5426635,5.14371697 48.2754519,3.84674105 C46.0860288,1.61171462 43.1513173,0.380798591 40.0153558,0.380798591 C36.9988173,0.380798591 34.1415096,1.53464474 31.978625,3.63755138 C27.4228558,8.05255432 27.3299712,15.3279507 31.7641058,19.8618614 C33.9513173,22.0968878 36.8838173,23.3300059 40.0153558,23.3300059 C40.0927596,23.3300059 40.1679519,23.3211979 40.2453558,23.3211979 L44.9426635,35.139313 L27.8297788,41.0054316 C27.7567981,41.0296536 27.6970865,41.0670875 27.6263173,41.1001174 C27.0247788,40.0805931 26.314875,39.1205226 25.4612212,38.250734 C22.6459327,35.3727246 18.8708365,33.7850851 14.8369904,33.7850851 C10.9402596,33.7850851 7.26247115,35.2736348 4.47814423,37.9754844 C-1.38243269,43.6676453 -1.50849038,53.0393423 4.206125,58.874633 C7.023625,61.7526424 10.7942981,63.3380799 14.8369904,63.3380799 C18.7270865,63.3380799 22.404875,61.8473282 25.1892019,59.1454786 C28.0288173,56.392983 29.6255481,52.7024369 29.6719904,48.7542572 C29.678625,48.3623018 29.6565096,47.9791544 29.6343942,47.593805 C29.7781442,47.5607751 29.9241058,47.5299472 30.0700673,47.4837052 L47.4770865,41.5140928 L53.2646827,56.0626835 C51.1438173,57.1086318 49.1777596,58.4870816 47.4394904,60.1738109 C43.0407404,64.4368761 40.5792981,70.155461 40.4996827,76.2792132 C40.4222788,82.4007634 42.7289135,88.1832061 47.0126635,92.5607751 C51.3738173,97.015414 57.2255481,99.47064 63.4908365,99.47064 L63.4930481,99.47064 C69.5283365,99.47064 75.2230481,97.1695537 79.5399712,92.9813564 C88.6227596,84.1711685 88.8129519,69.6423958 79.9667981,60.5965942 C75.6034327,56.1397534 69.7517019,53.6823253 63.488625,53.6823253 C62.2479519,53.6823253 61.0293942,53.7858191 59.8263173,53.9773928 L53.9900673,39.2834703 L92.5526635,26.0670875 L83.1713173,39.9176453 C82.1097788,41.4876688 82.5255481,43.6169994 84.1001635,44.6739577 C84.6906442,45.0659131 85.3563173,45.2596888 86.0219904,45.2596888 C87.1233365,45.2596888 88.2114135,44.7312096 88.874875,43.7513212 L98.3203558,29.8038755 C99.5831442,30.2332648 100.918913,30.4556665 102.290067,30.4556665 C106.20449,30.4556665 109.807087,28.6676453 112.15574,25.5562243 C116.258144,20.139313 115.167856,12.4125073 109.723048,8.33220787"/>
  </g>
</svg>
