<svg xmlns="http://www.w3.org/2000/svg" width="107" height="66" viewBox="0 0 107 66">
  <g fill="none" fill-rule="evenodd">
    <path fill="#FF4E00" d="M16.3786092,53.0217688 C16.3786092,51.0375386 17.9717687,49.4258099 19.9396184,49.4258099 C21.9045636,49.4258099 23.5020799,51.0375386 23.5020799,53.0217688 C23.5020799,55.008932 21.9045636,56.6191942 19.9396184,56.6191942 C17.9717687,56.6191942 16.3786092,55.008932 16.3786092,53.0217688"/>
    <path fill="#FFBF2D" d="M99.8362047,36.2052347 C94.0154359,44.1186907 86.592794,50.2649647 78.195667,54.3184845 C83.0579259,48.5740428 86.0031652,41.1284133 86.0031652,33.0008423 C86.0031652,24.8688716 83.0579259,17.4232422 78.195667,11.6788005 C86.592794,15.7323202 94.0154359,21.8756611 99.8362047,29.7935168 C101.292849,31.7674812 101.292849,34.2268707 99.8362047,36.2052347 M26.6423614,33.0008423 C26.6423614,19.2945487 36.7793289,7.94498669 49.8760586,6.16607227 C51.0654822,6.09127867 52.2592626,6.0531486 53.4661136,6.0531486 C54.6671554,6.0531486 55.8623881,6.09127867 57.0503594,6.16607227 C70.1499936,7.94352015 80.2840566,19.2945487 80.2840566,33.0008423 C80.2840566,46.7027363 70.1499936,58.0522982 57.0503594,59.8326792 C55.8623881,59.9030732 54.6671554,59.9456029 53.4661136,59.9456029 C53.1916312,59.9456029 52.9345763,59.9910656 52.6847828,60.0614596 C38.2548532,59.6405623 26.6423614,47.6662538 26.6423614,33.0008423 M104.649086,26.1858255 C92.4135627,9.54498309 73.7589283,0.000733270576 53.4661136,0.000733270576 C33.1674897,0.000733270576 14.5143076,9.54498309 2.28314135,26.1858255 C-0.760853479,30.3229381 -0.760853479,35.6714137 2.28314135,39.8114594 C4.79124205,43.2270337 7.61884603,46.3962292 10.6831729,49.2339863 C11.9045468,50.3588233 13.8012344,50.276697 14.9136867,49.0433359 C16.036305,47.8114414 15.9535246,45.8990717 14.733603,44.7713016 C11.9466631,42.1960553 9.37611404,39.3113688 7.09166563,36.2081678 C5.63647344,34.2268707 5.63647344,31.7674812 7.09166563,29.7920502 C12.9124344,21.8756611 20.3379809,15.7323202 28.7336556,11.6788005 C23.8713967,17.4232422 20.9232528,24.8688716 20.9232528,33.0008423 C20.9232528,50.8061184 35.0278701,65.3424743 52.5439109,65.8366987 C52.8358208,65.9305573 53.1422534,65.9936186 53.4661136,65.9936186 C73.7574761,65.9936186 92.4135627,56.4523018 104.649086,39.8114594 C107.688724,35.6714137 107.688724,30.3229381 104.649086,26.1858255"/>
    <path fill="#FFBF2D" d="M53.4665493,55.3691145 C65.6802881,55.3691145 75.6153876,45.3321069 75.6153876,33.0014289 C75.6153876,31.402899 74.3373745,30.1108763 72.754381,30.1108763 C71.1757444,30.1108763 69.8948267,31.402899 69.8948267,33.0014289 C69.8948267,42.1497126 62.5244671,49.5938755 53.4665493,49.5938755 C44.4028223,49.5938755 37.033915,42.1497126 37.033915,33.0014289 C37.033915,23.8502121 44.4028223,16.4060492 53.4665493,16.4060492 C56.7501716,16.4060492 59.92342,17.3871652 62.6406501,19.2438063 C63.9520658,20.1354634 65.7296658,19.7893596 66.6170136,18.4680061 C67.4970999,17.1466525 67.15436,15.348673 65.8473011,14.457016 C62.1802749,11.9521637 57.8974788,10.6264105 53.4665493,10.6264105 C41.2470013,10.6264105 31.3104495,20.6619516 31.3104495,33.0014289 C31.3104495,45.3321069 41.2470013,55.3691145 53.4665493,55.3691145"/>
    <path fill="#FF4E00" d="M66.9144421,23.8735301 C66.9144421,21.8907665 68.5090539,20.2790377 70.4754513,20.2790377 C72.4447533,20.2790377 74.0379128,21.8907665 74.0379128,23.8735301 C74.0379128,25.8621599 72.4447533,27.4724221 70.4754513,27.4724221 C68.5090539,27.4724221 66.9144421,25.8621599 66.9144421,23.8735301"/>
  </g>
</svg>
