<svg xmlns="http://www.w3.org/2000/svg" width="103" height="104" viewBox="0 0 103 104" xmlns:xlink="http://www.w3.org/1999/xlink">
  <defs>
    <polygon id="a" points="0 102.707 102.866 102.707 102.866 .142 0 .142 0 102.707"/>
  </defs>
  <g fill="none" fill-rule="evenodd">
    <path fill="#FF4D00" d="M70.2112304 15.1305368C70.2112304 13.2407246 71.7408657 11.7063935 73.6261641 11.7063935 75.5120315 11.7063935 77.0399597 13.2407246 77.0399597 15.1305368 77.0399597 17.020349 75.5120315 18.553539 73.6261641 18.553539 71.7408657 18.553539 70.2112304 17.020349 70.2112304 15.1305368M24.9294713 67.4289199C24.9294713 69.3187321 23.3998359 70.8530633 21.5145376 70.8530633 19.6286702 70.8530633 18.100742 69.3187321 18.100742 67.4289199 18.100742 65.5385372 19.6286702 64.0059178 21.5145376 64.0059178 23.3998359 64.0059178 24.9294713 65.5385372 24.9294713 67.4289199"/>
    <g transform="translate(0 .43)">
      <mask id="b" fill="white">
        <use xlink:href="#a"/>
      </mask>
      <path fill="#FFBF2D" d="M60.387705,61.3613219 L55.9183017,61.3613219 C54.3471249,61.3613219 53.0729978,60.0843293 53.0729978,58.5083447 L53.0729978,32.762507 C53.0729978,31.187093 54.3471249,29.9095297 55.9183017,29.9095297 L60.387705,29.9095297 C61.9594508,29.9095297 63.2330088,31.187093 63.2330088,32.762507 L63.2330088,58.5083447 C63.2330088,60.0843293 61.9594508,61.3613219 60.387705,61.3613219 M46.3165392,61.3613219 L41.847705,61.3613219 C40.2759591,61.3613219 39.0024011,60.0843293 39.0024011,58.5083447 L39.0024011,29.3366519 C39.0024011,27.7606672 40.2759591,26.4836746 41.847705,26.4836746 L46.3165392,26.4836746 C47.8882851,26.4836746 49.1618431,27.7606672 49.1618431,29.3366519 L49.1618431,58.5083447 C49.1618431,60.0843293 47.8882851,61.3613219 46.3165392,61.3613219 M32.2465116,61.3613219 L27.7771083,61.3613219 C26.2059315,61.3613219 24.9318044,60.0843293 24.9318044,58.5083447 L24.9318044,38.8085365 C24.9318044,37.2325518 26.2059315,35.9555592 27.7771083,35.9555592 L32.2465116,35.9555592 C33.8182575,35.9555592 35.0918155,37.2325518 35.0918155,38.8085365 L35.0918155,58.5083447 C35.0918155,60.0843293 33.8182575,61.3613219 32.2465116,61.3613219 M73.8010365,44.8448658 C73.8010365,28.6901672 60.6938597,15.5476421 44.5831801,15.5476421 C28.4719315,15.5476421 15.3647547,28.6901672 15.3647547,44.8448658 C15.3647547,49.595073 16.4624729,54.125601 18.626042,58.310348 C19.3498873,59.7088775 18.8052961,61.4309346 17.4105282,62.156732 C16.0157602,62.8819588 14.2983348,62.335899 13.5744895,60.9373695 C11.022821,56.00286 9.67414696,50.4384131 9.67414696,44.8448658 C9.67414696,25.5439039 25.3341304,9.84168751 44.5831801,9.84168751 C63.8316608,9.84168751 79.4916442,25.5439039 79.4916442,44.8448658 C79.4916442,64.1452572 63.8316608,79.8474736 44.5831801,79.8474736 C38.4498431,79.8474736 32.4172298,78.2292649 27.1363459,75.1685908 C25.7757215,74.3794573 25.3102298,72.635147 26.0966718,71.2708533 C26.8831138,69.9065595 28.6233017,69.4398124 29.983926,70.2283754 C34.4009757,72.7886372 39.4485448,74.141519 44.5831801,74.141519 C60.6938597,74.141519 73.8010365,60.9989938 73.8010365,44.8448658 M96.5338762,96.3576531 C95.6734564,97.2192523 94.275274,97.2192523 93.4148541,96.3576531 L74.7917713,77.6843462 C75.8724177,76.6835218 76.9024177,75.6290614 77.8806331,74.5266709 L96.5338762,93.2302194 C97.393158,94.0923892 97.393158,95.4949128 96.5338762,96.3576531 M100.557136,89.195539 L81.4139315,70.0007078 C86.3015945,62.8294641 89.1656773,54.1672544 89.1656773,44.8448658 C89.1656773,44.3461654 89.1554343,43.8480356 89.1377934,43.3499057 C89.1321028,43.1519091 89.1207215,42.9550537 89.1116166,42.7576277 C89.0985282,42.4700475 89.0837326,42.1818968 89.0649536,41.8948873 C89.0478818,41.6375488 89.0279646,41.3802102 89.0069094,41.1234423 C88.9892685,40.9140337 88.9699204,40.7051958 88.9494343,40.4963579 C88.9198431,40.1899481 88.8891138,39.8841089 88.8526939,39.579411 C88.8407436,39.4744214 88.8259481,39.3694318 88.8122906,39.2644423 C88.6575061,38.022256 88.4515061,36.7903404 88.1942906,35.5704073 C88.1925834,35.5641307 88.1914453,35.5578542 88.1903072,35.551007 C88.1066552,35.1572962 88.0167436,34.7647265 87.9228486,34.373298 C87.9040696,34.2968382 87.8864287,34.220949 87.8676497,34.1450598 C87.7777381,33.7804493 87.6849812,33.41698 87.5859646,33.0546519 C87.5563735,32.9456682 87.5250751,32.837255 87.4943459,32.7288419 C87.3993127,32.3899082 87.3031414,32.0509745 87.2001414,31.7143232 C87.1261635,31.4712495 87.0453569,31.2304582 86.9673956,30.9890963 C86.8763459,30.7106458 86.7864343,30.4327658 86.690263,30.156027 C86.5479978,29.7451983 86.400042,29.3366519 86.2463956,28.9298173 C86.2207878,28.8653401 86.1957492,28.8014334 86.1707105,28.7369561 C85.5874232,27.2186016 84.9256055,25.7310592 84.1795669,24.2874527 C84.1550972,24.2406639 84.1209536,24.2030046 84.0947768,24.1579275 C83.3794674,22.7902102 82.5947326,21.4533051 81.7348818,20.155771 C80.8647878,18.8434014 79.0995613,18.4867793 77.7895834,19.3597903 C76.4813127,20.2316602 76.1256497,22.0027885 76.9957436,23.3145874 C79.0836276,26.4654156 80.6855337,29.8718704 81.7752851,33.4369509 C81.8458486,33.6697538 81.9118597,33.9031273 81.9778707,34.1365009 C82.0228265,34.2951264 82.0683514,34.4531814 82.1116,34.6118069 C82.186716,34.8902575 82.2584177,35.1692787 82.3278431,35.449441 C82.354589,35.5572836 82.3796276,35.6651261 82.4063735,35.7735393 C82.4797823,36.082802 82.551484,36.3932059 82.616926,36.704751 C82.6277381,36.7543928 82.6374122,36.8040347 82.6476552,36.8536765 C82.8599149,37.8710482 83.0300641,38.89812 83.1609481,39.9303272 C83.1751746,40.0415933 83.1905392,40.1522888 83.2036276,40.2635549 C83.2337878,40.5208935 83.2599646,40.7793732 83.2850033,41.0372824 C83.3037823,41.2272906 83.3214232,41.4172989 83.3373569,41.6073072 C83.3555669,41.8269865 83.3720696,42.0472363 83.3868652,42.2674862 C83.403368,42.5202599 83.4164564,42.7736043 83.4284066,43.0275193 C83.4363735,43.1986979 83.4460475,43.369306 83.4517381,43.5404846 C83.4659646,43.9747078 83.4750696,44.4089309 83.4750696,44.8448658 C83.4750696,66.3477556 66.0282354,83.8416418 44.5831801,83.8416418 C23.1375558,83.8416418 5.69072155,66.3477556 5.69072155,44.8448658 C5.69072155,44.2537289 5.70893149,43.6665862 5.73510829,43.0817259 C5.74193702,42.9305181 5.74876575,42.7787397 5.75787072,42.6275319 C5.78916906,42.0694895 5.82957238,41.5137296 5.88420221,40.9625343 C5.89785967,40.8238797 5.91663867,40.6857955 5.93200331,40.5477114 C5.97923536,40.1180531 6.03386519,39.6912477 6.0947547,39.2661541 C6.12320773,39.0681574 6.15109171,38.8701608 6.18239006,38.6727348 C6.26376575,38.1649048 6.35253923,37.6593572 6.45326298,37.1572332 C6.48968287,36.9757839 6.53122431,36.7949051 6.56992044,36.6140264 C6.65414144,36.2237391 6.74348398,35.8351636 6.83908619,35.4488704 C6.88233481,35.2742682 6.92387624,35.099666 6.9694011,34.9256344 C7.10768287,34.3995454 7.25450055,33.8774506 7.41383757,33.3604911 C7.44399779,33.2617781 7.47700331,33.163065 7.50830166,33.064352 C7.67105304,32.5519573 7.84120221,32.0424156 8.02443978,31.5391504 C8.03980442,31.4952145 8.05516906,31.4512787 8.07110276,31.4073428 C12.0010365,20.7063956 20.4834564,12.1942526 31.1510696,8.24516142 C31.1937492,8.22975534 31.2364287,8.21491986 31.2791083,8.19951378 C31.6342022,8.06998861 31.9921414,7.94673999 32.3517878,7.82691495 C32.521937,7.770426 32.6926552,7.71507824 32.8639425,7.66087167 C33.0870144,7.59011783 33.3112243,7.52335816 33.5360033,7.4560279 C33.7664729,7.38812704 33.9969425,7.3185144 34.2285503,7.25403711 C34.2883017,7.23748984 34.3486221,7.22322495 34.4083735,7.20724828 C35.050274,7.03321667 35.6967271,6.87573232 36.3465945,6.73479524 C36.4131746,6.72053036 36.4797547,6.70455368 36.5463348,6.69085939 C36.8638707,6.62352913 37.1819757,6.56190482 37.5006497,6.50256289 C37.6042188,6.48316265 37.7077878,6.46490359 37.8113569,6.44664454 C38.1260475,6.39072618 38.4407381,6.33709021 38.7559978,6.28916019 C38.8379425,6.27717769 38.9210254,6.26690697 39.0029702,6.25492446 C39.525368,6.17903527 40.0489039,6.11512858 40.5735779,6.06035141 C40.7909591,6.03809819 41.0077713,6.01470378 41.2257215,5.99587413 C41.4351359,5.97761507 41.6445503,5.96277959 41.8539646,5.94794411 C42.1350807,5.92854386 42.4167657,5.911426 42.6990199,5.89773171 C42.8668928,5.88974337 43.0341967,5.88118444 43.2020696,5.87490789 C43.6607326,5.85893122 44.1205337,5.84751931 44.5831801,5.84751931 C45.021926,5.84751931 45.4601028,5.85550764 45.8971414,5.87034312 C46.0530641,5.87547848 46.2089867,5.8863198 46.3649094,5.89316694 C46.6448873,5.90629064 46.9248652,5.91827314 47.204274,5.93710279 C47.3926331,5.94965589 47.5798541,5.96791495 47.7670751,5.98332103 C48.0151856,6.00386246 48.2627271,6.02269211 48.5096994,6.04779831 C48.7043182,6.06776915 48.8977989,6.09287535 49.0918486,6.11512858 C49.3319923,6.14308775 49.5721359,6.17047634 49.8117105,6.20300028 C50.0023459,6.22867707 50.1918431,6.25891863 50.3819094,6.288019 C50.6266055,6.32453711 50.8713017,6.36162581 51.1148597,6.40270869 C51.2924066,6.43295025 51.4688155,6.46718597 51.6457934,6.49970991 C51.904716,6.54763993 52.1630696,6.59614055 52.4202851,6.64920592 C52.5767768,6.68115927 52.7321304,6.71653619 52.888053,6.75020132 C53.1697381,6.81239622 53.4514232,6.87516172 53.7314011,6.94363318 C53.8594398,6.97444533 53.9869094,7.00696928 54.114379,7.03949322 C54.4279315,7.11880599 54.7403459,7.20097173 55.0516221,7.28827284 C55.1426718,7.31394963 55.2337215,7.34019702 55.3247713,7.36644441 C55.6792961,7.468581 56.0332519,7.57528235 56.3849315,7.68768966 C56.4304564,7.70195454 56.4759812,7.71679002 56.5215061,7.73162551 C59.4641193,8.68451992 62.2951967,9.99118352 64.9510033,11.635069 C65.4170641,11.9232197 65.9326331,12.0607332 66.4430807,12.0607332 C67.3968265,12.0607332 68.3289481,11.5797213 68.8667105,10.7061396 C69.6924177,9.3652403 69.2775724,7.6072357 67.9397105,6.77987228 C67.6409536,6.59442876 67.3370751,6.41811476 67.0337657,6.24008898 C66.9779978,6.20242968 66.9301967,6.15678204 66.8710144,6.12197572 C64.5759923,4.79191771 62.1682961,3.68096835 59.6849149,2.78570408 C59.6553238,2.77486277 59.6251635,2.76459205 59.5955724,2.75375074 C59.1738983,2.60254294 58.7499481,2.45818229 58.3242906,2.32009819 C58.2372243,2.29156842 58.149589,2.26360924 58.0625227,2.23565006 C57.6926331,2.11867799 57.3216055,2.00627069 56.9488707,1.89842815 C56.8151414,1.85962766 56.6808431,1.82082716 56.5465448,1.78316786 C56.2181967,1.69187259 55.8881414,1.60457149 55.5575171,1.52069395 C55.3862298,1.4773287 55.2155116,1.43339285 55.0436552,1.39173938 C54.7460365,1.31984435 54.4472796,1.25251409 54.1479536,1.18689561 C53.9482133,1.14295976 53.7484729,1.09788272 53.5487326,1.05679985 C53.2727381,1.0003109 52.9961746,0.94838671 52.719042,0.897033118 C52.4988155,0.855950246 52.278589,0.813726182 52.0577934,0.776066882 C51.7943182,0.731560436 51.530274,0.692189349 51.2662298,0.651677072 C51.034053,0.616870749 50.8018762,0.579782044 50.5691304,0.548399294 C50.3067934,0.51245178 50.0438873,0.482780816 49.7809812,0.451968662 C49.5470972,0.42458008 49.3137823,0.394909116 49.0798983,0.370944107 C48.8044729,0.342984929 48.5284785,0.321872897 48.252484,0.299049079 C48.0305503,0.280790025 47.8091856,0.259107397 47.5872519,0.244271915 C47.269716,0.222589288 46.9521801,0.209465592 46.6340751,0.19463011 C46.4525448,0.186071179 46.2710144,0.174088674 46.089484,0.167812124 C45.5875724,0.15069426 45.0856608,0.141564733 44.5831801,0.141564733 C44.1091525,0.141564733 43.6356939,0.150123665 43.1622354,0.165529742 C42.9420088,0.172376888 42.7229204,0.185500583 42.503263,0.195771301 C42.2625503,0.207183211 42.0218376,0.216883333 41.7811249,0.232289411 C41.4891967,0.250548465 41.1989757,0.274513475 40.9081856,0.298478484 C40.7511249,0.311602179 40.5940641,0.323584684 40.4370033,0.338420166 C40.096705,0.369802916 39.7575448,0.406891621 39.4189536,0.446262707 C39.3233514,0.457104021 39.2277492,0.46851593 39.132147,0.480498435 C38.7503072,0.527287262 38.3707436,0.578640853 37.9923182,0.635129804 C37.9507768,0.641406354 37.9092354,0.648253499 37.8676939,0.654530049 C35.7371304,0.978628269 33.6555061,1.45279309 31.6353403,2.06960678 C31.5698983,2.08900703 31.5038873,2.10726608 31.4384453,2.12723692 C31.2745558,2.17801992 31.1123735,2.23336768 30.9496221,2.28586246 C30.6326552,2.38742845 30.3168265,2.49070623 30.0021359,2.59911937 C29.9583182,2.61452545 29.9139315,2.63107271 29.8701138,2.64647879 C27.8835227,3.34032287 25.9464398,4.17110985 24.0804895,5.14112213 C24.0110641,5.17706964 23.954158,5.22614085 23.888716,5.26665313 C16.5051525,9.16781427 10.3365337,15.0820362 6.11979337,22.2806685 C6.0685779,22.3531341 6.00996464,22.418182 5.96443978,22.4969242 C4.68803646,24.7108345 3.61308066,27.0285933 2.73786519,29.4182471 C2.71111934,29.4918539 2.68608066,29.5660313 2.65933481,29.6396381 C2.46130166,30.1896921 2.27408066,30.7425991 2.09767182,31.3000709 C2.05556133,31.4335902 2.01117459,31.566539 1.96963315,31.7006289 C1.79151713,32.2820657 1.62592044,32.8674966 1.47113591,33.4557805 C1.4147989,33.6714656 1.3624453,33.8888625 1.30895359,34.1056887 C1.20481547,34.5290706 1.10693702,34.9535936 1.01531823,35.3798284 C0.967517127,35.6012194 0.916870718,35.8214693 0.872483978,36.0440015 C0.758102762,36.6134558 0.657379006,37.185763 0.565760221,37.759782 C0.528771271,37.9931556 0.495196685,38.2276703 0.461622099,38.4627556 C0.392765746,38.9426264 0.331307182,39.424209 0.27838453,39.9069328 C0.260174586,40.0706936 0.237981215,40.2333134 0.221478453,40.3976448 C0.158881768,41.0298646 0.113356906,41.6643668 0.0769370166,42.3000101 C0.0672629834,42.4751829 0.0587270718,42.6509263 0.0513292818,42.8266697 C0.0206,43.4982606 0.000113812159,44.170422 0.000113812159,44.8448658 C0.000113812159,69.494019 19.9997547,89.5475963 44.5831801,89.5475963 C54.1764066,89.5475963 63.0639978,86.4834987 70.3451304,81.2945037 L89.3915945,100.391763 C90.9303348,101.935224 92.9527768,102.707239 94.9740807,102.707239 C96.9959536,102.707239 99.0183956,101.935224 100.557136,100.391763 C103.635755,97.3054122 103.635755,92.2818898 100.557136,89.195539" mask="url(#b)"/>
    </g>
  </g>
</svg>
