<?xml version="1.0" encoding="utf-8"?>
<!-- Generator: Adobe Illustrator 16.0.0, SVG Export Plug-In . SVG Version: 6.00 Build 0)  -->
<!DOCTYPE svg PUBLIC "-//W3C//DTD SVG 1.1//EN" "http://www.w3.org/Graphics/SVG/1.1/DTD/svg11.dtd">
<svg version="1.1" id="Layer_1" xmlns="http://www.w3.org/2000/svg" xmlns:xlink="http://www.w3.org/1999/xlink" x="0px" y="0px"
	 width="58px" height="58px" viewBox="0 0 58 58" enable-background="new 0 0 58 58" xml:space="preserve">
<g id="_x3C_Play_x3E__1_">
	<path fill="#FF4E00" d="M52.984,12.403c0,1.279-1.039,2.319-2.32,2.319c-1.283,0-2.322-1.04-2.322-2.319
		c0-1.283,1.039-2.321,2.322-2.321C51.945,10.082,52.984,11.12,52.984,12.403"/>
	<path fill="#FEBC11" d="M22.53,43.505c-0.376,0-0.746-0.052-1.102-0.154c-1.325-0.396-2.173-1.413-2.173-2.598V17.255
		c0-1.183,0.848-2.199,2.159-2.591c1.104-0.324,2.334-0.144,3.215,0.467l16.924,11.747c0.749,0.526,1.175,1.3,1.175,2.128
		c0,0.824-0.425,1.597-1.166,2.119L24.632,42.878C24.049,43.282,23.303,43.505,22.53,43.505z M22.256,40.467
		c0.005,0.002,0.011,0.003,0.017,0.005c0.228,0.064,0.582-0.014,0.649-0.059l16.435-11.408L22.921,17.597
		c-0.104-0.073-0.393-0.131-0.656-0.056c-0.003,0.001-0.006,0.002-0.009,0.003V40.467z M41.191,54.851
		c6.903-3.258,12.125-9.01,14.703-16.196c2.577-7.186,2.202-14.945-1.057-21.85c-0.354-0.749-1.249-1.068-1.997-0.716
		c-0.749,0.354-1.069,1.248-0.716,1.997c2.917,6.179,3.253,13.124,0.945,19.556c-2.307,6.432-6.98,11.58-13.16,14.496
		C27.156,58.161,11.881,52.68,5.858,39.926c-6.02-12.757-0.54-28.034,12.214-34.056c8.8-4.15,19.031-3.006,26.701,2.994
		c0.652,0.51,1.595,0.395,2.105-0.257c0.51-0.653,0.396-1.595-0.258-2.106C38.055-0.2,26.624-1.483,16.791,3.157
		C2.542,9.885-3.581,26.953,3.145,41.206c3.259,6.903,9.012,12.124,16.198,14.701c3.152,1.131,6.415,1.693,9.667,1.693
		C33.171,57.601,37.316,56.68,41.191,54.851z"/>
</g>
</svg>
