<?xml version="1.0" encoding="utf-8"?>
<!-- Generator: Adobe Illustrator 16.2.1, SVG Export Plug-In . SVG Version: 6.00 Build 0)  -->
<!DOCTYPE svg PUBLIC "-//W3C//DTD SVG 1.1//EN" "http://www.w3.org/Graphics/SVG/1.1/DTD/svg11.dtd">
<svg version="1.1" id="Layer_1" xmlns="http://www.w3.org/2000/svg" xmlns:xlink="http://www.w3.org/1999/xlink" x="0px" y="0px"
	 width="52px" height="45px" viewBox="0 0 52 45" enable-background="new 0 0 52 45" xml:space="preserve">
<circle fill="#FF4E00" cx="36.034" cy="22.85" r="1.867"/>
<circle fill="#FF4E00" cx="37.456" cy="6.441" r="1.866"/>
<g>
	<path fill="#565EAA" d="M28.791,39.557c1.303,0,2.527-0.498,3.457-1.402c1.959-1.908,2-5.053,0.092-7.01
		c-0.939-0.965-2.199-1.494-3.553-1.494c-1.301,0-2.528,0.498-3.458,1.402c-0.946,0.92-1.477,2.158-1.494,3.486
		c-0.018,1.326,0.481,2.578,1.402,3.525C26.178,39.027,27.438,39.557,28.791,39.557z M27.502,33.281
		c0.344-0.336,0.799-0.52,1.285-0.52c0.508,0,0.977,0.197,1.326,0.553c0.709,0.73,0.693,1.9-0.035,2.613
		c-0.346,0.334-0.801,0.52-1.287,0.52l0,0c-0.508,0-0.977-0.197-1.324-0.555c-0.343-0.352-0.526-0.816-0.52-1.314
		C26.952,34.082,27.148,33.621,27.502,33.281z"/>
	<path fill="#565EAA" d="M49.695,3.611c-0.977-0.736-2.137-1.125-3.357-1.125c-1.771,0-3.398,0.812-4.465,2.224
		c-0.881,1.169-1.26,2.607-1.078,4.059l-17.447,6.005l-2.115-5.35c0.2-0.146,0.397-0.304,0.581-0.48
		c0.633-0.618,1.088-1.37,1.342-2.195l9.136,0.749c0.043,0.002,0.086,0.004,0.129,0.004c0.801,0,1.482-0.615,1.547-1.428
		c0.072-0.855-0.566-1.606-1.424-1.677l-9.405-0.769c-0.242-0.762-0.655-1.464-1.228-2.053C20.92,0.559,19.593,0,18.175,0
		c-1.365,0-2.656,0.523-3.634,1.479c-2.061,2.004-2.102,5.309-0.097,7.368c0.989,1.015,2.315,1.575,3.731,1.575l0,0
		c0.035,0,0.068-0.004,0.103-0.004l2.125,5.367l-7.738,2.663c-0.033,0.012-0.06,0.029-0.092,0.043
		c-0.271-0.462-0.593-0.898-0.979-1.294c-1.273-1.307-2.98-2.028-4.805-2.028c-1.761,0-3.424,0.676-4.684,1.903
		c-2.65,2.584-2.707,6.841-0.123,9.491c1.274,1.307,2.979,2.027,4.807,2.027l0,0c1.76,0,3.422-0.678,4.682-1.904
		c1.284-1.25,2.005-2.926,2.027-4.72c0.002-0.177-0.007-0.353-0.018-0.527c0.065-0.014,0.132-0.028,0.197-0.049l7.871-2.711
		l2.617,6.607c-0.959,0.475-1.848,1.102-2.635,1.867c-1.987,1.936-3.101,4.533-3.137,7.314c-0.036,2.779,1.008,5.406,2.944,7.393
		C23.311,43.885,25.957,45,28.789,45c0.002,0,0.002,0,0.002,0c2.729,0,5.305-1.045,7.256-2.947c4.107-4,4.193-10.6,0.193-14.707
		c-1.973-2.023-4.619-3.141-7.451-3.141c-0.561,0-1.111,0.049-1.656,0.135l-2.639-6.672l17.438-6.002l-4.242,6.29
		c-0.48,0.714-0.293,1.681,0.42,2.16c0.268,0.179,0.568,0.267,0.869,0.267c0.498,0,0.99-0.241,1.289-0.686l4.271-6.333
		c0.57,0.194,1.176,0.295,1.795,0.295c1.77,0,3.398-0.812,4.461-2.225C52.65,8.973,52.156,5.464,49.695,3.611z M16.711,3.707
		c0.394-0.383,0.915-0.596,1.464-0.596c0.571,0,1.107,0.226,1.505,0.635c0.393,0.402,0.604,0.933,0.595,1.493
		c-0.006,0.561-0.231,1.084-0.634,1.478c-0.395,0.383-0.916,0.595-1.466,0.595c-0.572,0-1.105-0.225-1.503-0.634
		C15.864,5.847,15.88,4.515,16.711,3.707z M9.301,24.459C8.625,25.117,7.733,25.48,6.79,25.48c-0.979,0-1.894-0.385-2.58-1.088
		c-1.385-1.422-1.355-3.706,0.067-5.09c0.675-0.66,1.568-1.022,2.513-1.022c0.978,0,1.894,0.388,2.579,1.089
		c0.67,0.688,1.033,1.597,1.02,2.558C10.376,22.888,9.989,23.787,9.301,24.459z M34.01,29.518c2.807,2.877,2.744,7.504-0.135,10.309
		c-1.367,1.33-3.17,2.064-5.084,2.064l0,0c-1.987,0-3.842-0.783-5.224-2.201c-1.356-1.391-2.088-3.23-2.063-5.18
		c0.024-1.951,0.805-3.771,2.198-5.127c1.365-1.334,3.172-2.066,5.086-2.066C30.775,27.316,32.629,28.1,34.01,29.518z M48.314,9.56
		c-0.475,0.628-1.195,0.987-1.98,0.987c-0.541,0-1.055-0.173-1.488-0.501c-0.527-0.395-0.871-0.975-0.963-1.63
		c-0.092-0.653,0.078-1.308,0.477-1.835c0.471-0.626,1.191-0.985,1.979-0.985c0.541,0,1.055,0.172,1.486,0.498
		C48.914,6.917,49.133,8.472,48.314,9.56z"/>
</g>
</svg>
