<?xml version="1.0" encoding="utf-8"?>
<!-- Generator: Adobe Illustrator 16.0.0, SVG Export Plug-In . SVG Version: 6.00 Build 0)  -->
<!DOCTYPE svg PUBLIC "-//W3C//DTD SVG 1.1//EN" "http://www.w3.org/Graphics/SVG/1.1/DTD/svg11.dtd">
<svg version="1.1" id="Layer_1" xmlns="http://www.w3.org/2000/svg" xmlns:xlink="http://www.w3.org/1999/xlink" x="0px" y="0px"
	 width="32px" height="32px" viewBox="0 0 32 32" enable-background="new 0 0 32 32" xml:space="preserve">
<g>
	<path fill="#FEBC11" d="M30.825,24.62c-0.008-0.009-0.01-0.02-0.02-0.028l-7.273-6.852c-0.447-0.417-1.049-0.629-1.67-0.594
		c-0.615,0.043-1.189,0.344-1.578,0.83c-0.381,0.478-1.051,1.035-1.408,1.202c-1.084-1.042-2.996-2.956-5.422-5.427l-0.008-0.008
		c-0.092-0.246-0.07-1.031,0.939-2.337c0.637-0.827,0.615-1.966-0.045-2.761l-3.59-4.379C10.226,3.627,9.282,3.534,8.64,4.059
		C7.999,4.584,7.907,5.529,8.431,6.17l3.209,3.913c-2.277,3.333-0.705,5.351-0.51,5.579l0.184,0.191
		c1.482,1.51,4.188,4.251,5.637,5.635c0.514,0.49,1.115,0.738,1.789,0.738c1.352,0,2.615-1.039,3.322-1.75l6.008,5.659
		c-0.943,0.671-1.9,1.191-2.812,1.523c-0.576,0.174-0.83,0.229-1.586,0.396l-0.547,0.121c-0.359,0.043-0.674,0.062-0.961,0.062
		c-3.996,0-6.605-2.82-6.764-2.992l-9.191-9.188c-2.111-2.483-2.994-4.867-2.623-7.085C3.692,8.333,3.905,7.699,4.22,7.09
		C4.317,6.9,4.421,6.72,4.532,6.543c0.117-0.186,0.24-0.361,0.365-0.529C5.394,5.351,5.257,4.41,4.593,3.915
		c-0.664-0.497-1.604-0.36-2.1,0.304c-0.172,0.23-0.34,0.473-0.498,0.726C1.839,5.19,1.69,5.447,1.552,5.717
		C1.097,6.602,0.784,7.531,0.626,8.479c-0.523,3.13,0.586,6.334,3.307,9.533l9.297,9.303c0.363,0.401,3.715,3.923,8.934,3.923
		c0.43,0,0.889-0.03,1.398-0.094l0.752-0.16c0.795-0.174,1.123-0.246,1.887-0.479c1.535-0.556,3.041-1.421,4.469-2.568
		c0.5-0.4,0.803-0.997,0.83-1.648C31.522,25.661,31.274,25.057,30.825,24.62z"/>
	<path fill="#FF4E00" d="M5.435,3.571C4.792,2.93,4.794,1.887,5.437,1.244S7.12,0.602,7.763,1.243s0.643,1.686,0.002,2.328
		C7.12,4.215,6.077,4.215,5.435,3.571"/>
</g>
</svg>
