<?xml version="1.0" encoding="utf-8"?>
<!-- Generator: Adobe Illustrator 16.0.0, SVG Export Plug-In . SVG Version: 6.00 Build 0)  -->
<!DOCTYPE svg PUBLIC "-//W3C//DTD SVG 1.1//EN" "http://www.w3.org/Graphics/SVG/1.1/DTD/svg11.dtd">
<svg version="1.1" id="Layer_1" xmlns="http://www.w3.org/2000/svg" xmlns:xlink="http://www.w3.org/1999/xlink" x="0px" y="0px"
	 width="58px" height="58px" viewBox="0 0 58 58" enable-background="new 0 0 58 58" xml:space="preserve">
<g>
	<g id="_x3C_Play_x3E__3_">
		<path fill="#FF4E00" d="M52.983,12.403c0,1.279-1.039,2.319-2.32,2.319c-1.283,0-2.322-1.04-2.322-2.319
			c0-1.283,1.039-2.321,2.322-2.321C51.944,10.082,52.983,11.12,52.983,12.403"/>
		<path fill="#FEBC11" d="M41.19,54.851c6.904-3.258,12.125-9.01,14.703-16.196c2.578-7.186,2.203-14.945-1.057-21.85
			c-0.354-0.749-1.248-1.068-1.996-0.716c-0.75,0.354-1.07,1.248-0.717,1.997c2.918,6.179,3.254,13.124,0.945,19.556
			c-2.307,6.432-6.98,11.58-13.16,14.496C27.156,58.161,11.881,52.68,5.858,39.926c-6.02-12.757-0.54-28.034,12.214-34.056
			c8.8-4.15,19.03-3.006,26.7,2.994c0.652,0.51,1.596,0.395,2.105-0.257c0.51-0.653,0.396-1.595-0.258-2.106
			C38.054-0.2,26.624-1.483,16.791,3.157C2.542,9.885-3.581,26.953,3.145,41.206c3.259,6.903,9.012,12.124,16.198,14.701
			c3.152,1.131,6.415,1.693,9.667,1.693C33.171,57.601,37.315,56.68,41.19,54.851z"/>
	</g>
	<path fill="#FEBC11" d="M23.782,41c-1.104,0-2-0.896-2-2V19c0-1.104,0.896-2,2-2s2,0.896,2,2v20C25.782,40.104,24.887,41,23.782,41
		z"/>
	<path fill="#FEBC11" d="M34.218,41c-1.105,0-2-0.896-2-2V19c0-1.104,0.895-2,2-2c1.104,0,2,0.896,2,2v20
		C36.218,40.104,35.321,41,34.218,41z"/>
</g>
</svg>
