<svg xmlns="http://www.w3.org/2000/svg" width="281" height="280" viewBox="0 0 281 280">
  <g fill="none" fill-rule="evenodd">
    <path fill="#01ADAB" d="M105.175623,124.244308 C77.4044136,124.244308 54.8124271,146.866466 54.8124271,174.674763 C54.8124271,202.485818 77.4044136,225.11349 105.175623,225.11349 C132.949587,225.11349 155.544326,202.485818 155.544326,174.674763 C155.544326,146.866466 132.949587,124.244308 105.175623,124.244308 M105.175623,238.899083 C69.8131757,238.899083 41.0452202,210.089951 41.0452202,174.674763 C41.0452202,139.26509 69.8131757,110.458716 105.175623,110.458716 C140.540824,110.458716 169.311533,139.26509 169.311533,174.674763 C169.311533,210.089951 140.540824,238.899083 105.175623,238.899083"/>
    <path fill="#01ADAB" d="M105.175621,280 C85.3194646,280 65.9759031,274.428316 49.2366535,263.886548 C46.0150231,261.858223 45.0477072,257.600121 47.0732832,254.374119 C49.0988592,251.148117 53.3511908,250.179489 56.5728211,252.207813 C71.112874,261.36149 87.9182648,266.201873 105.175621,266.201873 C155.575258,266.201873 196.577325,225.141408 196.577325,174.67062 C196.577325,124.208111 155.575258,83.1559248 105.175621,83.1559248 C54.7787396,83.1559248 13.7794284,124.208111 13.7794284,174.67062 C13.7794284,191.885163 18.5719136,208.652647 27.6387774,223.157237 C29.6588416,226.385999 28.6805022,230.644101 25.4533601,232.666906 C22.2317297,234.681433 17.9793981,233.710045 15.9593339,230.478523 C5.52003901,213.774511 0,194.476451 0,174.67062 C0,116.599824 47.1807628,69.3577982 105.175621,69.3577982 C163.173235,69.3577982 210.356754,116.599824 210.356754,174.67062 C210.356754,232.749695 163.173235,280 105.175621,280"/>
    <path fill="#01ADAB" d="M121.058971,166.972477 C119.292071,166.972477 117.527932,166.297932 116.17791,164.948843 C113.483388,162.2479 113.483388,157.874418 116.17791,155.173475 L225.510357,45.6954321 C228.20764,42.994489 232.575195,42.994489 235.269717,45.6954321 C237.967,48.3936107 237.967,52.7670927 235.269717,55.4680358 L125.940032,164.948843 C124.59001,166.297932 122.825871,166.972477 121.058971,166.972477"/>
    <path fill="#01ADAB" d="M13.8190912,76.6690147 L46.2101108,76.6690147 L66.7887459,56.0347906 L41.2894325,56.0347906 C37.482454,56.0347906 34.3977262,52.9417301 34.3977262,49.1244678 L34.3977262,23.7497623 L13.8190912,44.207082 L13.8190912,76.6690147 Z M49.0632772,90.4896604 L6.92738487,90.4896604 C3.12040631,90.4896604 0.0356785646,87.3965999 0.0356785646,83.5793375 L0.0356785646,41.3268595 C0.0356785646,39.4831853 0.771712798,37.7169068 2.07562363,36.4177661 L36.4376713,2.2614223 C38.411456,0.298890605 41.3666196,-0.287104773 43.9413611,0.790905592 C46.5078325,1.86615183 48.1811388,4.38150935 48.1811388,7.16775152 L48.1811388,42.2141449 L83.4253249,42.2141449 C86.2123309,42.2141449 88.7264254,43.9002637 89.7932615,46.4791962 C90.857341,49.0636569 90.2674109,52.0350958 88.2991396,54.0114481 L53.937092,88.4663179 C52.6442078,89.7599303 50.8909578,90.4896604 49.0632772,90.4896604 L49.0632772,90.4896604 Z" transform="translate(189.834)"/>
    <path fill="#FF4E00" d="M25.6532626 245.321101C25.6532626 240.357274 29.6769089 236.330275 34.6305489 236.330275 39.5869002 236.330275 43.6051238 240.357274 43.6105465 245.321101 43.6051238 250.290358 39.5869002 254.311927 34.6305489 254.311927 29.6769089 254.311927 25.6532626 250.290358 25.6532626 245.321101M96.1997349 175.963303C96.1997349 170.999476 100.223381 166.972477 105.177021 166.972477 110.133372 166.972477 114.151596 170.999476 114.157019 175.963303 114.151596 180.93256 110.133372 184.954128 105.177021 184.954128 100.223381 184.954128 96.1997349 180.93256 96.1997349 175.963303"/>
  </g>
</svg>
