<?xml version="1.0" encoding="utf-8"?>
<!-- Generator: Adobe Illustrator 16.2.1, SVG Export Plug-In . SVG Version: 6.00 Build 0)  -->
<!DOCTYPE svg PUBLIC "-//W3C//DTD SVG 1.1//EN" "http://www.w3.org/Graphics/SVG/1.1/DTD/svg11.dtd">
<svg version="1.1" id="Layer_3" xmlns="http://www.w3.org/2000/svg" xmlns:xlink="http://www.w3.org/1999/xlink" x="0px" y="0px"
	 width="148px" height="140px" viewBox="4.5 0 148 140" enable-background="new 4.5 0 148 140" xml:space="preserve">
<path fill="#FFBF2D" d="M124.471,121.799H32.53c-5.788,0-10.496-4.707-10.496-10.493V44.959c0-5.789,4.708-10.499,10.496-10.499
	h81.068c2.719,0,4.923,2.205,4.923,4.924s-2.204,4.924-4.923,4.924H32.53c-0.358,0-0.649,0.292-0.649,0.651v66.347
	c0,0.355,0.291,0.646,0.649,0.646h91.941c0.36,0,0.651-0.291,0.651-0.646V55.629c0-2.719,2.205-4.924,4.924-4.924
	s4.924,2.205,4.924,4.924v55.676C134.97,117.092,130.26,121.799,124.471,121.799z"/>
<path fill="#FFBF2D" d="M124.471,139.033H65.442c-2.719,0-4.924-2.205-4.924-4.924s2.205-4.924,4.924-4.924h59.029
	c9.86,0,17.881-8.021,17.881-17.88V44.959c0-9.859-8.021-17.88-17.881-17.88h-18.521l-1.068-3.475
	c-2.495-8.1-10.148-13.757-18.613-13.757H70.733c-8.468,0-16.123,5.657-18.619,13.757l-1.07,3.475H32.53
	c-9.86,0-17.882,8.021-17.882,17.88v66.347c0,9.859,8.022,17.88,17.882,17.88c2.719,0,4.923,2.205,4.923,4.924
	s-2.205,4.924-4.923,4.924c-15.29,0-27.729-12.439-27.729-27.728V44.959c0-15.289,12.439-27.728,27.729-27.728h11.485
	C48.712,6.79,59.034,0,70.733,0h15.534c11.696,0,22.016,6.79,26.713,17.231h11.49c15.288,0,27.729,12.438,27.729,27.728v66.347
	C152.199,126.594,139.759,139.033,124.471,139.033z"/>
<path fill="#FFBF2D" d="M98.361,40.433h-9.847v-11.11c0-1.238-1.007-2.244-2.247-2.244H70.733c-1.24,0-2.247,1.006-2.247,2.244
	v11.11h-9.847v-11.11c0-6.667,5.426-12.092,12.094-12.092h15.534c6.668,0,12.094,5.425,12.094,12.092V40.433z"/>
<path fill="#FFBF2D" d="M86.27,87.05H70.733c-6.668,0-12.094-5.423-12.094-12.092v-4.869h9.847v4.869
	c0,1.238,1.007,2.245,2.247,2.245H86.27c1.238,0,2.245-1.007,2.245-2.245v-4.869h9.847v4.869
	C98.361,81.627,92.938,87.05,86.27,87.05z"/>
<path fill="#FFBF2D" d="M124.477,73.024l-46.625-0.01l-45.321,0.01c-5.789,0-10.497-4.707-10.497-10.493
	c0-2.719,2.205-4.924,4.923-4.924c2.719,0,4.924,2.205,4.924,4.924c0,0.356,0.291,0.646,0.649,0.646l45.322-0.01l46.625,0.01
	c0.354,0,0.646-0.29,0.646-0.646c0-2.719,2.205-4.924,4.924-4.924s4.924,2.205,4.924,4.924
	C134.97,68.317,130.262,73.024,124.477,73.024z"/>
<path fill="#FF4E00" d="M42.767,134.092c0-3.261,2.642-5.907,5.908-5.907c3.261,0,5.905,2.646,5.905,5.907
	c0,3.264-2.645,5.908-5.905,5.908C45.409,140,42.767,137.355,42.767,134.092"/>
<path fill="#FF4E00" d="M122.304,40.861c0-3.261,2.645-5.908,5.91-5.908c3.261,0,5.905,2.647,5.905,5.908
	c0,3.261-2.645,5.908-5.905,5.908C124.948,46.769,122.304,44.122,122.304,40.861"/>
</svg>
