<?xml version="1.0" encoding="utf-8"?>
<!-- Generator: Adobe Illustrator 16.2.1, SVG Export Plug-In . SVG Version: 6.00 Build 0)  -->
<!DOCTYPE svg PUBLIC "-//W3C//DTD SVG 1.1//EN" "http://www.w3.org/Graphics/SVG/1.1/DTD/svg11.dtd">
<svg version="1.1" id="Layer_1" xmlns="http://www.w3.org/2000/svg" xmlns:xlink="http://www.w3.org/1999/xlink" x="0px" y="0px"
	 width="51px" height="45px" viewBox="0 0 51 45" enable-background="new 0 0 51 45" xml:space="preserve">
<circle fill="#FF4E00" cx="10.446" cy="16.791" r="1.745"/>
<circle fill="#FF4E00" cx="41.056" cy="28.209" r="1.745"/>
<path fill="#93C840" d="M48.868,12.117l-9.519-9.9c-2.054-2.13-5.156-2.794-7.907-1.688c-2.111,0.852-3.662,2.611-4.258,4.747
	L11.707,5.261c-2.169,0-3.934,1.765-3.934,3.933c0,2.169,1.765,3.934,3.933,3.934l21.69,0.015l0,0c0.368,0,0.722-0.146,0.981-0.406
	c0.261-0.26,0.407-0.613,0.407-0.982V8.818l7.986,8.307l-7.986,8.308V22.5c0-0.767-0.622-1.388-1.389-1.388H19.493v-3.131
	c0-0.877-0.525-1.655-1.34-1.982c-0.796-0.321-1.747-0.114-2.338,0.501l-9.512,9.895c-0.799,0.83-0.799,2.133,0,2.962l9.513,9.896
	c0.607,0.63,1.526,0.826,2.338,0.5c0.814-0.326,1.339-1.106,1.339-1.981v-3.135l20.302,0.013c0.637,0,1.156,0.52,1.156,1.157
	c0,0.639-0.52,1.158-1.155,1.158l-16.627-0.017h-0.001c-0.716,0-1.313,0.545-1.382,1.257c-0.158,1.653-1.218,3.069-2.764,3.692
	c-1.694,0.681-3.606,0.274-4.87-1.037L4.634,30.96c-0.801-0.833-1.242-1.928-1.242-3.085c0-1.156,0.441-2.251,1.244-3.086
	l3.349-3.482c0.531-0.552,0.514-1.431-0.04-1.962c-0.552-0.532-1.431-0.515-1.962,0.038l-3.348,3.482
	c-1.302,1.354-2.02,3.134-2.02,5.01c0,1.88,0.717,3.657,2.018,5.009l9.518,9.901C13.544,44.23,15.421,45,17.344,45
	c0.91,0,1.831-0.172,2.715-0.527c2.11-0.853,3.663-2.612,4.258-4.747l15.479,0.014c2.169,0,3.933-1.765,3.933-3.934
	c0-2.168-1.764-3.933-3.933-3.933l-21.689-0.014c0,0-0.001,0-0.001,0c-0.369,0-0.721,0.145-0.981,0.405
	c-0.26,0.26-0.407,0.613-0.407,0.982v2.936L8.73,27.875l7.986-8.306V22.5c0,0.766,0.622,1.388,1.388,1.388h13.904v3.13
	c0,0.877,0.524,1.655,1.339,1.983c0.256,0.103,0.524,0.153,0.798,0.153c0.578,0,1.14-0.238,1.541-0.655l9.512-9.894
	c0.798-0.83,0.798-2.132,0-2.962l-9.512-9.896c-0.608-0.63-1.525-0.827-2.339-0.5c-0.814,0.328-1.339,1.105-1.339,1.982v3.135
	l-20.302-0.014c-0.638,0-1.157-0.518-1.157-1.156c0-0.638,0.519-1.157,1.156-1.157l16.627,0.015c0.716,0,1.314-0.544,1.383-1.256
	c0.159-1.654,1.217-3.07,2.763-3.693c1.694-0.681,3.608-0.273,4.871,1.038l9.518,9.899c0.801,0.832,1.242,1.927,1.242,3.084
	c0,1.156-0.442,2.251-1.244,3.085l-3.348,3.482c-0.531,0.554-0.514,1.432,0.038,1.963c0.554,0.531,1.432,0.515,1.964-0.038
	l3.346-3.482c1.303-1.354,2.02-3.133,2.02-5.01C50.885,15.247,50.169,13.468,48.868,12.117z"/>
</svg>
