<?xml version="1.0" encoding="utf-8"?>
<!-- Generator: Adobe Illustrator 16.0.0, SVG Export Plug-In . SVG Version: 6.00 Build 0)  -->
<!DOCTYPE svg PUBLIC "-//W3C//DTD SVG 1.1//EN" "http://www.w3.org/Graphics/SVG/1.1/DTD/svg11.dtd">
<svg version="1.1" id="Layer_1" xmlns="http://www.w3.org/2000/svg" xmlns:xlink="http://www.w3.org/1999/xlink" x="0px" y="0px"
	 width="32px" height="25px" viewBox="0 0 32 25" enable-background="new 0 0 32 25" xml:space="preserve">
<g>
	<path fill="#FEBF2E" d="M30.365,4.549c-0.83,0-1.5,0.672-1.5,1.5l-0.055,15.547h-3.029H6.219H3.188L3.156,12.38l0.021-6.193
		l2.207,1.619l9.285,6.822c0.408,0.297,0.887,0.447,1.365,0.447s0.957-0.15,1.367-0.449l10.045-7.379
		c0.668-0.49,0.812-1.428,0.322-2.096S26.338,4.34,25.672,4.83l-9.637,7.078L7.16,5.389L3.934,3.021h21.273
		c0.828,0,1.5-0.672,1.5-1.5s-0.672-1.5-1.5-1.5H3.396C3.328,0.012,3.26,0,3.188,0C1.504,0,0.135,1.369,0.135,3.053v2.996v12.52
		v2.996c0,1.684,1.369,3.053,3.053,3.053c0.072,0,0.141-0.012,0.209-0.021h2.822h19.562h2.822c0.068,0.01,0.137,0.021,0.207,0.021
		c1.684,0,3.055-1.369,3.055-3.053V6.049C31.865,5.221,31.193,4.549,30.365,4.549z"/>
	<path fill="#F05223" d="M31.5,1.932c0,0.908-0.736,1.646-1.646,1.646s-1.646-0.738-1.646-1.646s0.736-1.646,1.646-1.646
		S31.5,1.023,31.5,1.932"/>
</g>
</svg>
