<?xml version="1.0" encoding="utf-8"?>
<!-- Generator: Adobe Illustrator 16.2.1, SVG Export Plug-In . SVG Version: 6.00 Build 0)  -->
<!DOCTYPE svg PUBLIC "-//W3C//DTD SVG 1.1//EN" "http://www.w3.org/Graphics/SVG/1.1/DTD/svg11.dtd">
<svg version="1.1" id="Layer_3" xmlns="http://www.w3.org/2000/svg" xmlns:xlink="http://www.w3.org/1999/xlink" x="0px" y="0px"
	 width="143px" height="140px" viewBox="7 0 143 140" enable-background="new 7 0 143 140" xml:space="preserve">
<g id="_x3C_Improving_x3E__1_">
	<path fill="#FFBF2D" d="M45.12,140c-2.025,0-3.982-0.902-5.292-2.496l-4.782-5.818c-0.539-0.111-1.075-0.242-1.607-0.389
		l-6.867,2.98c-2.256,0.98-4.88,0.672-6.846-0.809c-3.789-2.85-6.898-6.372-9.238-10.466c-0.245-0.428-0.48-0.863-0.708-1.305
		c-1.116-2.162-0.995-4.777,0.312-6.826l4.12-6.449c-0.016-0.164-0.031-0.328-0.043-0.49c-0.021-0.268-0.037-0.535-0.048-0.805
		l-4.974-5.633c-1.626-1.85-2.14-4.434-1.346-6.75c0.418-1.227,0.917-2.449,1.479-3.629c0.993-2.082,3.489-2.967,5.57-1.975
		c2.084,0.992,2.968,3.484,1.976,5.57c-0.299,0.627-0.575,1.271-0.822,1.92l5.416,6.135c0.698,0.789,1.072,1.816,1.044,2.871
		c-0.015,0.59-0.002,1.129,0.038,1.646c0.035,0.445,0.093,0.906,0.176,1.406c0.172,1.021-0.041,2.07-0.599,2.943l-4.465,6.99
		c0.043,0.076,0.087,0.154,0.131,0.23c1.63,2.852,3.753,5.336,6.32,7.4l7.467-3.242c0.959-0.416,2.042-0.457,3.031-0.115
		c1.082,0.373,2.201,0.645,3.327,0.807c1.033,0.148,1.974,0.678,2.636,1.482l5.192,6.319c3.313-0.672,6.402-1.955,9.206-3.821
		l-0.785-8.209c-0.098-1.027,0.188-2.053,0.8-2.883c0.656-0.885,1.232-1.836,1.715-2.822c0.459-0.941,1.255-1.676,2.23-2.059
		l7.572-2.967c0.178-1.629,0.205-3.264,0.08-4.875c-0.134-1.732-0.445-3.459-0.925-5.146l-8.1-1.801
		c-0.991-0.219-1.868-0.793-2.467-1.611c-0.572-0.783-1.22-1.531-1.926-2.225c-0.739-0.727-1.183-1.699-1.244-2.734l-0.489-8.227
		c-3.123-1.439-6.441-2.23-9.891-2.361l-4.207,7.127c-1.172,1.986-3.735,2.648-5.723,1.475c-1.987-1.172-2.648-3.734-1.475-5.723
		l4.655-7.887c1.229-2.08,3.488-3.367,5.901-3.367c0.01,0,0.02,0,0.029,0c5.35,0.029,10.473,1.254,15.231,3.639
		c2.176,1.09,3.622,3.279,3.768,5.715l0.451,7.584c0.225,0.25,0.445,0.504,0.659,0.762l7.501,1.668
		c2.372,0.527,4.303,2.291,5.039,4.605c0.817,2.555,1.337,5.203,1.543,7.861c0.194,2.508,0.111,5.053-0.248,7.566
		c-0.344,2.434-1.984,4.508-4.279,5.408l-6.966,2.73c-0.246,0.43-0.502,0.854-0.771,1.27l0.724,7.572
		c0.231,2.427-0.856,4.812-2.837,6.228c-4.264,3.041-9.049,5.029-14.225,5.906C45.882,139.969,45.5,140,45.12,140z"/>
	<path fill="#FFBF2D" d="M111.453,96.356c-1.406,0-2.747-0.711-3.526-1.936l-5.007-7.873c-3.247,0.24-6.499,0.066-9.68-0.508
		l-5.805,7.297c-1.129,1.418-3.043,1.947-4.74,1.309c-3.393-1.273-6.637-2.91-9.639-4.861c-3.002-1.951-5.814-4.252-8.359-6.84
		c-1.271-1.291-1.564-3.256-0.726-4.863l4.312-8.262c-1.827-2.685-3.297-5.575-4.394-8.643l-9.225-1.379
		c-1.791-0.268-3.205-1.658-3.504-3.443c-1.192-7.127-0.803-14.554,1.125-21.481c0.486-1.744,2.039-2.976,3.847-3.054l9.331-0.4
		c0.705-1.456,1.5-2.867,2.378-4.214c0.875-1.348,1.841-2.646,2.884-3.881l-3.421-8.689c-0.663-1.684-0.167-3.604,1.229-4.755
		c5.548-4.575,12.178-7.947,19.176-9.749c1.752-0.45,3.598,0.276,4.568,1.804l5.007,7.873c3.246-0.239,6.496-0.068,9.678,0.507
		l5.802-7.295c1.128-1.418,3.042-1.95,4.738-1.312c3.39,1.271,6.634,2.907,9.644,4.863c3.006,1.954,5.817,4.254,8.358,6.838
		c1.271,1.292,1.563,3.256,0.726,4.862l-4.312,8.265c1.828,2.684,3.299,5.577,4.396,8.643l9.226,1.378
		c1.79,0.268,3.206,1.658,3.505,3.444c1.192,7.128,0.804,14.556-1.126,21.483c-0.485,1.743-2.038,2.976-3.847,3.054l-9.33,0.399
		c-0.704,1.454-1.5,2.864-2.377,4.215c-0.878,1.349-1.844,2.647-2.886,3.88l3.421,8.689c0.663,1.684,0.168,3.602-1.229,4.754
		c-5.548,4.576-12.179,7.947-19.175,9.748C112.148,96.313,111.799,96.356,111.453,96.356z M105.052,77.933
		c1.415,0,2.752,0.719,3.525,1.936l4.71,7.408c3.799-1.283,7.419-3.121,10.681-5.428l-3.216-8.168
		c-0.603-1.529-0.252-3.269,0.895-4.446c1.385-1.421,2.634-2.981,3.711-4.639c1.077-1.656,1.996-3.431,2.73-5.271
		c0.61-1.527,2.06-2.555,3.703-2.625l8.772-0.376c0.782-3.917,0.994-7.971,0.623-11.965l-8.681-1.297
		c-1.629-0.244-2.963-1.421-3.406-3.006c-1.083-3.868-2.889-7.418-5.366-10.554c-1.021-1.292-1.188-3.064-0.428-4.524l4.056-7.774
		c-1.507-1.327-3.103-2.54-4.769-3.624c-1.669-1.084-3.427-2.051-5.25-2.888l-5.458,6.861c-1.024,1.29-2.71,1.854-4.307,1.447
		c-3.842-0.984-7.89-1.194-11.82-0.62c-1.634,0.237-3.247-0.503-4.131-1.893L86.916,9.08c-3.8,1.283-7.419,3.121-10.681,5.427
		l3.216,8.17c0.603,1.53,0.252,3.272-0.896,4.449c-1.385,1.42-2.632,2.979-3.708,4.635c-1.077,1.656-1.996,3.429-2.732,5.272
		c-0.61,1.527-2.06,2.555-3.702,2.625l-8.773,0.377c-0.782,3.917-0.993,7.97-0.623,11.963l8.68,1.298
		c1.628,0.244,2.962,1.421,3.406,3.007c1.083,3.868,2.888,7.419,5.365,10.553c1.022,1.293,1.189,3.063,0.427,4.524l-4.056,7.771
		c1.508,1.328,3.105,2.543,4.771,3.625c1.667,1.082,3.423,2.049,5.249,2.889l5.458-6.861c1.026-1.289,2.713-1.852,4.308-1.447
		c3.839,0.984,7.887,1.199,11.821,0.621C104.647,77.946,104.851,77.933,105.052,77.933z"/>
	<circle fill="#FF4E00" cx="20.888" cy="83.405" r="5.014"/>
	<circle fill="#FF4E00" cx="115.087" cy="35.524" r="5.015"/>
	<path fill="#FFBF2D" d="M100.058,72.187c-3.754,0-7.478-0.891-10.91-2.651c-0.743-0.382-1.472-0.804-2.163-1.254
		c-10.334-6.717-13.875-20.07-8.237-31.059c2.926-5.703,7.898-9.927,14.001-11.891c3.898-1.255,8.059-1.499,12.03-0.701
		c2.264,0.453,3.731,2.655,3.277,4.917c-0.453,2.263-2.657,3.736-4.918,3.277c-2.58-0.515-5.284-0.355-7.83,0.462
		c-3.976,1.28-7.218,4.033-9.124,7.751c-3.676,7.163-1.373,15.862,5.357,20.237c0.454,0.296,0.933,0.572,1.422,0.824
		c3.71,1.902,7.946,2.243,11.929,0.962c3.983-1.282,7.226-4.032,9.13-7.743c1.131-2.204,1.717-4.559,1.744-7.001
		c0.025-2.292,1.891-4.133,4.178-4.133c0.015,0,0.03,0,0.047,0c2.308,0.025,4.157,1.917,4.133,4.225
		c-0.041,3.749-0.938,7.357-2.666,10.725c-2.923,5.696-7.896,9.916-14.004,11.883C105.025,71.798,102.535,72.187,100.058,72.187z"/>
	<path fill="#FFBF2D" d="M40.726,118.774C40.726,118.774,40.726,118.774,40.726,118.774c-4.683,0-9.032-2.52-11.352-6.574
		c-3.574-6.252-1.396-14.244,4.854-17.82c1.969-1.125,4.205-1.719,6.466-1.719c4.683,0,9.033,2.518,11.353,6.574
		c1.73,3.025,2.177,6.545,1.26,9.914c-0.918,3.367-3.089,6.176-6.114,7.904C45.224,118.179,42.988,118.774,40.726,118.774z
		 M40.694,101.019c-0.821,0-1.601,0.207-2.318,0.617c-2.25,1.287-3.034,4.166-1.747,6.416c0.834,1.459,2.404,2.365,4.096,2.365h0
		c0.82,0,1.6-0.209,2.318-0.619c1.086-0.621,1.868-1.633,2.198-2.846c0.331-1.215,0.171-2.482-0.451-3.568
		C43.957,101.925,42.387,101.019,40.694,101.019z"/>
</g>
</svg>
