<?xml version="1.0" encoding="utf-8"?>
<!-- Generator: Adobe Illustrator 16.2.1, SVG Export Plug-In . SVG Version: 6.00 Build 0)  -->
<!DOCTYPE svg PUBLIC "-//W3C//DTD SVG 1.1//EN" "http://www.w3.org/Graphics/SVG/1.1/DTD/svg11.dtd">
<svg version="1.1" id="Layer_1" xmlns="http://www.w3.org/2000/svg" xmlns:xlink="http://www.w3.org/1999/xlink" x="0px" y="0px"
	 width="31px" height="26px" viewBox="0 0 31 26" enable-background="new 0 0 31 26" xml:space="preserve">
<path fill="#55ACEE" d="M30.881,3.459c-1.132,0.502-2.348,0.842-3.625,0.994c1.304-0.78,2.304-2.018,2.775-3.491
	c-1.22,0.723-2.57,1.248-4.008,1.531C24.873,1.267,23.232,0.5,21.417,0.5c-3.485,0-6.312,2.826-6.312,6.312
	c0,0.494,0.057,0.976,0.164,1.438C10.024,7.986,5.374,5.474,2.26,1.655C1.717,2.587,1.406,3.671,1.406,4.828
	c0,2.189,1.114,4.121,2.808,5.253c-1.034-0.032-2.007-0.316-2.858-0.789c0,0.026-0.001,0.053-0.001,0.079
	c0,3.058,2.176,5.609,5.063,6.188c-0.53,0.145-1.088,0.222-1.663,0.222c-0.407,0-0.802-0.04-1.188-0.113
	C4.371,18.175,6.701,20,9.462,20.051c-2.16,1.692-4.881,2.702-7.838,2.702c-0.51,0-1.012-0.03-1.506-0.088
	c2.794,1.79,6.11,2.835,9.675,2.835c11.608,0,17.957-9.617,17.957-17.957c0-0.273-0.006-0.546-0.018-0.816
	C28.965,5.837,30.036,4.725,30.881,3.459z"/>
</svg>
