<?xml version="1.0" encoding="UTF-8" standalone="no"?>
<svg width="13px" height="17px" viewBox="0 0 13 17" version="1.1" xmlns="http://www.w3.org/2000/svg" xmlns:xlink="http://www.w3.org/1999/xlink">
    <!-- Generator: Sketch 39.1 (31720) - http://www.bohemiancoding.com/sketch -->
    <title>58 - Settings</title>
    <desc>Created with Sketch.</desc>
    <defs></defs>
    <g id="Page-1" stroke="none" stroke-width="1" fill="none" fill-rule="evenodd">
        <g id="58---Settings" fill="#FFFFFF">
            <path d="M6.53724267,0 C5.00174205,0 3.75703602,1.24956077 3.75703602,2.79105031 C3.75703602,4.33253985 5.00174205,5.58210061 6.53724267,5.58210061 C8.07274329,5.58210061 9.31744932,4.33253985 9.31744932,2.79105031 C9.31744932,1.24956077 8.07274329,0 6.53724267,0 M11.4965302,16.5200005 C10.6665258,16.5200005 9.99371581,15.8445663 9.99371581,15.0113246 L9.99371581,13.0877629 C9.99371581,11.1535651 8.42628038,9.58009159 6.49959717,9.58009159 C4.5729891,9.58009159 3.00562881,11.1535651 3.00562881,13.0877629 L3.00562881,15.0113246 C3.00562881,15.8445663 2.3328188,16.5200005 1.50281441,16.5200005 C0.67281001,16.5200005 0,15.8445663 0,15.0113246 L0,13.0877629 C0,9.48987277 2.91576051,6.56273991 6.49959717,6.56273991 C10.0835841,6.56273991 12.9993446,9.48987277 12.9993446,13.0877629 L12.9993446,15.0113246 C12.9993446,15.8445663 12.3265346,16.5200005 11.4965302,16.5200005" id="Page-1"></path>
        </g>
    </g>
</svg>