<?xml version="1.0" encoding="UTF-8" standalone="no"?>
<svg width="13px" height="16px" viewBox="0 0 13 16" version="1.1" xmlns="http://www.w3.org/2000/svg" xmlns:xlink="http://www.w3.org/1999/xlink">
    <!-- Generator: sketchtool 39.1 (31720) - http://www.bohemiancoding.com/sketch -->
    <title>C67DB2FB-896E-41C4-8C4C-0EA438C6361D</title>
    <desc>Created with sketchtool.</desc>
    <defs></defs>
    <g id="Symbols" stroke="none" stroke-width="1" fill="none" fill-rule="evenodd">
        <g id="NV01_GlobalNav_var02_LoggedinMember_desktop1440" transform="translate(-1243.000000, -66.000000)" fill="#FF4E00">
            <g id="login" style="mix-blend-mode: multiply;" transform="translate(1231.000000, 57.000000)">
                <g id="dropdown-elements">
                    <g id="icons/Login-member-icon-Copy" transform="translate(10.000000, 9.000000)">
                        <path d="M12.4972046,0 C10.2664531,0 8.45816356,1.81534247 8.45816356,4.05479452 C8.45816356,6.29424658 10.2664531,8.10958904 12.4972046,8.10958904 C14.727956,8.10958904 16.5362456,6.29424658 16.5362456,4.05479452 C16.5362456,1.81534247 14.727956,0 12.4972046,0 M19.7019805,24 C18.496163,24 17.5187151,23.0187397 17.5187151,21.8082192 L17.5187151,19.0136986 C17.5187151,16.203726 15.2415692,13.9178082 12.4425138,13.9178082 C9.64356752,13.9178082 7.36653084,16.203726 7.36653084,19.0136986 L7.36653084,21.8082192 C7.36653084,23.0187397 6.38908291,24 5.18326542,24 C3.97744793,24 3,23.0187397 3,21.8082192 L3,19.0136986 C3,13.7867397 7.23597157,9.53424658 12.4425138,9.53424658 C17.6492743,9.53424658 21.8852459,13.7867397 21.8852459,19.0136986 L21.8852459,21.8082192 C21.8852459,23.0187397 20.907798,24 19.7019805,24" id="Page-1"></path>
                    </g>
                </g>
            </g>
        </g>
    </g>
</svg>