<?xml version="1.0" encoding="utf-8"?>
<!-- Generator: Adobe Illustrator 16.0.0, SVG Export Plug-In . SVG Version: 6.00 Build 0)  -->
<!DOCTYPE svg PUBLIC "-//W3C//DTD SVG 1.1//EN" "http://www.w3.org/Graphics/SVG/1.1/DTD/svg11.dtd">
<svg width="60px" height="60px" viewBox="30 33 60 60" version="1.1" xmlns="http://www.w3.org/2000/svg" xmlns:xlink="http://www.w3.org/1999/xlink">
    <!-- Generator: Sketch 39.1 (31720) - http://www.bohemiancoding.com/sketch -->
    <desc>Created with Sketch.</desc>
    <defs>
        <polygon id="path-1" points="29.7687659 59.8302439 0 59.8302439 0 0.292682927 29.7687659 0.292682927 59.5375317 0.292682927 59.5375317 59.8302439"></polygon>
    </defs>
    <g id="understand-and-manage-icon" stroke="none" stroke-width="1" fill="none" fill-rule="evenodd" transform="translate(30.000000, 33.000000)">
        <path d="M12.9244976,22.6989659 C12.1164,22.6989659 11.4610829,22.0436488 11.4610829,21.2355512 L11.4610829,14.1769171 C11.4610829,13.3688195 12.1164,12.7135024 12.9244976,12.7135024 C13.7325951,12.7135024 14.3879122,13.3688195 14.3879122,14.1769171 L14.3879122,21.2355512 C14.3879122,22.0436488 13.7325951,22.6989659 12.9244976,22.6989659" id="Fill-1" fill="#FFBF2D"></path>
        <path d="M21.2505366,15.6144 C20.1043902,15.6144 19.1719024,16.5468878 19.1719024,17.6933268 C19.1719024,18.8394732 20.1043902,19.7722537 21.2505366,19.7722537 C22.3969756,19.7722537 23.3294634,18.8394732 23.3294634,17.6933268 C23.3294634,16.5468878 22.3969756,15.6144 21.2505366,15.6144 M21.2505366,22.6990829 C18.4905366,22.6990829 16.2450732,20.4533268 16.2450732,17.6933268 C16.2450732,14.9330341 18.4905366,12.6875707 21.2505366,12.6875707 C24.0108293,12.6875707 26.2562927,14.9330341 26.2562927,17.6933268 C26.2562927,20.4533268 24.0108293,22.6990829 21.2505366,22.6990829" id="Fill-3" fill="#FFBF2D"></path>
        <path d="M29.6896098,22.6989659 C28.8815122,22.6989659 28.2261951,22.0436488 28.2261951,21.2355512 L28.2261951,14.1769171 C28.2261951,13.3688195 28.8815122,12.7135024 29.6896098,12.7135024 C30.498,12.7135024 31.1530244,13.3688195 31.1530244,14.1769171 L31.1530244,21.2355512 C31.1530244,22.0436488 30.498,22.6989659 29.6896098,22.6989659" id="Fill-5" fill="#FFBF2D"></path>
        <path d="M35.0162049,22.6989659 C34.2078146,22.6989659 33.5527902,22.0436488 33.5527902,21.2355512 L33.5527902,14.1769171 C33.5527902,13.3688195 34.2078146,12.7135024 35.0162049,12.7135024 C35.8245951,12.7135024 36.4796195,13.3688195 36.4796195,14.1769171 L36.4796195,21.2355512 C36.4796195,22.0436488 35.8245951,22.6989659 35.0162049,22.6989659" id="Fill-7" fill="#FFBF2D"></path>
        <path d="M43.3422146,15.6144 C42.1960683,15.6144 41.2635805,16.5468878 41.2635805,17.6933268 C41.2635805,18.8394732 42.1960683,19.7722537 43.3422146,19.7722537 C44.4886537,19.7722537 45.4214341,18.8394732 45.4214341,17.6933268 C45.4214341,16.5468878 44.4886537,15.6144 43.3422146,15.6144 M43.3422146,22.6990829 C40.5822146,22.6990829 38.3367512,20.4533268 38.3367512,17.6933268 C38.3367512,14.9330341 40.5822146,12.6875707 43.3422146,12.6875707 C46.1025073,12.6875707 48.3482634,14.9330341 48.3482634,17.6933268 C48.3482634,20.4533268 46.1025073,22.6990829 43.3422146,22.6990829" id="Fill-9" fill="#FFBF2D"></path>
        <path d="M13.2521854,47.7925171 C12.4440878,47.7925171 11.7887707,47.1374927 11.7887707,46.3291024 L11.7887707,39.2704683 C11.7887707,38.462078 12.4440878,37.8070537 13.2521854,37.8070537 C14.0602829,37.8070537 14.7156,38.462078 14.7156,39.2704683 L14.7156,46.3291024 C14.7156,47.1374927 14.0602829,47.7925171 13.2521854,47.7925171" id="Fill-11" fill="#FFBF2D"></path>
        <path d="M21.5782244,40.7078049 C20.432078,40.7078049 19.4995902,41.6405854 19.4995902,42.7870244 C19.4995902,43.9331707 20.432078,44.8656585 21.5782244,44.8656585 C22.7246634,44.8656585 23.6571512,43.9331707 23.6571512,42.7870244 C23.6571512,41.6405854 22.7246634,40.7078049 21.5782244,40.7078049 M21.5782244,47.7924878 C18.8182244,47.7924878 16.572761,45.5470244 16.572761,42.7870244 C16.572761,40.0267317 18.8182244,37.7809756 21.5782244,37.7809756 C24.3385171,37.7809756 26.5839805,40.0267317 26.5839805,42.7870244 C26.5839805,45.5470244 24.3385171,47.7924878 21.5782244,47.7924878" id="Fill-13" fill="#FFBF2D"></path>
        <path d="M30.0174439,47.7925171 C29.2093463,47.7925171 28.5540293,47.1374927 28.5540293,46.3291024 L28.5540293,39.2704683 C28.5540293,38.462078 29.2093463,37.8070537 30.0174439,37.8070537 C30.8258341,37.8070537 31.4808585,38.462078 31.4808585,39.2704683 L31.4808585,46.3291024 C31.4808585,47.1374927 30.8258341,47.7925171 30.0174439,47.7925171" id="Fill-15" fill="#FFBF2D"></path>
        <path d="M38.3434537,40.7078049 C37.1973073,40.7078049 36.2645268,41.6405854 36.2645268,42.7870244 C36.2645268,43.9331707 37.1973073,44.8656585 38.3434537,44.8656585 C39.4896,44.8656585 40.4223805,43.9331707 40.4223805,42.7870244 C40.4223805,41.6405854 39.4896,40.7078049 38.3434537,40.7078049 M38.3434537,47.7924878 C35.583161,47.7924878 33.3376976,45.5470244 33.3376976,42.7870244 C33.3376976,40.0267317 35.583161,37.7809756 38.3434537,37.7809756 C41.1037463,37.7809756 43.3492098,40.0267317 43.3492098,42.7870244 C43.3492098,45.5470244 41.1037463,47.7924878 38.3434537,47.7924878" id="Fill-17" fill="#FFBF2D"></path>
        <path d="M46.4894341,47.7925171 C45.6810439,47.7925171 45.0260195,47.1374927 45.0260195,46.3291024 L45.0260195,39.2704683 C45.0260195,38.462078 45.6810439,37.8070537 46.4894341,37.8070537 C47.2978244,37.8070537 47.9528488,38.462078 47.9528488,39.2704683 L47.9528488,46.3291024 C47.9528488,47.1374927 47.2978244,47.7925171 46.4894341,47.7925171" id="Fill-19" fill="#FFBF2D"></path>
        <path d="M15.4770439,28.1611902 C14.3308976,28.1611902 13.3984098,29.0939707 13.3984098,30.2401171 C13.3984098,31.3862634 14.3308976,32.3190439 15.4770439,32.3190439 C16.6234829,32.3190439 17.5559707,31.3862634 17.5559707,30.2401171 C17.5559707,29.0939707 16.6234829,28.1611902 15.4770439,28.1611902 M15.4770439,35.2458732 C12.7170439,35.2458732 10.4715805,33.0004098 10.4715805,30.2401171 C10.4715805,27.4798244 12.7170439,25.234361 15.4770439,25.234361 C18.2373366,25.234361 20.4828,27.4798244 20.4828,30.2401171 C20.4828,33.0004098 18.2373366,35.2458732 15.4770439,35.2458732" id="Fill-21" fill="#FFBF2D"></path>
        <path d="M23.951122,35.2457268 C23.1430244,35.2457268 22.4877073,34.5907024 22.4877073,33.7823122 L22.4877073,26.723678 C22.4877073,25.9155805 23.1430244,25.2602634 23.951122,25.2602634 C24.7592195,25.2602634 25.4145366,25.9155805 25.4145366,26.723678 L25.4145366,33.7823122 C25.4145366,34.5907024 24.7592195,35.2457268 23.951122,35.2457268" id="Fill-23" fill="#FFBF2D"></path>
        <path d="M32.277161,28.1611902 C31.1310146,28.1611902 30.1985268,29.0939707 30.1985268,30.2401171 C30.1985268,31.3862634 31.1310146,32.3190439 32.277161,32.3190439 C33.4233073,32.3190439 34.3560878,31.3862634 34.3560878,30.2401171 C34.3560878,29.0939707 33.4233073,28.1611902 32.277161,28.1611902 M32.277161,35.2458732 C29.517161,35.2458732 27.2716976,33.0004098 27.2716976,30.2401171 C27.2716976,27.4798244 29.517161,25.234361 32.277161,25.234361 C35.0374537,25.234361 37.2829171,27.4798244 37.2829171,30.2401171 C37.2829171,33.0004098 35.0374537,35.2458732 32.277161,35.2458732" id="Fill-25" fill="#FFBF2D"></path>
        <path d="M43.4954341,28.1611902 C42.3492878,28.1611902 41.4168,29.0939707 41.4168,30.2401171 C41.4168,31.3862634 42.3492878,32.3190439 43.4954341,32.3190439 C44.6418732,32.3190439 45.5746537,31.3862634 45.5746537,30.2401171 C45.5746537,29.0939707 44.6418732,28.1611902 43.4954341,28.1611902 M43.4954341,35.2458732 C40.7354341,35.2458732 38.4899707,33.0004098 38.4899707,30.2401171 C38.4899707,27.4798244 40.7354341,25.234361 43.4954341,25.234361 C46.2557268,25.234361 48.5014829,27.4798244 48.5014829,30.2401171 C48.5014829,33.0004098 46.2557268,35.2458732 43.4954341,35.2458732" id="Fill-27" fill="#FFBF2D"></path>
        <path d="M56.3180195,10.518878 C56.3180195,9.5495122 57.1047512,8.7624878 58.0744098,8.7624878 C59.044361,8.7624878 59.8302146,9.5495122 59.8302146,10.518878 C59.8302146,11.4882439 59.044361,12.2746829 58.0744098,12.2746829 C57.1047512,12.2746829 56.3180195,11.4882439 56.3180195,10.518878" id="Fill-29" fill="#F06A2C"></path>
        <path d="M4.68292683,42.2921268 C4.68292683,41.3224683 5.46965854,40.5357366 6.43931707,40.5357366 C7.40926829,40.5357366 8.19512195,41.3224683 8.19512195,42.2921268 C8.19512195,43.2614927 7.40926829,44.0479317 6.43931707,44.0479317 C5.46965854,44.0479317 4.68292683,43.2614927 4.68292683,42.2921268" id="Fill-31" fill="#F06A2C"></path>
        <mask id="mask-2" fill="white">
            <use xlink:href="#path-1"></use>
        </mask>
        <g id="Clip-34"></g>
        <path d="M53.915678,59.8302439 L5.62211707,59.8302439 C2.52201951,59.8302439 -2.92682962e-05,57.3084878 -2.92682962e-05,54.2083902 L-2.92682962e-05,5.91482927 C-2.92682962e-05,2.81473171 2.52201951,0.292682927 5.62211707,0.292682927 L53.915678,0.292682927 C56.9759707,0.292682927 59.4977268,2.78165854 59.537239,5.84136585 C59.5474829,6.64946341 58.9006537,7.31297561 58.0925561,7.3235122 L58.0735317,7.3235122 C57.273922,7.3235122 56.6206537,6.68078049 56.6104098,5.87882927 C56.5919707,4.4124878 55.3828976,3.2195122 53.915678,3.2195122 L5.62211707,3.2195122 C4.13587317,3.2195122 2.9268,4.42858537 2.9268,5.91482927 L2.9268,54.2083902 C2.9268,55.6943415 4.13587317,56.9034146 5.62211707,56.9034146 L53.915678,56.9034146 C55.4016293,56.9034146 56.6107024,55.6943415 56.6107024,54.2083902 L56.6107024,15.1770732 C56.6107024,14.3689756 57.2657268,13.7136585 58.0741171,13.7136585 C58.8825073,13.7136585 59.5375317,14.3689756 59.5375317,15.1770732 L59.5375317,54.2083902 C59.5375317,57.3084878 57.0157756,59.8302439 53.915678,59.8302439" id="Fill-33" fill="#FDBB16" mask="url(#mask-2)"></path>
        <path d="M53.0985073,54.8546341 L6.43899512,54.8546341 C5.63089756,54.8546341 4.97558049,54.1996098 4.97558049,53.3912195 L4.97558049,46.9501463 C4.97558049,46.1417561 5.63089756,45.4867317 6.43899512,45.4867317 C7.24709268,45.4867317 7.90240976,46.1417561 7.90240976,46.9501463 L7.90240976,51.9278049 L51.6350927,51.9278049 L51.6350927,8.19512195 L7.90240976,8.19512195 L7.90240976,37.6331707 C7.90240976,38.441561 7.24709268,39.0965854 6.43899512,39.0965854 C5.63089756,39.0965854 4.97558049,38.441561 4.97558049,37.6331707 L4.97558049,6.73170732 C4.97558049,5.92360976 5.63089756,5.26829268 6.43899512,5.26829268 L53.0985073,5.26829268 C53.9068976,5.26829268 54.561922,5.92360976 54.561922,6.73170732 L54.561922,53.3912195 C54.561922,54.1996098 53.9068976,54.8546341 53.0985073,54.8546341" id="Fill-36" fill="#FDBB16" mask="url(#mask-2)"></path>
    </g>
</svg>
