<?xml version="1.0" encoding="utf-8"?>
<!-- Generator: Adobe Illustrator 16.0.0, SVG Export Plug-In . SVG Version: 6.00 Build 0)  -->
<!DOCTYPE svg PUBLIC "-//W3C//DTD SVG 1.1//EN" "http://www.w3.org/Graphics/SVG/1.1/DTD/svg11.dtd">
<svg width="48px" height="60px" viewBox="37 33 48 60" version="1.1" xmlns="http://www.w3.org/2000/svg" xmlns:xlink="http://www.w3.org/1999/xlink">
    <!-- Generator: Sketch 39.1 (31720) - http://www.bohemiancoding.com/sketch -->
    <desc>Created with Sketch.</desc>
    <defs></defs>
    <g id="icon" stroke="none" stroke-width="1" fill="none" fill-rule="evenodd" transform="translate(37.000000, 33.000000)">
        <path d="M2.10559375,55.1829687 C2.10559375,53.9601562 3.09758239,52.9670597 4.32187216,52.9670597 C5.5454233,52.9670597 6.53704261,53.9601562 6.53704261,55.1829687 C6.53704261,56.4068892 5.5454233,57.3988778 4.32187216,57.3988778 C3.09758239,57.3988778 2.10559375,56.4068892 2.10559375,55.1829687 M10.1614943,49.3039773 L10.1581705,44.0308523 C10.1581705,39.3128125 12.5727727,35.1624148 16.2434261,32.7540909 L21.7898466,43.3546307 L21.7898466,49.3039773 L10.1614943,49.3039773 Z M27.679733,31.1682386 L23.6364375,38.9113636 L19.5935114,31.1682386 C20.869875,30.7671591 22.227858,30.5503693 23.6364375,30.5503693 C25.045017,30.5503693 26.4037386,30.7671591 27.679733,31.1682386 L27.679733,31.1682386 Z M40.0267784,38.6162784 C39.7058409,37.6479261 38.6141364,37.124233 37.646892,37.4459091 C36.6789091,37.7672159 36.2235398,38.8123864 36.5448466,39.78 C37.0013239,41.1549716 37.3012102,42.5849716 37.3012102,44.030483 L37.3012102,49.3039773 L25.4830284,49.3039773 L25.4830284,43.3568466 L31.8936534,31.0755398 L31.9261534,31.0596591 C32.391125,30.1522443 32.033625,29.03875 31.1262102,28.5734091 C30.9999034,28.5084091 30.5341932,28.3026989 30.4204432,28.2535795 C28.270642,27.3269602 26.079108,26.8571875 23.7291364,26.8571875 C14.2609261,26.8571875 6.64780114,34.5607955 6.64780114,44.030483 L6.64780114,49.2899432 C6.64780114,51.3315341 8.129875,52.9971591 10.1707273,52.9971591 L37.1102727,52.9971591 C39.1503864,52.9971591 40.994392,51.3315341 40.994392,49.2899432 L40.994392,44.030483 C40.994392,42.1886932 40.6077159,40.3672159 40.0267784,38.6162784 L40.0267784,38.6162784 Z M47.2728011,44.030483 L47.2728011,49.2899432 C47.2728011,54.8954545 42.7143068,59.4557955 37.1102727,59.4557955 C37.1102727,59.4557955 9.79660795,59.4661364 9.61121023,59.4557955 C8.593,59.400767 7.81226136,58.5136648 7.86802841,57.4954545 C7.92342614,56.4772443 8.79353977,55.6983523 9.81211932,55.7626136 C9.93103977,55.7692614 37.1102727,55.7626136 37.1102727,55.7626136 C40.6771477,55.7626136 43.5796193,52.8590341 43.5796193,49.2899432 L43.5796193,44.030483 C43.5796193,36.8372727 39.6674318,30.1707102 33.3687102,26.6322727 C32.8860114,26.3611932 32.5510398,25.8877273 32.455017,25.3422443 C32.3593636,24.7971307 32.513,24.2372443 32.8741932,23.8176989 C34.7776591,21.6058523 35.8257841,18.7872159 35.8257841,15.8806818 C35.8257841,9.16056818 30.3591364,3.69318182 23.6401307,3.69318182 C16.9207557,3.69318182 11.4544773,9.16056818 11.4544773,15.8806818 C11.4544773,18.7872159 12.5026023,21.6058523 14.4060682,23.8176989 C14.7672614,24.2372443 14.9208977,24.7967614 14.824875,25.3422443 C14.7292216,25.887358 14.3935114,26.3608239 13.9108125,26.6322727 C7.61209091,30.1707102 3.69916477,36.8372727 3.69916477,44.030483 C3.69916477,44.030483 3.69103977,49.563608 3.69916477,49.6987784 C3.7626875,50.7166193 3.00410795,51.5933807 1.98626705,51.6569034 C0.972119318,51.7230114 0.0695056818,50.9467045 0.00598295455,49.9288636 C-0.0073125,49.7172443 0.00598295455,44.030483 0.00598295455,44.030483 C0.00598295455,36.2035227 3.91263068,28.9035795 10.324733,24.5164489 C8.66095455,21.9555966 7.76166477,18.9563636 7.76166477,15.8806818 C7.76166477,7.12414773 14.8847045,0 23.6401307,0 C32.3955568,0 39.5185966,7.12414773 39.5185966,15.8806818 C39.5185966,18.9563636 38.6193068,21.9555966 36.9555284,24.5168182 C43.366892,28.9039489 47.2728011,36.2035227 47.2728011,44.030483 L47.2728011,44.030483 Z M17.9164375,15.8806818 C17.9164375,12.7241193 20.4839375,10.15625 23.6401307,10.15625 C26.7963239,10.15625 29.3638239,12.7241193 29.3638239,15.8806818 C29.3638239,19.0372443 26.7963239,21.6051136 23.6401307,21.6051136 C20.4839375,21.6051136 17.9164375,19.0372443 17.9164375,15.8806818 L17.9164375,15.8806818 Z M33.056267,15.8806818 C33.056267,10.6876989 28.832375,6.46306818 23.6401307,6.46306818 C18.4478864,6.46306818 14.2239943,10.6876989 14.2239943,15.8806818 C14.2239943,21.0736648 18.4478864,25.2982955 23.6401307,25.2982955 C28.832375,25.2982955 33.056267,21.0736648 33.056267,15.8806818 L33.056267,15.8806818 Z M35.2736903,36.2783097 C36.4972415,36.2783097 37.4888608,35.286321 37.4888608,34.0624006 C37.4888608,32.8395881 36.4972415,31.8464915 35.2736903,31.8464915 C34.0490312,31.8464915 33.0570426,32.8395881 33.0570426,34.0624006 C33.0570426,35.286321 34.0490312,36.2783097 35.2736903,36.2783097" id="Fill-1" fill="#FFBF2D"></path>
    </g>
</svg>