<svg version="1.1" xmlns="http://www.w3.org/2000/svg" xmlns:xlink="http://www.w3.org/1999/xlink" width="54px" height="19px" viewBox="0 0 54 19">
	<g transform="translate(-63.000000, -383.000000)" fill="#D8D8D8">
		<g transform="translate(32.000000, 375.000000)">
			<path fill="#e8e8e9" d="M70.7821095,20.6707106 C72.8542413,23.2582196 77.1458034,25.9600887 80.4476499,26.2853381 C80.4476499,26.2853381 77.1241425,26.4144169 83.5993424,26.3469318 C90.0745423,26.2794467 64.6044068,26.3266051 64.6044068,26.3266051 C61.293863,26.3318696 55.9241305,26.334977 52.6061775,26.3335438 C52.6061775,26.3335438 25.6243856,26.3218886 30.6222267,26.3240475 C35.6200678,26.3262064 35.9878315,26.1611 35.9878315,26.1611 C39.2938021,25.924565 43.6635313,23.6441103 45.741833,21.0750548 L54.7200998,9.97673099 C56.8011154,7.40432077 60.1674317,7.41596762 62.2400385,10.0040698 L70.7821095,20.6707106 Z"></path>
		</g>
	</g>
</svg>