<?xml version="1.0" encoding="utf-8"?>
<!-- Generator: Adobe Illustrator 16.0.0, SVG Export Plug-In . SVG Version: 6.00 Build 0)  -->
<!DOCTYPE svg PUBLIC "-//W3C//DTD SVG 1.1//EN" "http://www.w3.org/Graphics/SVG/1.1/DTD/svg11.dtd">
<svg version="1.1" id="Logo" xmlns="http://www.w3.org/2000/svg" xmlns:xlink="http://www.w3.org/1999/xlink" x="0px" y="0px"
	 width="171px" height="42px" viewBox="0 0 171 42" enable-background="new 0 0 171 42" xml:space="preserve">
<path fill="#FFFFFF" d="M11.609,40.121C4.018,31.172,0.553,13.692,0.516,13.483c-0.075-0.424,0.112-0.949,0.899-0.949h4.896
	c0.499,0,0.814,0.249,0.921,0.749c1.967,9.18,5.743,17.971,7.545,20.445c1.802-2.475,5.578-11.266,7.545-20.445
	c0.107-0.5,0.423-0.749,0.921-0.749h4.896c0.787,0,0.975,0.525,0.899,0.949c-0.037,0.208-3.502,17.688-11.094,26.638
	c-0.846,0.998-1.856,1.498-3.167,1.498C13.465,41.619,12.455,41.119,11.609,40.121z M36.364,0.094c-2.195,0-3.974,1.779-3.974,3.975
	c0,2.194,1.779,3.974,3.974,3.974c2.195,0,3.974-1.779,3.974-3.974C40.338,1.873,38.559,0.094,36.364,0.094z M73.858,0.094
	c-2.195,0-3.974,1.779-3.974,3.975c0,2.194,1.779,3.974,3.974,3.974c2.195,0,3.974-1.779,3.974-3.974
	C77.832,1.873,76.053,0.094,73.858,0.094z M38.611,12.534h-4.493c-0.691,0-1.037,0.327-1.037,0.979v26.838
	c0,0.653,0.345,0.979,1.037,0.979h4.493c0.691,0,1.036-0.326,1.036-0.979V13.513C39.647,12.861,39.302,12.534,38.611,12.534z
	 M76.104,12.534h-4.493c-0.691,0-1.037,0.327-1.037,0.979v26.838c0,0.653,0.346,0.979,1.037,0.979h4.493
	c0.69,0,1.036-0.326,1.036-0.979V13.513C77.141,12.861,76.795,12.534,76.104,12.534z M111.062,40.352c0,0.654,0.347,0.98,1.037,0.98
	h4.492c0.691,0,1.037-0.326,1.037-0.98V18.639c1.342-0.911,5.535-2.325,8.583-0.533c1.849,1.087,2.546,4.052,2.532,7.501
	l-0.001,14.744c0,0.653,0.346,0.979,1.036,0.979h4.494c0.689,0,1.035-0.326,1.035-0.979V25.146c0-8.984-4.107-13.523-12.324-13.592
	c-3.979-0.033-8.389,1.494-10.713,3.513c-0.801,0.697-1.209,1.537-1.209,2.534V40.352L111.062,40.352z M156.146,17.891
	c0.653,0,0.979-0.346,0.979-1.037v-3.291c0-0.691-0.325-1.028-0.979-1.028h-7.025v-6.73c0-0.652-0.346-0.979-1.036-0.979h-4.493
	c-0.691,0-1.035,0.327-1.035,0.979v6.73h-3.744c-0.652,0-0.979,0.337-0.979,1.028v3.291c0,0.691,0.326,1.037,0.979,1.037h3.744
	v13.823c0,4.113,1.533,6.373,2.303,7.259c0.768,0.883,2.722,2.832,6.682,2.819c3.529-0.008,6.436-1.957,7.66-3.226
	c0.482-0.5,0.4-0.784,0.137-1.131c-0.074-0.096-2.268-2.957-2.268-2.957c-0.322-0.446-0.879-0.422-1.211-0.117
	c-0.787,0.65-2.467,2.091-4.736,1.246c-1.65-0.612-2.001-2.455-2.001-3.836v-13.88H156.146z M100.352,29.064h-11.98
	c0,3.815,2.636,7.199,6.911,7.199c2.61,0,4.954-0.902,7.026-2.709c0.693-0.693,1.193,0.096,1.211,0.116c0,0,2.022,2.863,2.303,3.254
	c0.072,0.125,0.174,0.433-0.287,0.894c-2.729,2.727-6.202,4.088-10.426,4.088c-8.713,0-13.188-7.115-13.188-15.203
	c0-9.716,6.225-15.148,13.305-15.148c6.092,0,11.402,4.653,11.402,11.115C106.629,26.932,104.535,29.064,100.352,29.064z
	 M100.581,22.498c0-2.25-1.401-5.59-5.597-5.59c-1.574,0-5.686,0.612-6.324,6.914h10.712
	C100.178,23.822,100.581,23.383,100.581,22.498z M65.333,41.332c0.654,0,0.979-0.346,0.979-1.037v-3.627
	c0-0.691-0.326-1.037-0.979-1.037l-13.591-0.002c1.308-3.314,9.677-11.383,12.556-15.981c1.069-1.708,1.612-3.027,1.612-3.888
	c0-0.998-0.479-3.225-3.859-3.225H46.094c-0.652,0-0.979,0.346-0.979,1.037v3.571c0,0.69,0.327,1.036,0.979,1.036H58.25
	c-0.61,1.178-8.674,9.787-11.663,14.917c-0.785,1.348-1.872,3.488-1.872,5.125c0,2.074,1.229,3.111,3.687,3.111H65.333z"/>
<g id="TM">
	<path fill="#FFFFFF" d="M166.034,36.928l-0.074,0.514h-1.354v3.892h-0.612v-3.892h-1.423l0.074-0.514H166.034z M167.284,36.928
		l1.317,2.695l1.293-2.695h0.604v4.404h-0.587v-3.354l-1.077,2.27h-0.481l-1.088-2.232v3.316h-0.582v-4.404H167.284z"/>
</g>
</svg>
