<?xml version="1.0" encoding="UTF-8" standalone="no"?>
<svg width="21px" height="25px" viewBox="0 0 21 25" version="1.1" xmlns="http://www.w3.org/2000/svg" xmlns:xlink="http://www.w3.org/1999/xlink">
    <!-- Generator: Sketch 39.1 (31720) - http://www.bohemiancoding.com/sketch -->
    <title>Acrobat</title>
    <desc>Created with Sketch.</desc>
    <defs></defs>
    <g id="Selected-Templates" stroke="none" stroke-width="1" fill="none" fill-rule="evenodd" stroke-linecap="round" stroke-linejoin="round">
        <g id="Search-Icons" transform="translate(-189.000000, -44.000000)" stroke="#FF4E00">
            <g id="Acrobat" transform="translate(190.000000, 45.000000)">
                <polygon id="Stroke-1340" points="19 23 0 23 0 0 13 0 19 6"></polygon>
                <polyline id="Stroke-1341" points="13 0 13 6 19 6"></polyline>
                <path d="M5.1127948,7.54023568 C4.4167948,6.39423568 6.0817948,5.33623568 6.5167948,6.51623568 C7.2627948,8.53323568 8.4607948,13.9922357 5.7577948,17.7022357 C5.0037948,18.7362357 3.3767948,17.7572357 4.2517948,16.6792357 C5.6157948,15.0002357 9.4157948,11.8102357 14.4437948,12.0062357 C15.8077948,12.0582357 15.7377948,13.9962357 14.5167948,13.8472357 C12.5387948,13.6032357 8.1457948,12.5322357 5.1127948,7.54023568 L5.1127948,7.54023568 Z" id="Stroke-1342"></path>
            </g>
        </g>
    </g>
</svg>