<?xml version="1.0" encoding="UTF-8" standalone="no"?>
<svg width="21px" height="25px" viewBox="0 0 21 25" version="1.1" xmlns="http://www.w3.org/2000/svg" xmlns:xlink="http://www.w3.org/1999/xlink">
    <!-- Generator: Sketch 39.1 (31720) - http://www.bohemiancoding.com/sketch -->
    <title>Doc</title>
    <desc>Created with Sketch.</desc>
    <defs></defs>
    <g id="Selected-Templates" stroke="none" stroke-width="1" fill="none" fill-rule="evenodd" stroke-linecap="round" stroke-linejoin="round">
        <g id="Search-Icons" transform="translate(-377.000000, -44.000000)" stroke="#FF4E00">
            <g id="Doc" transform="translate(378.000000, 45.000000)">
                <polygon id="Stroke-3251" points="19 23 0 23 0 0 13 0 19 6"></polygon>
                <polyline id="Stroke-3252" points="13 0 13 6 19 6"></polyline>
                <path d="M15.707,14.24 C15.547,13.496 15.186,13 14.41,13 C13.209,13 13,14.036 13,15.501 C13,16.965 13.209,18.001 14.41,18.001 C15.186,18.001 15.547,17.505 15.707,16.76" id="Stroke-3253"></path>
                <path d="M11,15.5 C11,16.962 10.748,18 9.5,18 C8.251,18 8,16.962 8,15.5 C8,14.036 8.251,13 9.5,13 C10.748,13 11,14.036 11,15.5 L11,15.5 Z" id="Stroke-3254"></path>
                <path d="M3,18 L3,13 L4,13 C5.152,13 6,14.068 6,15.5 C6,16.933 5.152,18 4,18 L3,18 L3,18 Z" id="Stroke-3255"></path>
            </g>
        </g>
    </g>
</svg>