<?xml version="1.0" encoding="UTF-8" standalone="no"?>
<svg width="21px" height="25px" viewBox="0 0 21 25" version="1.1" xmlns="http://www.w3.org/2000/svg" xmlns:xlink="http://www.w3.org/1999/xlink">
    <!-- Generator: Sketch 39.1 (31720) - http://www.bohemiancoding.com/sketch -->
    <title>Excel</title>
    <desc>Created with Sketch.</desc>
    <defs></defs>
    <g id="Selected-Templates" stroke="none" stroke-width="1" fill="none" fill-rule="evenodd" stroke-linecap="round" stroke-linejoin="round">
        <g id="Search-Icons" transform="translate(-329.000000, -86.000000)" stroke="#FF4E00">
            <g id="Excel" transform="translate(330.000000, 87.000000)">
                <polygon id="Stroke-2631" points="19 23 0 23 0 0 13 0 19 6"></polygon>
                <polyline id="Stroke-2632" points="13 0 13 6 19 6"></polyline>
                <polyline id="Stroke-2633" points="11.5 18 9 18 9 13"></polyline>
                <path d="M14.002,16.758 C14.043,17.451 14.582,18 15.242,18 C15.928,18 16.482,17.406 16.482,16.673 C16.482,15.593 15.458,15.562 15.241,15.5 C15.024,15.436 14,15.404 14,14.325 C14,13.593 14.557,13 15.242,13 C15.9,13 16.44,13.549 16.481,14.24" id="Stroke-2634"></path>
                <path d="M3,13 L6,18" id="Stroke-2635"></path>
                <path d="M6,13 L3,18" id="Stroke-2636"></path>
            </g>
        </g>
    </g>
</svg>