<?xml version="1.0" encoding="UTF-8" standalone="no"?>
<svg width="21px" height="25px" viewBox="0 0 21 25" version="1.1" xmlns="http://www.w3.org/2000/svg" xmlns:xlink="http://www.w3.org/1999/xlink">
    <!-- Generator: Sketch 39.1 (31720) - http://www.bohemiancoding.com/sketch -->
    <title>Powerpoint</title>
    <desc>Created with Sketch.</desc>
    <defs></defs>
    <g id="Selected-Templates" stroke="none" stroke-width="1" fill="none" fill-rule="evenodd" stroke-linecap="round" stroke-linejoin="round">
        <g id="Search-Icons" transform="translate(-281.000000, -44.000000)" stroke="#FF4E00">
            <g id="Powerpoint" transform="translate(282.000000, 45.000000)">
                <polyline id="Stroke-2637" points="13 0 13 6 19 6"></polyline>
                <path d="M15,18 L15,13" id="Stroke-3311"></path>
                <path d="M14,13 L16,13" id="Stroke-3312"></path>
                <polygon id="Stroke-3313" points="19 23 0 23 0 0 13 0 19 6"></polygon>
                <path d="M4,18 L4,13 L5.25,13 C5.94,13 6.5,13.56 6.5,14.25 C6.5,14.941 5.94,15.5 5.25,15.5 L4,15.5" id="Stroke-3314"></path>
                <path d="M9,18 L9,13 L10.25,13 C10.94,13 11.5,13.56 11.5,14.25 C11.5,14.941 10.94,15.5 10.25,15.5 L9,15.5" id="Stroke-3315"></path>
            </g>
        </g>
    </g>
</svg>