<?xml version="1.0" encoding="UTF-8" standalone="no"?>
<svg width="21px" height="25px" viewBox="0 0 21 25" version="1.1" xmlns="http://www.w3.org/2000/svg" xmlns:xlink="http://www.w3.org/1999/xlink">
    <!-- Generator: Sketch 39.1 (31720) - http://www.bohemiancoding.com/sketch -->
    <title>Rar</title>
    <desc>Created with Sketch.</desc>
    <defs></defs>
    <g id="Selected-Templates" stroke="none" stroke-width="1" fill="none" fill-rule="evenodd" stroke-linecap="round" stroke-linejoin="round">
        <g id="Search-Icons" transform="translate(-237.000000, -86.000000)" stroke="#FF4E00">
            <g id="Rar" transform="translate(238.000000, 87.000000)">
                <path d="M3,17.999 L3,13 L4.25,13 C4.94,13 5.5,13.56 5.5,14.25 C5.5,14.94 4.94,15.5 4.25,15.5 L3,15.5" id="Stroke-2732"></path>
                <polyline id="Stroke-2733" points="11 18 9.5 13 8 18"></polyline>
                <path d="M8,17 L10.4,17" id="Stroke-2734"></path>
                <path d="M4,15 L5.259,17.5" id="Stroke-2735"></path>
                <path d="M13,17.999 L13,13 L14.25,13 C14.94,13 15.5,13.56 15.5,14.25 C15.5,14.94 14.94,15.5 14.25,15.5 L13,15.5" id="Stroke-2736"></path>
                <path d="M14,15 L15.259,17.5" id="Stroke-2737"></path>
                <polygon id="Stroke-2738" points="19 23 0 23 0 0 13 0 19 6"></polygon>
                <polyline id="Stroke-2739" points="13 0 13 6 19 6"></polyline>
            </g>
        </g>
    </g>
</svg>