<?xml version="1.0" encoding="UTF-8" standalone="no"?>
<svg width="21px" height="25px" viewBox="0 0 21 25" version="1.1" xmlns="http://www.w3.org/2000/svg" xmlns:xlink="http://www.w3.org/1999/xlink">
    <!-- Generator: Sketch 39.1 (31720) - http://www.bohemiancoding.com/sketch -->
    <title>Richtext</title>
    <desc>Created with Sketch.</desc>
    <defs></defs>
    <g id="Selected-Templates" stroke="none" stroke-width="1" fill="none" fill-rule="evenodd" stroke-linecap="round" stroke-linejoin="round">
        <g id="Search-Icons" transform="translate(-281.000000, -86.000000)" stroke="#FF4E00">
            <g id="Richtext" transform="translate(282.000000, 87.000000)">
                <path d="M10,18 L10,13" id="Stroke-3256"></path>
                <path d="M9,13 L11,13" id="Stroke-3257"></path>
                <polygon id="Stroke-3258" points="19 23 0 23 0 0 13 0 19 6"></polygon>
                <polyline id="Stroke-3259" points="13 0 13 6 19 6"></polyline>
                <path d="M4,18 L4,13 L5.25,13 C5.94,13 6.5,13.56 6.5,14.25 C6.5,14.941 5.94,15.5 5.25,15.5 L4,15.5" id="Stroke-3260"></path>
                <path d="M5,15 L6.259,17.5" id="Stroke-3261"></path>
                <polyline id="Stroke-3262" points="14 18 14 13 16.5 13"></polyline>
                <path d="M14,15 L15.5,15" id="Stroke-3263"></path>
            </g>
        </g>
    </g>
</svg>