<?xml version="1.0" encoding="UTF-8" standalone="no"?>
<svg width="24px" height="23px" viewBox="0 0 24 23" version="1.1" xmlns="http://www.w3.org/2000/svg" xmlns:xlink="http://www.w3.org/1999/xlink">
    <!-- Generator: sketchtool 40 (33762) - http://www.bohemiancoding.com/sketch -->
    <title>489FA129-51E7-4663-911E-41E474981931</title>
    <desc>Created with sketchtool.</desc>
    <defs></defs>
    <g id="Footer" stroke="none" stroke-width="1" fill="none" fill-rule="evenodd">
        <g id="FooterGen3_desktop1440" transform="translate(-1055.000000, -59.000000)" fill="#FF4E00">
            <g id="Social-icons" transform="translate(1055.000000, 59.000000)">
                <g id="default">
                    <path d="M0.628272251,7.08997899 L5.34031414,7.08997899 L5.34031414,22.0228551 L0.628272251,22.0228551 L0.628272251,7.08997899 Z M2.84374733,5.20768368 L2.80951418,5.20768368 C1.10538824,5.20768368 0,4.06019329 0,2.60656909 C0,1.12396786 1.13859439,0 2.87695348,0 C4.61428557,0 5.68304434,1.12124061 5.71727749,2.60247822 C5.71727749,4.05678422 4.61428557,5.20768368 2.84374733,5.20768368 L2.84374733,5.20768368 Z M24,22.0228551 L18.7048649,22.0228551 L18.7048649,14.2726719 C18.7048649,12.2440526 17.8777758,10.8596661 16.0556004,10.8596661 C14.6624117,10.8596661 13.8886066,11.7937018 13.5274975,12.6947435 C13.392421,13.0172001 13.4131237,13.4675509 13.4131237,13.9189221 L13.4131237,22.0228551 L8.16753927,22.0228551 C8.16753927,22.0228551 8.2357563,8.29429937 8.16753927,7.04597055 L13.4131237,7.04597055 L13.4131237,9.39636623 C13.7233245,8.36879093 15.3988842,6.90174946 18.0749604,6.90174946 C21.3928196,6.90174946 24,9.05656228 24,13.6947671 L24,22.0228551 L24,22.0228551 Z" id="09-Linkedin"></path>
                </g>
            </g>
        </g>
    </g>
</svg>