<?xml version="1.0" encoding="UTF-8" standalone="no"?>
<svg width="25px" height="20px" viewBox="0 0 25 20" version="1.1" xmlns="http://www.w3.org/2000/svg" xmlns:xlink="http://www.w3.org/1999/xlink">
    <!-- Generator: sketchtool 40 (33762) - http://www.bohemiancoding.com/sketch -->
    <title>36B1B55E-E289-4C95-AF1B-296F6BBE5822</title>
    <desc>Created with sketchtool.</desc>
    <defs></defs>
    <g id="Footer" stroke="none" stroke-width="1" fill="none" fill-rule="evenodd">
        <g id="FooterGen3_desktop1440" transform="translate(-1099.000000, -61.000000)" fill="#FF4E00">
            <g id="Social-icons" transform="translate(1055.000000, 59.000000)">
                <g id="default">
                    <path d="M68.6841046,4.36778449 C67.7767958,4.76908619 66.7996672,5.04056523 65.7761084,5.16238275 C66.8223587,4.53763291 67.6252868,3.54882272 68.0023139,2.37032525 C67.0234398,2.94843639 65.9408832,3.36818474 64.785365,3.59406923 C63.8637431,2.61291614 62.5465919,2 61.0891029,2 C58.2942149,2 56.0264666,4.26128117 56.0264666,7.04846597 C56.0264666,7.44489498 56.0697549,7.82914223 56.1570297,8.19807528 C51.94829,7.987505 48.2178163,5.97925622 45.7186152,2.92233263 C45.2825904,3.67064024 45.0329845,4.53763291 45.0329845,5.46309799 C45.0329845,7.21309364 45.9270275,8.75913196 47.2860705,9.66545429 C46.4562618,9.64004664 45.6746287,9.41068166 44.9910926,9.0347876 L44.9910926,9.09708856 C44.9910926,11.5442285 46.7362393,13.5848459 49.054607,14.0474044 C48.6294042,14.1660895 48.1825572,14.225258 47.7196517,14.225258 C47.3935931,14.225258 47.0752146,14.1949776 46.7676583,14.1358091 C47.4113972,16.1409255 49.2811723,17.6016915 51.497603,17.6403251 C49.7643256,18.9952839 47.5803612,19.8020639 45.2082322,19.8020639 C44.7994371,19.8020639 44.3955294,19.7797887 44,19.7324539 C46.2412167,21.1636357 48.903447,22 51.7629184,22 C61.0793281,22 66.1716378,14.3077459 66.1716378,7.6349303 C66.1716378,7.41531072 66.1670995,7.19673529 66.1580229,6.98164036 C67.1477191,6.26918191 68.0072013,5.37991403 68.6841046,4.36778449" id="01-Twitter"></path>
                </g>
            </g>
        </g>
    </g>
</svg>